  0
SECTION
  2
HEADER
  9
$ACADVER
  1
AC1024
  9
$ACADMAINTVER
 70
     6
  9
$DWGCODEPAGE
  3
ANSI_1251
  9
$LASTSAVEDBY
  1
Autodesk
  9
$INSBASE
 10
0.0
 20
0.0
 30
0.0
  9
$EXTMIN
 10
1.000000E+20
 20
1.000000E+20
 30
1.000000E+20
  9
$EXTMAX
 10
-1.000000E+20
 20
-1.000000E+20
 30
-1.000000E+20
  9
$LIMMIN
 10
0.0
 20
0.0
  9
$LIMMAX
 10
84100.0
 20
59400.0
  9
$ORTHOMODE
 70
     0
  9
$REGENMODE
 70
     1
  9
$FILLMODE
 70
     1
  9
$QTEXTMODE
 70
     0
  9
$MIRRTEXT
 70
     0
  9
$LTSCALE
 40
1.0
  9
$ATTMODE
 70
     1
  9
$TEXTSIZE
 40
250.0
  9
$TRACEWID
 40
1.0
  9
$TEXTSTYLE
  7
ГОСТ 2.304
  9
$CLAYER
  8
0
  9
$CELTYPE
  6
ByLayer
  9
$CECOLOR
 62
   256
  9
$CELTSCALE
 40
100.0
  9
$DISPSILH
 70
     0
  9
$DIMSCALE
 40
100.0
  9
$DIMASZ
 40
2.5
  9
$DIMEXO
 40
0.625
  9
$DIMDLI
 40
3.75
  9
$DIMRND
 40
0.001
  9
$DIMDLE
 40
2.0
  9
$DIMEXE
 40
1.25
  9
$DIMTP
 40
0.0
  9
$DIMTM
 40
0.0
  9
$DIMTXT
 40
2.5
  9
$DIMCEN
 40
2.5
  9
$DIMTSZ
 40
0.0
  9
$DIMTOL
 70
     0
  9
$DIMLIM
 70
     0
  9
$DIMTIH
 70
     0
  9
$DIMTOH
 70
     0
  9
$DIMSE1
 70
     0
  9
$DIMSE2
 70
     0
  9
$DIMTAD
 70
     1
  9
$DIMZIN
 70
     8
  9
$DIMBLK
  1
ARCHTICK
  9
$DIMASO
 70
     1
  9
$DIMSHO
 70
     1
  9
$DIMPOST
  1

  9
$DIMAPOST
  1

  9
$DIMALT
 70
     0
  9
$DIMALTD
 70
     2
  9
$DIMALTF
 40
25.4
  9
$DIMLFAC
 40
1.0
  9
$DIMTOFL
 70
     1
  9
$DIMTVP
 40
0.0
  9
$DIMTIX
 70
     0
  9
$DIMSOXD
 70
     0
  9
$DIMSAH
 70
     0
  9
$DIMBLK1
  1
ARCHTICK
  9
$DIMBLK2
  1
ARCHTICK
  9
$DIMSTYLE
  2
СПДС
  9
$DIMCLRD
 70
     0
  9
$DIMCLRE
 70
     0
  9
$DIMCLRT
 70
     0
  9
$DIMTFAC
 40
0.75
  9
$DIMGAP
 40
0.625
  9
$DIMJUST
 70
     0
  9
$DIMSD1
 70
     0
  9
$DIMSD2
 70
     0
  9
$DIMTOLJ
 70
     1
  9
$DIMTZIN
 70
     8
  9
$DIMALTZ
 70
     0
  9
$DIMALTTZ
 70
     0
  9
$DIMUPT
 70
     0
  9
$DIMDEC
 70
     0
  9
$DIMTDEC
 70
     4
  9
$DIMALTU
 70
     2
  9
$DIMALTTD
 70
     2
  9
$DIMTXSTY
  7
ГОСТ 2.304
  9
$DIMAUNIT
 70
     0
  9
$DIMADEC
 70
     0
  9
$DIMALTRND
 40
0.0
  9
$DIMAZIN
 70
     2
  9
$DIMDSEP
 70
    44
  9
$DIMATFIT
 70
     3
  9
$DIMFRAC
 70
     0
  9
$DIMLDRBLK
  1

  9
$DIMLUNIT
 70
     2
  9
$DIMLWD
 70
    -2
  9
$DIMLWE
 70
    -2
  9
$DIMTMOVE
 70
     1
  9
$DIMFXL
 40
1.0
  9
$DIMFXLON
 70
     0
  9
$DIMJOGANG
 40
0.785398
  9
$DIMTFILL
 70
     0
  9
$DIMTFILLCLR
 70
     0
  9
$DIMARCSYM
 70
     0
  9
$DIMLTYPE
  6

  9
$DIMLTEX1
  6

  9
$DIMLTEX2
  6

  9
$DIMTXTDIRECTION
 70
     0
  9
$LUNITS
 70
     2
  9
$LUPREC
 70
     4
  9
$SKETCHINC
 40
1.0
  9
$FILLETRAD
 40
0.0
  9
$AUNITS
 70
     0
  9
$AUPREC
 70
     0
  9
$MENU
  1
.
  9
$ELEVATION
 40
0.0
  9
$PELEVATION
 40
0.0
  9
$THICKNESS
 40
0.0
  9
$LIMCHECK
 70
     0
  9
$CHAMFERA
 40
0.0
  9
$CHAMFERB
 40
0.0
  9
$CHAMFERC
 40
0.0
  9
$CHAMFERD
 40
0.0
  9
$SKPOLY
 70
     0
  9
$TDCREATE
 40
2454083.075050046
  9
$TDUCREATE
 40
2454082.90838338
  9
$TDUPDATE
 40
2456133.701525012
  9
$TDUUPDATE
 40
2456133.534858345
  9
$TDINDWG
 40
0.0105753588
  9
$TDUSRTIMER
 40
0.0105751736
  9
$USRTIMER
 70
     1
  9
$ANGBASE
 50
0.0
  9
$ANGDIR
 70
     0
  9
$PDMODE
 70
     0
  9
$PDSIZE
 40
0.0
  9
$PLINEWID
 40
0.0
  9
$SPLFRAME
 70
     0
  9
$SPLINETYPE
 70
     6
  9
$SPLINESEGS
 70
     8
  9
$HANDSEED
  5
4B2
  9
$SURFTAB1
 70
     6
  9
$SURFTAB2
 70
     6
  9
$SURFTYPE
 70
     6
  9
$SURFU
 70
     6
  9
$SURFV
 70
     6
  9
$UCSBASE
  2

  9
$UCSNAME
  2

  9
$UCSORG
 10
0.0
 20
0.0
 30
0.0
  9
$UCSXDIR
 10
1.0
 20
0.0
 30
0.0
  9
$UCSYDIR
 10
0.0
 20
1.0
 30
0.0
  9
$UCSORTHOREF
  2

  9
$UCSORTHOVIEW
 70
     0
  9
$UCSORGTOP
 10
0.0
 20
0.0
 30
0.0
  9
$UCSORGBOTTOM
 10
0.0
 20
0.0
 30
0.0
  9
$UCSORGLEFT
 10
0.0
 20
0.0
 30
0.0
  9
$UCSORGRIGHT
 10
0.0
 20
0.0
 30
0.0
  9
$UCSORGFRONT
 10
0.0
 20
0.0
 30
0.0
  9
$UCSORGBACK
 10
0.0
 20
0.0
 30
0.0
  9
$PUCSBASE
  2

  9
$PUCSNAME
  2

  9
$PUCSORG
 10
0.0
 20
0.0
 30
0.0
  9
$PUCSXDIR
 10
1.0
 20
0.0
 30
0.0
  9
$PUCSYDIR
 10
0.0
 20
1.0
 30
0.0
  9
$PUCSORTHOREF
  2

  9
$PUCSORTHOVIEW
 70
     0
  9
$PUCSORGTOP
 10
0.0
 20
0.0
 30
0.0
  9
$PUCSORGBOTTOM
 10
0.0
 20
0.0
 30
0.0
  9
$PUCSORGLEFT
 10
0.0
 20
0.0
 30
0.0
  9
$PUCSORGRIGHT
 10
0.0
 20
0.0
 30
0.0
  9
$PUCSORGFRONT
 10
0.0
 20
0.0
 30
0.0
  9
$PUCSORGBACK
 10
0.0
 20
0.0
 30
0.0
  9
$USERI1
 70
     0
  9
$USERI2
 70
     0
  9
$USERI3
 70
     0
  9
$USERI4
 70
     0
  9
$USERI5
 70
     0
  9
$USERR1
 40
0.0
  9
$USERR2
 40
0.0
  9
$USERR3
 40
0.0
  9
$USERR4
 40
0.0
  9
$USERR5
 40
0.0
  9
$WORLDVIEW
 70
     1
  9
$SHADEDGE
 70
     3
  9
$SHADEDIF
 70
    70
  9
$TILEMODE
 70
     1
  9
$MAXACTVP
 70
    64
  9
$PINSBASE
 10
0.0
 20
0.0
 30
0.0
  9
$PLIMCHECK
 70
     0
  9
$PEXTMIN
 10
0.0
 20
0.0
 30
0.0
  9
$PEXTMAX
 10
0.0
 20
0.0
 30
0.0
  9
$PLIMMIN
 10
0.0
 20
0.0
  9
$PLIMMAX
 10
12.0
 20
9.0
  9
$UNITMODE
 70
     0
  9
$VISRETAIN
 70
     1
  9
$PLINEGEN
 70
     0
  9
$PSLTSCALE
 70
     0
  9
$TREEDEPTH
 70
  3020
  9
$CMLSTYLE
  2
Standard
  9
$CMLJUST
 70
     0
  9
$CMLSCALE
 40
20.0
  9
$PROXYGRAPHICS
 70
     1
  9
$MEASUREMENT
 70
     1
  9
$CELWEIGHT
370
    -1
  9
$ENDCAPS
280
     0
  9
$JOINSTYLE
280
     0
  9
$LWDISPLAY
290
     1
  9
$INSUNITS
 70
     4
  9
$HYPERLINKBASE
  1

  9
$STYLESHEET
  1

  9
$XEDIT
290
     1
  9
$CEPSNTYPE
380
     0
  9
$PSTYLEMODE
290
     1
  9
$FINGERPRINTGUID
  2
{78B0F746-B111-4909-95E5-2EF5CBA97683}
  9
$VERSIONGUID
  2
{88884FFE-1838-4093-901C-E4DA6EFB818F}
  9
$EXTNAMES
290
     1
  9
$PSVPSCALE
 40
0.0
  9
$OLESTARTUP
290
     0
  9
$SORTENTS
280
   127
  9
$INDEXCTL
280
     0
  9
$HIDETEXT
280
     1
  9
$XCLIPFRAME
280
     0
  9
$HALOGAP
280
     0
  9
$OBSCOLOR
 70
   257
  9
$OBSLTYPE
280
     0
  9
$INTERSECTIONDISPLAY
280
     0
  9
$INTERSECTIONCOLOR
 70
   257
  9
$DIMASSOC
280
     2
  9
$PROJECTNAME
  1

  9
$CAMERADISPLAY
290
     0
  9
$LENSLENGTH
 40
50.0
  9
$CAMERAHEIGHT
 40
0.0
  9
$STEPSPERSEC
 40
2.0
  9
$STEPSIZE
 40
6.0
  9
$3DDWFPREC
 40
2.0
  9
$PSOLWIDTH
 40
5.0
  9
$PSOLHEIGHT
 40
80.0
  9
$LOFTANG1
 40
1.570796
  9
$LOFTANG2
 40
1.570796
  9
$LOFTMAG1
 40
0.0
  9
$LOFTMAG2
 40
0.0
  9
$LOFTPARAM
 70
     7
  9
$LOFTNORMALS
280
     1
  9
$LATITUDE
 40
37.795
  9
$LONGITUDE
 40
-122.394
  9
$NORTHDIRECTION
 40
0.0
  9
$TIMEZONE
 70
 -8000
  9
$LIGHTGLYPHDISPLAY
280
     1
  9
$TILEMODELIGHTSYNCH
280
     1
  9
$CMATERIAL
347
EC
  9
$SOLIDHIST
280
     1
  9
$SHOWHIST
280
     1
  9
$DWFFRAME
280
     2
  9
$DGNFRAME
280
     0
  9
$REALWORLDSCALE
290
     1
  9
$INTERFERECOLOR
 62
     1
  9
$CSHADOW
280
     0
  9
$SHADOWPLANELOCATION
 40
0.0
  0
ENDSEC
  0
SECTION
  2
CLASSES
  0
CLASS
  1
ACDBDICTIONARYWDFLT
  2
AcDbDictionaryWithDefault
  3
ObjectDBX Classes
 90
        0
 91
       10
280
     0
281
     0
  0
CLASS
  1
ACDBPLACEHOLDER
  2
AcDbPlaceHolder
  3
ObjectDBX Classes
 90
        0
 91
        1
280
     0
281
     0
  0
CLASS
  1
LAYOUT
  2
AcDbLayout
  3
ObjectDBX Classes
 90
        0
 91
        1
280
     0
281
     0
  0
CLASS
  1
DICTIONARYVAR
  2
AcDbDictionaryVar
  3
ObjectDBX Classes
 90
        0
 91
        6
280
     0
281
     0
  0
CLASS
  1
TABLESTYLE
  2
AcDbTableStyle
  3
ObjectDBX Classes
 90
     4095
 91
        7
280
     0
281
     0
  0
CLASS
  1
MATERIAL
  2
AcDbMaterial
  3
ObjectDBX Classes
 90
     1153
 91
        9
280
     0
281
     0
  0
CLASS
  1
VISUALSTYLE
  2
AcDbVisualStyle
  3
ObjectDBX Classes
 90
     4095
 91
        9
280
     0
281
     0
  0
CLASS
  1
SCALE
  2
AcDbScale
  3
ObjectDBX Classes
 90
     1153
 91
        9
280
     0
281
     0
  0
CLASS
  1
MLEADERSTYLE
  2
AcDbMLeaderStyle
  3
ACDB_MLEADERSTYLE_CLASS
 90
     4095
 91
        5
280
     0
281
     0
  0
CLASS
  1
CELLSTYLEMAP
  2
AcDbCellStyleMap
  3
ObjectDBX Classes
 90
     1152
 91
        5
280
     0
281
     0
  0
CLASS
  1
EXACXREFPANELOBJECT
  2
ExAcXREFPanelObject
  3
EXAC_ESW
 90
     1025
 91
        1
280
     1
281
     0
  0
CLASS
  1
NPOCOLLECTION
  2
AcDbImpNonPersistentObjectsCollection
  3
ObjectDBX Classes
 90
     1153
 91
        1
280
     1
281
     0
  0
CLASS
  1
LAYER_INDEX
  2
AcDbLayerIndex
  3
ObjectDBX Classes
 90
        0
 91
        5
280
     0
281
     0
  0
CLASS
  1
SPATIAL_INDEX
  2
AcDbSpatialIndex
  3
AutoCAD 2000
 90
        0
 91
        5
280
     0
281
     0
  0
CLASS
  1
IDBUFFER
  2
AcDbIdBuffer
  3
ObjectDBX Classes
 90
        0
 91
        5
280
     0
281
     0
  0
CLASS
  1
Wall
  2
PtDbWall
  3
NanoSPDS
 90
      893
 91
        1
280
     1
281
     1
  0
CLASS
  1
SORTENTSTABLE
  2
AcDbSortentsTable
  3
ObjectDBX Classes
 90
        0
 91
        6
280
     0
281
     0
  0
CLASS
  1
Format
  2
mcsDbObjectFormat
  3
NanoSPDS
 90
      893
 91
        1
280
     1
281
     1
  0
CLASS
  1
NotePosition
  2
mcsDbObjectNotePosition
  3
NanoSPDS
 90
      893
 91
        5
280
     0
281
     1
  0
CLASS
  1
mcsDbObject
  2
mcsDbObject
  3
NanoSPDS
 90
      893
 91
       19
280
     0
281
     1
  0
CLASS
  1
McDbContainer2
  2
McDbContainer2
  3
NanoSPDS
 90
      893
 91
        5
280
     0
281
     0
  0
CLASS
  1
spdsLevelMark
  2
mcsDbObjectLevelMark
  3
NanoSPDS
 90
      893
 91
        1
280
     1
281
     1
  0
CLASS
  1
spdsRelationMark
  2
mcsDbObjectRelationMark
  3
NanoSPDS
 90
      893
 91
        1
280
     1
281
     1
  0
CLASS
  1
LAYOUTPRINTCONFIG
  2
CAcLayoutPrintConfig
  3
"CSD_APP"
 90
     4095
 91
        5
280
     0
281
     1
  0
ENDSEC
  0
SECTION
  2
TABLES
  0
TABLE
  2
VPORT
  5
8
330
0
100
AcDbSymbolTable
 70
     1
  0
VPORT
  5
EA
330
8
100
AcDbSymbolTableRecord
100
AcDbViewportTableRecord
  2
*Active
 70
     0
 10
0.0
 20
0.0
 11
1.0
 21
1.0
 12
0.0
 22
0.0
 13
0.0
 23
0.0
 14
10.0
 24
10.0
 15
10.0
 25
10.0
 16
0.0
 26
0.0
 36
1.0
 17
38119.448066
 27
25722.280168
 37
0.0
 40
26400.0
 41
1.822686
 42
50.0
 43
0.0
 44
0.0
 50
0.0
 51
0.0
 71
    16
 72
  1000
 73
     1
 74
     3
 75
     0
 76
     0
 77
     0
 78
     0
281
     0
 65
     1
110
0.0
120
0.0
130
0.0
111
1.0
121
0.0
131
0.0
112
0.0
122
1.0
132
0.0
 79
     0
146
0.0
348
F5
 60
     2
 61
     5
292
     1
282
     1
141
0.0
142
0.0
 63
   250
421
  3355443
  0
ENDTAB
  0
TABLE
  2
LTYPE
  5
5
330
0
100
AcDbSymbolTable
 70
     8
  0
LTYPE
  5
14
330
5
100
AcDbSymbolTableRecord
100
AcDbLinetypeTableRecord
  2
ByBlock
 70
     0
  3

 72
    65
 73
     0
 40
0.0
  0
LTYPE
  5
15
330
5
100
AcDbSymbolTableRecord
100
AcDbLinetypeTableRecord
  2
ByLayer
 70
     0
  3

 72
    65
 73
     0
 40
0.0
  0
LTYPE
  5
16
330
5
100
AcDbSymbolTableRecord
100
AcDbLinetypeTableRecord
  2
Continuous
 70
     0
  3
Solid line
 72
    65
 73
     0
 40
0.0
  0
LTYPE
  5
35A
330
5
100
AcDbSymbolTableRecord
100
AcDbLinetypeTableRecord
  2
GOST2.303 3
 70
     0
  3
Сплошная волнистая ~~~~~~~~~~~~~~~~~~~
 72
    65
 73
     2
 40
26.001
 49
0.001
 74
     4
 75
     1
340
1E3
 46
1.0
 50
0.0
 44
0.0
 45
0.0
 49
-26.0
 74
     0
  0
LTYPE
  5
35B
330
5
100
AcDbSymbolTableRecord
100
AcDbLinetypeTableRecord
  2
GOST2.303 4
 70
     0
  3
Штриховая __ __ __ __ __ __ __ __ __
 72
    65
 73
     3
 40
7.0
 49
5.0
 74
     0
 49
-2.0
 74
     0
 49
0.0
 74
     0
  0
LTYPE
  5
35C
330
5
100
AcDbSymbolTableRecord
100
AcDbLinetypeTableRecord
  2
GOST2.303 5
 70
     0
  3
Штрих-пунктирная тонкая ____ _ ____ _ ____ _ __
 72
    65
 73
     4
 40
24.0
 49
20.0
 74
     0
 49
-1.5
 74
     0
 49
1.0
 74
     0
 49
-1.5
 74
     0
  0
LTYPE
  5
35D
330
5
100
AcDbSymbolTableRecord
100
AcDbLinetypeTableRecord
  2
GOST2.303 6
 70
     0
  3
Штрих-пунктирная утолщенная ___ _ ___ _ ___ _ _
 72
    65
 73
     4
 40
12.0
 49
8.0
 74
     0
 49
-1.5
 74
     0
 49
1.0
 74
     0
 49
-1.5
 74
     0
  0
LTYPE
  5
35E
330
5
100
AcDbSymbolTableRecord
100
AcDbLinetypeTableRecord
  2
GOST2.303 8
 70
     0
  3
Сплошная тонкая с изломами ---'\---'\---'\---'\
 72
    65
 73
     2
 40
48.0
 49
40.0
 74
     4
 75
     2
340
1E3
 46
1.0
 50
0.0
 44
0.0
 45
0.0
 49
-8.0
 74
     0
  0
LTYPE
  5
35F
330
5
100
AcDbSymbolTableRecord
100
AcDbLinetypeTableRecord
  2
GOST2.303 9
 70
     0
  3
Штрих-пунктирная с двумя точками __..__..__..__
 72
    65
 73
     6
 40
26.5
 49
20.0
 74
     0
 49
-1.5
 74
     0
 49
1.0
 74
     0
 49
-1.5
 74
     0
 49
1.0
 74
     0
 49
-1.5
 74
     0
  0
LTYPE
  5
372
330
5
100
AcDbSymbolTableRecord
100
AcDbLinetypeTableRecord
  2
штриховая2
 70
     0
  3
Штриховая (.5x) _ _ _ _ _ _ _ _ _ _ _ _ _ _ _ _
 72
    65
 73
     2
 40
9.525
 49
6.35
 74
     0
 49
-3.175
 74
     0
  0
ENDTAB
  0
TABLE
  2
LAYER
  5
2
330
0
100
AcDbSymbolTable
 70
    12
  0
LAYER
  5
10
330
2
100
AcDbSymbolTableRecord
100
AcDbLayerTableRecord
  2
0
 70
     0
 62
     7
  6
Continuous
370
    -3
390
F
347
EE
  0
LAYER
  5
22D
330
2
100
AcDbSymbolTableRecord
100
AcDbLayerTableRecord
  2
Defpoints
 70
     0
 62
     7
  6
Continuous
290
     0
370
    -3
390
F
347
EE
  0
LAYER
  5
367
330
2
100
AcDbSymbolTableRecord
100
AcDbLayerTableRecord
  2
Размеры по перег.
 70
     0
 62
     5
  6
Continuous
370
    -3
390
F
347
EE
  0
LAYER
  5
36B
330
2
100
AcDbSymbolTableRecord
100
AcDbLayerTableRecord
  2
Контуры
 70
     0
 62
     7
  6
Continuous
370
    35
390
F
347
EE
  0
LAYER
  5
371
330
2
100
AcDbSymbolTableRecord
100
AcDbLayerTableRecord
  2
Стеллаж
 70
     0
 62
     1
  6
Continuous
370
    -3
390
F
347
EE
  0
LAYER
  5
37B
330
2
100
AcDbSymbolTableRecord
100
AcDbLayerTableRecord
  2
объекты
 70
     0
 62
     6
  6
Continuous
370
    -3
390
F
347
EE
  0
LAYER
  5
39F
330
2
100
AcDbSymbolTableRecord
100
AcDbLayerTableRecord
  2
Racking
 70
     0
 62
     7
  6
Continuous
370
    15
390
F
347
EE
1001
AcAecLayerStandard
1000

1000

  0
LAYER
  5
3A2
330
2
100
AcDbSymbolTableRecord
100
AcDbLayerTableRecord
  2
конт пособн.
 70
     0
 62
     7
  6
Continuous
370
    -3
390
F
347
EE
  0
LAYER
  5
3AA
330
2
100
AcDbSymbolTableRecord
100
AcDbLayerTableRecord
  2
стены
 70
     0
 62
   252
  6
Continuous
370
    50
390
F
347
EE
  0
LAYER
  5
3AF
330
2
100
AcDbSymbolTableRecord
100
AcDbLayerTableRecord
  2
Стены АХП
 70
     0
 62
     7
  6
Continuous
370
    -3
390
F
347
EE
  0
LAYER
  5
3CD
330
2
100
AcDbSymbolTableRecord
100
AcDbLayerTableRecord
  2
FURN
 70
     0
 62
   165
  6
Continuous
370
    -3
390
F
347
EE
  0
LAYER
  5
444
330
2
100
AcDbSymbolTableRecord
100
AcDbLayerTableRecord
  2
Перекресток оборудование
 70
     0
 62
   200
  6
Continuous
370
     9
390
F
347
EE
  0
ENDTAB
  0
TABLE
  2
STYLE
  5
3
330
0
100
AcDbSymbolTable
 70
     4
  0
STYLE
  5
11
330
3
100
AcDbSymbolTableRecord
100
AcDbTextStyleTableRecord
  2
Standard
 70
     0
 40
0.0
 41
1.0
 50
0.0
 71
     0
 42
2.5
  3
txt.shx
  4

  0
STYLE
  5
1E3
330
3
100
AcDbSymbolTableRecord
100
AcDbTextStyleTableRecord
  2

 70
     1
 40
0.0
 41
1.0
 50
0.0
 71
     0
 42
0.2
  3
GOST 2.303-68.shx
  4

  0
STYLE
  5
360
330
3
100
AcDbSymbolTableRecord
100
AcDbTextStyleTableRecord
  2
ГОСТ 2.304
 70
     0
 40
0.0
 41
1.0
 50
0.0
 71
     0
 42
250.0
  3
CS_Gost2304.shx
  4

  0
ENDTAB
  0
TABLE
  2
VIEW
  5
6
330
0
100
AcDbSymbolTable
 70
     0
  0
ENDTAB
  0
TABLE
  2
UCS
  5
7
330
0
100
AcDbSymbolTable
 70
     0
  0
ENDTAB
  0
TABLE
  2
APPID
  5
9
330
0
100
AcDbSymbolTable
 70
    15
  0
APPID
  5
12
330
9
100
AcDbSymbolTableRecord
100
AcDbRegAppTableRecord
  2
ACAD
 70
     0
  0
APPID
  5
9E
330
9
100
AcDbSymbolTableRecord
100
AcDbRegAppTableRecord
  2
ACAD_PSEXT
 70
     0
  0
APPID
  5
133
330
9
100
AcDbSymbolTableRecord
100
AcDbRegAppTableRecord
  2
AcadAnnoPO
 70
     0
  0
APPID
  5
134
330
9
100
AcDbSymbolTableRecord
100
AcDbRegAppTableRecord
  2
AcadAnnotative
 70
     0
  0
APPID
  5
135
330
9
100
AcDbSymbolTableRecord
100
AcDbRegAppTableRecord
  2
ACAD_DSTYLE_DIMJAG
 70
     0
  0
APPID
  5
136
330
9
100
AcDbSymbolTableRecord
100
AcDbRegAppTableRecord
  2
ACAD_DSTYLE_DIMTALN
 70
     0
  0
APPID
  5
165
330
9
100
AcDbSymbolTableRecord
100
AcDbRegAppTableRecord
  2
ACAD_MLEADERVER
 70
     0
  0
APPID
  5
1E1
330
9
100
AcDbSymbolTableRecord
100
AcDbRegAppTableRecord
  2
MCS_DIM1
 70
     0
  0
APPID
  5
1E2
330
9
100
AcDbSymbolTableRecord
100
AcDbRegAppTableRecord
  2
McsXdata5
 70
     0
  0
APPID
  5
209
330
9
100
AcDbSymbolTableRecord
100
AcDbRegAppTableRecord
  2
MCS_PARAMS_DATA
 70
     0
  0
APPID
  5
20C
330
9
100
AcDbSymbolTableRecord
100
AcDbRegAppTableRecord
  2
MCS_PARAMS_HIDDEN_DATA
 70
     0
  0
APPID
  5
34D
330
9
100
AcDbSymbolTableRecord
100
AcDbRegAppTableRecord
  2
MCS_DOCUMENT_ID
 70
     0
  0
APPID
  5
353
330
9
100
AcDbSymbolTableRecord
100
AcDbRegAppTableRecord
  2
McSubentIdentification
 70
     0
  0
APPID
  5
355
330
9
100
AcDbSymbolTableRecord
100
AcDbRegAppTableRecord
  2
MC_VERSION_DATA
 70
     0
  0
APPID
  5
3A0
330
9
100
AcDbSymbolTableRecord
100
AcDbRegAppTableRecord
  2
AcAecLayerStandard
 70
     0
  0
ENDTAB
  0
TABLE
  2
DIMSTYLE
  5
A
330
0
100
AcDbSymbolTable
 70
     6
100
AcDbDimStyleTable
  0
DIMSTYLE
105
1B0
330
A
100
AcDbSymbolTableRecord
100
AcDbDimStyleTableRecord
  2
Standard
 70
     0
 40
100.0
 41
2.5
 42
0.5
 43
6.0
 44
0.0
 50
45.000001
 73
     0
140
2.5
141
2.5
143
25.4
147
1.0
178
     0
340
11
345
15
346
15
347
15
  0
DIMSTYLE
105
361
330
A
100
AcDbSymbolTableRecord
100
AcDbDimStyleTableRecord
  2
СПДС
 70
     0
 40
100.0
 41
2.5
 42
0.625
 43
3.75
 44
1.25
 45
0.001
 46
2.0
 73
     0
 74
     0
 77
     1
 78
     8
 79
     2
140
2.5
141
2.5
146
0.75
147
0.625
172
     1
178
     0
271
     0
278
    44
279
     1
284
     8
340
360
342
1EC
343
1EC
344
1EC
  0
DIMSTYLE
105
362
330
A
100
AcDbSymbolTableRecord
100
AcDbDimStyleTableRecord
  2
СПДС$2
 70
     0
 41
2.5
 42
0.625
 43
3.75
 45
0.001
 73
     0
 77
     1
140
2.5
147
0.625
178
     0
271
     0
278
    44
340
360
342
1F4
343
1F4
344
1F4
  0
DIMSTYLE
105
363
330
A
100
AcDbSymbolTableRecord
100
AcDbDimStyleTableRecord
  2
СПДС$3
 70
     0
 41
2.5
 45
0.001
 73
     0
 77
     1
140
2.5
141
2.5
147
0.625
172
     1
178
     0
271
     0
278
    44
288
     1
289
     1
340
360
342
1F4
343
1F4
344
1F4
  0
DIMSTYLE
105
364
330
A
100
AcDbSymbolTableRecord
100
AcDbDimStyleTableRecord
  2
СПДС$7
 70
     0
 41
1.0
 45
0.001
 73
     0
 77
     1
140
2.5
147
0.625
178
     0
271
     0
340
360
341
1FC
  0
DIMSTYLE
105
365
330
A
100
AcDbSymbolTableRecord
100
AcDbDimStyleTableRecord
  2
СПДС$4
 70
     0
 41
2.5
 45
0.001
 73
     0
 77
     1
140
2.5
141
2.5
147
0.625
172
     1
178
     0
271
     0
278
    44
340
360
342
1F4
343
1F4
344
1F4
  0
ENDTAB
  0
TABLE
  2
BLOCK_RECORD
  5
1
330
0
100
AcDbSymbolTable
 70
    14
  0
BLOCK_RECORD
  5
1F
102
{ACAD_XDICTIONARY
360
234
102
}
330
1
100
AcDbSymbolTableRecord
100
AcDbBlockTableRecord
  2
*Model_Space
340
22
 70
     0
280
     1
281
     0
  0
BLOCK_RECORD
  5
D2
330
1
100
AcDbSymbolTableRecord
100
AcDbBlockTableRecord
  2
*Paper_Space
340
D3
 70
     0
280
     1
281
     0
  0
BLOCK_RECORD
  5
21A
330
1
100
AcDbSymbolTableRecord
100
AcDbBlockTableRecord
  2
*Paper_Space0
340
21B
 70
     0
280
     1
281
     0
  0
BLOCK_RECORD
  5
1EC
330
1
100
AcDbSymbolTableRecord
100
AcDbBlockTableRecord
  2
_ARCHTICK
340
0
 70
     0
280
     1
281
     0
  0
BLOCK_RECORD
  5
1F4
330
1
100
AcDbSymbolTableRecord
100
AcDbBlockTableRecord
  2
_OPEN30
340
0
 70
     0
280
     1
281
     0
  0
BLOCK_RECORD
  5
1FC
330
1
100
AcDbSymbolTableRecord
100
AcDbBlockTableRecord
  2
_DOT
340
0
 70
     0
280
     1
281
     0
  0
BLOCK_RECORD
  5
224
330
1
100
AcDbSymbolTableRecord
100
AcDbBlockTableRecord
  2
*Paper_Space4
340
225
 70
     0
280
     1
281
     0
  0
BLOCK_RECORD
  5
D6
330
1
100
AcDbSymbolTableRecord
100
AcDbBlockTableRecord
  2
*Paper_Space5
340
D7
 70
     0
280
     1
281
     0
  0
BLOCK_RECORD
  5
21F
330
1
100
AcDbSymbolTableRecord
100
AcDbBlockTableRecord
  2
*Paper_Space6
340
220
 70
     0
280
     1
281
     0
  0
BLOCK_RECORD
  5
210
330
1
100
AcDbSymbolTableRecord
100
AcDbBlockTableRecord
  2
*Paper_Space7
340
211
 70
     0
280
     1
281
     0
  0
BLOCK_RECORD
  5
215
330
1
100
AcDbSymbolTableRecord
100
AcDbBlockTableRecord
  2
*Paper_Space8
340
216
 70
     0
280
     1
281
     0
  0
BLOCK_RECORD
  5
37C
330
1
100
AcDbSymbolTableRecord
100
AcDbBlockTableRecord
  2
умывальник1
340
0
310
28000000200000002000000001000800000000000004000000000000000000000000000000000000000000004000000080000000FF000000002000004020000080200000FF200000004000004040000080400000FF400000006000004060000080600000FF600000008000004080000080800000FF80000000A0000040A000
310
0080A00000FFA0000000C0000040C0000080C00000FFC0000000FF000040FF000080FF0000FFFF0000000020004000200080002000FF002000002020004020200080202000FF202000004020004040200080402000FF402000006020004060200080602000FF602000008020004080200080802000FF80200000A0200040A0
310
200080A02000FFA0200000C0200040C0200080C02000FFC0200000FF200040FF200080FF2000FFFF2000000040004000400080004000FF004000002040004020400080204000FF204000004040004040400080404000FF404000006040004060400080604000FF604000008040004080400080804000FF80400000A0400040
310
A0400080A04000FFA0400000C0400040C0400080C04000FFC0400000FF400040FF400080FF4000FFFF4000000060004000600080006000FF006000002060004020600080206000FF206000004060004040600080406000FF406000006060004060600080606000FF606000008060004080600080806000FF80600000A06000
310
40A0600080A06000FFA0600000C0600040C0600080C06000FFC0600000FF600040FF600080FF6000FFFF6000000080004000800080008000FF008000002080004020800080208000FF208000004080004040800080408000FF408000006080004060800080608000FF608000008080004080800080808000FF80800000A080
310
0040A0800080A08000FFA0800000C0800040C0800080C08000FFC0800000FF800040FF800080FF8000FFFF80000000A0004000A0008000A000FF00A0000020A0004020A0008020A000FF20A0000040A0004040A0008040A000FF40A0000060A0004060A0008060A000FF60A0000080A0004080A0008080A000FF80A00000A0
310
A00040A0A00080A0A000FFA0A00000C0A00040C0A00080C0A000FFC0A00000FFA00040FFA00080FFA000FFFFA0000000C0004000C0008000C000FF00C0000020C0004020C0008020C000FF20C0000040C0004040C0008040C000FF40C0000060C0004060C0008060C000FF60C0000080C0004080C0008080C000FF80C00000
310
A0C00040A0C00080A0C000FFA0C00000C0C00040C0C00080C0C000FFC0C00000FFC00040FFC00080FFC000FFFFC0000000FF004000FF008000FF00FF00FF000020FF004020FF008020FF00FF20FF000040FF004040FF008040FF00FF40FF000060FF004060FF008060FF00FF60FF000080FF004080FF008080FF00FF80FF00
310
00A0FF0040A0FF0080A0FF00FFA0FF0000C0FF0040C0FF0080C0FF00FFC0FF0000FFFF0040FFFF0080FFFF00FFFFFF00FFFFFFFFFFFFFFFFFFFFFFFFFFFFFFFFFFFFFFFFFFFFFFFFFFFFFFFFFFFFFFFFFFFFFFFFFFFFFFFFFFFFFFFFFFFFFFFFFFFFFFFFFFFFFFFFFFFFFFFFFFFFFFFFFFFFFFFFFFFFFFFFFFFFFFFFFFFFFF
310
FFFFFFFFFFFFFFFFFFFFFFFFFFFFFFFFFFFFFFFFFFFFFFFFFFFFFFFFFFFFFFFFFFFFFFFFFFFFFFFFFFFFFFFFFFFFFFFFFFFF000000000000000000000000000000000000000000000000000000000000FFFF00FFFFFFFFFFFFFFFFFFFFFFFFFFFFFFFFFFFFFFFFFFFFFFFFFFFFFFFF00FFFF00FFFFFFFFFFFFFFFFFFFFFFFF
310
FF0000FFFFFFFFFFFFFFFFFFFFFFFFFF00FFFF00FFFFFFFFFFFFFFFFFFFFFFFFFF0000FFFFFFFFFFFFFFFFFFFFFFFFFF00FFFF00FFFF000000000000000000000000000000000000000000000000FFFF00FFFF00FFFF00FFFFFFFFFFFFFFFF000000000000FFFFFFFFFFFFFFFF00FFFF00FFFF00FFFF00FFFFFFFFFFFFFFFF
310
00FFFFFFFF00FFFFFFFFFFFFFFFF00FFFF00FFFF00FFFF00FFFFFFFFFFFFFFFF00FFFFFFFF00FFFFFFFFFFFFFFFF00FFFF00FFFF00FFFF00FFFFFFFFFFFFFFFFFFFFFFFFFFFFFFFFFFFFFFFFFFFF00FFFF00FFFF00FFFF00FFFFFFFFFFFFFFFFFFFF0000FFFFFFFFFFFFFFFFFFFF00FFFF00FFFF00FFFF00FFFFFFFFFFFFFF
310
FFFFFF0000FFFFFFFFFFFFFFFFFFFF00FFFF00FFFF00FFFF00FFFFFFFFFFFFFFFFFFFF0000FFFFFFFFFFFFFFFFFFFF00FFFF00FFFF00FFFF00FFFFFFFFFFFFFFFFFFFFFFFFFFFFFFFFFFFFFFFFFFFF00FFFF00FFFF00FFFF00FFFFFFFFFFFFFFFFFFFFFFFFFFFFFFFFFFFFFFFFFFFF00FFFF00FFFF00FFFF00FFFFFFFFFFFF
310
FFFFFFFFFFFFFFFFFFFFFFFFFFFFFFFF00FFFF00FFFF00FFFF00FFFFFFFFFFFFFFFFFFFFFFFFFFFFFFFFFFFFFFFFFFFF00FFFF00FFFFFF00FF00FFFFFFFFFFFFFFFFFFFFFFFFFFFFFFFFFFFFFFFFFFFF00FF00FFFFFFFF00FFFF00FFFFFFFFFFFFFFFFFFFFFFFFFFFFFFFFFFFFFFFF00FFFF00FFFFFFFF00FFFFFF00FFFFFF
310
FFFFFFFFFFFFFFFFFFFFFFFFFFFFFF00FFFFFF00FFFFFFFFFF00FFFFFF00FFFFFFFFFFFFFFFFFFFFFFFFFFFFFFFF00FFFFFF00FFFFFFFFFFFF00FFFFFFFF00FFFFFFFFFFFFFFFFFFFFFFFFFFFF00FFFFFFFF00FFFFFFFFFFFFFF0000FFFFFF0000000000000000000000000000FFFFFF0000FFFFFFFFFFFFFFFFFFFF00FFFF
310
FFFFFFFFFFFFFFFFFFFFFFFFFFFFFFFF00FFFFFFFFFFFFFFFFFFFFFFFFFF000000000000000000000000000000000000FFFFFFFFFFFFFFFFFFFFFFFFFFFFFFFFFFFFFFFFFFFFFFFFFFFFFFFFFFFFFFFFFFFFFFFFFFFFFFFFFFFFFFFFFFFFFFFFFFFFFFFFFFFFFFFFFFFFFFFFFFFFFFFFFFFFFFFFFFFFFFFFFFFFFFFFFFFFFF
310
FFFFFFFFFFFFFFFFFFFFFFFFFFFFFFFFFFFFFFFFFFFFFFFFFFFFFFFFFFFFFFFFFFFFFFFFFFFFFFFFFFFFFFFFFFFFFFFFFFFFFFFFFFFFFFFF
102
{BLKREFS
331
37A
331
43A
331
438
102
}
 70
     0
280
     1
281
     0
  0
BLOCK_RECORD
  5
396
330
1
100
AcDbSymbolTableRecord
100
AcDbBlockTableRecord
  2
Плита 4-х комфорочная
340
0
310
2800000020000000200000000100080000000000000400000000000000000000000000000000000000000000000080000080000000808000800000008000800080800000C0C0C000C0DCC000F0CAA6000020400000206000002080000020A0000020C0000020E00000400000004020000040400000406000004080000040A0
310
000040C0000040E00000600000006020000060400000606000006080000060A0000060C0000060E00000800000008020000080400000806000008080000080A0000080C0000080E00000A0000000A0200000A0400000A0600000A0800000A0A00000A0C00000A0E00000C0000000C0200000C0400000C0600000C0800000C0
310
A00000C0C00000C0E00000E0000000E0200000E0400000E0600000E0800000E0A00000E0C00000E0E00040000000400020004000400040006000400080004000A0004000C0004000E00040200000402020004020400040206000402080004020A0004020C0004020E000404000004040200040404000404060004040800040
310
40A0004040C0004040E00040600000406020004060400040606000406080004060A0004060C0004060E00040800000408020004080400040806000408080004080A0004080C0004080E00040A0000040A0200040A0400040A0600040A0800040A0A00040A0C00040A0E00040C0000040C0200040C0400040C0600040C08000
310
40C0A00040C0C00040C0E00040E0000040E0200040E0400040E0600040E0800040E0A00040E0C00040E0E00080000000800020008000400080006000800080008000A0008000C0008000E00080200000802020008020400080206000802080008020A0008020C0008020E00080400000804020008040400080406000804080
310
008040A0008040C0008040E00080600000806020008060400080606000806080008060A0008060C0008060E00080800000808020008080400080806000808080008080A0008080C0008080E00080A0000080A0200080A0400080A0600080A0800080A0A00080A0C00080A0E00080C0000080C0200080C0400080C0600080C0
310
800080C0A00080C0C00080C0E00080E0000080E0200080E0400080E0600080E0800080E0A00080E0C00080E0E000C0000000C0002000C0004000C0006000C0008000C000A000C000C000C000E000C0200000C0202000C0204000C0206000C0208000C020A000C020C000C020E000C0400000C0402000C0404000C0406000C0
310
408000C040A000C040C000C040E000C0600000C0602000C0604000C0606000C0608000C060A000C060C000C060E000C0800000C0802000C0804000C0806000C0808000C080A000C080C000C080E000C0A00000C0A02000C0A04000C0A06000C0A08000C0A0A000C0A0C000C0A0E000C0C00000C0C02000C0C04000C0C06000
310
C0C08000C0C0A000F0FBFF00A4A0A000808080000000FF0000FF000000FFFF00FF000000FF00FF00FFFF0000FFFFFF00000000000000000000000000000000000000000000000000000000000000000000000000000000FAFAFAFAFAFAFAFAFAFAFAFAFAFAFAFAFAFA0000000000000000000000000000FA00000000000000
310
000000000000000000FA0000000000000000000000000000FA00000000000000000000000000000000FA0000000000000000000000000000FA00000000000000000000000000000000FA0000000000000000000000000000FA0000F9F9F9F9F90000F9F9F9F9F90000FA0000000000000000000000000000FA0000F9000000
310
F90000F9000000F90000FA0000000000000000000000000000FA0000F9000000F90000F9000000F90000FA0000000000000000000000000000FA0000F9000000F90000F9000000F90000FA0000000000000000000000000000FA0000F9000000F90000F9000000F90000FA0000000000000000000000000000FA0000F90000
310
00F90000F9000000F90000FA0000000000000000000000000000FA0000F9000000F90000F9000000F90000FA0000000000000000000000000000FA0000F9F9F9F9F90000F9F9F9F9F90000FA0000000000000000000000000000FA00000000000000000000000000000000FA0000000000000000000000000000FA00000000
310
000000000000000000000000FA0000000000000000000000000000FA00000000000000000000000000000000FA0000000000000000000000000000FA00000000000000000000000000000000FA0000000000000000000000000000FA00000000000000000000000000000000FA0000000000000000000000000000FA000000
310
00000000000000000000000000FA0000000000000000000000000000FA0000F9F9F9F9F90000F9F9F9F9F90000FA0000000000000000000000000000FA0000F9000000F90000F9000000F90000FA0000000000000000000000000000FA0000F9000000F90000F9000000F90000FA0000000000000000000000000000FA0000
310
F9000000F90000F9000000F90000FA0000000000000000000000000000FA0000F9000000F90000F9000000F90000FA0000000000000000000000000000FA0000F9000000F90000F9000000F90000FA0000000000000000000000000000FA0000F9000000F90000F9000000F90000FA0000000000000000000000000000FA00
310
00F9F9F9F9F90000F9F9F9F9F90000FA0000000000000000000000000000FA00000000000000000000000000000000FA0000000000000000000000000000FA00000000000000000000000000000000FA0000000000000000000000000000FA00000000000000000000000000000000FA0000000000000000000000000000FA
310
FAFAFAFAFAFAFAFAFAFAFAFAFAFAFAFAFA000000000000000000000000000000000000000000000000000000000000000000000000000000
102
{BLKREFS
331
395
102
}
 70
     4
280
     1
281
     0
  0
BLOCK_RECORD
  5
3A3
330
1
100
AcDbSymbolTableRecord
100
AcDbBlockTableRecord
  2
Стол 1200х600
340
0
310
2800000020000000200000000100080000000000000400000000000000000000000000000000000000000000000080000080000000808000800000008000800080800000C0C0C000C0DCC000F0CAA6000020400000206000002080000020A0000020C0000020E00000400000004020000040400000406000004080000040A0
310
000040C0000040E00000600000006020000060400000606000006080000060A0000060C0000060E00000800000008020000080400000806000008080000080A0000080C0000080E00000A0000000A0200000A0400000A0600000A0800000A0A00000A0C00000A0E00000C0000000C0200000C0400000C0600000C0800000C0
310
A00000C0C00000C0E00000E0000000E0200000E0400000E0600000E0800000E0A00000E0C00000E0E00040000000400020004000400040006000400080004000A0004000C0004000E00040200000402020004020400040206000402080004020A0004020C0004020E000404000004040200040404000404060004040800040
310
40A0004040C0004040E00040600000406020004060400040606000406080004060A0004060C0004060E00040800000408020004080400040806000408080004080A0004080C0004080E00040A0000040A0200040A0400040A0600040A0800040A0A00040A0C00040A0E00040C0000040C0200040C0400040C0600040C08000
310
40C0A00040C0C00040C0E00040E0000040E0200040E0400040E0600040E0800040E0A00040E0C00040E0E00080000000800020008000400080006000800080008000A0008000C0008000E00080200000802020008020400080206000802080008020A0008020C0008020E00080400000804020008040400080406000804080
310
008040A0008040C0008040E00080600000806020008060400080606000806080008060A0008060C0008060E00080800000808020008080400080806000808080008080A0008080C0008080E00080A0000080A0200080A0400080A0600080A0800080A0A00080A0C00080A0E00080C0000080C0200080C0400080C0600080C0
310
800080C0A00080C0C00080C0E00080E0000080E0200080E0400080E0600080E0800080E0A00080E0C00080E0E000C0000000C0002000C0004000C0006000C0008000C000A000C000C000C000E000C0200000C0202000C0204000C0206000C0208000C020A000C020C000C020E000C0400000C0402000C0404000C0406000C0
310
408000C040A000C040C000C040E000C0600000C0602000C0604000C0606000C0608000C060A000C060C000C060E000C0800000C0802000C0804000C0806000C0808000C080A000C080C000C080E000C0A00000C0A02000C0A04000C0A06000C0A08000C0A0A000C0A0C000C0A0E000C0C00000C0C02000C0C04000C0C06000
310
C0C08000C0C0A000F0FBFF00A4A0A000808080000000FF0000FF000000FFFF00FF000000FF00FF00FFFF0000FFFFFF0000000000000000000000000000000000000000000000000000000000000000000000000000000000000000000000000000000000000000000000000000000000000000000000000000000000000000
310
00000000000000000000000000000000000000000000000000000000000000000000000000000000000000000000000000000000000000000000000000000000000000000000000000000000000000000000000000000000000000000000000000000000000000000000000000000000000000000000000000000000000000
310
000000000000000000000000000000000000000000000000000000000000000000000000000000000000000000000000000000F9F9FFFFFFFFFFFFFFFFFFFFFFFFFFFFFFFFFFFFFFFFFFFFFFFFFFFFF9F90000F9F900000000000000000000000000000000000000000000000000FFF9F90000F9F900000000000000000000
310
00000000000000000000000000FFFF00F9F90000FF00000000000000000000000000000000000000000000FFFF00000000FF0000FF0000000000000000000000000000000000000000FFFF000000000000FF0000FF000000000000000000000000000000000000FFFF0000000000000000FF0000FF00000000000000000000
310
000000000000FFFF00000000000000000000FF0000FF0000000000000000000000000000FFFF000000000000000000000000FF0000FF000000000000000000000000FFFF0000000000000000000000000000FF0000FF00000000000000000000FFFF00000000000000000000000000000000FF0000FF0000000000000000FF
310
FF000000000000000000000000000000000000FF0000FF000000000000FFFF0000000000000000000000000000000000000000FF0000FF00000000FFFF00000000000000000000000000000000000000000000FF0000FF0000FFFF000000000000000000000000000000000000000000000000FF0000FFFFFF000000000000
310
0000000000000000000000000000000000000000FF0000FFFFFFFFFFFFFFFFFFFFFFFFFFFFFFFFFFFFFFFFFFFFFFFFFFFFFFFFFFFF0000000000000000000000000000000000000000000000000000000000000000000000000000000000000000000000000000000000000000000000000000000000000000000000000000
310
00000000000000000000000000000000000000000000000000000000000000000000000000000000000000000000000000000000000000000000000000000000000000000000000000000000000000000000000000000000000000000000000000000000000000000000000000000000000000000000000000000000000000
310
0000000000000000000000000000000000000000000000000000000000000000000000000000000000000000000000000000000000000000
102
{BLKREFS
331
3A1
331
439
102
}
 70
     4
280
     1
281
     0
  0
BLOCK_RECORD
  5
3B0
330
1
100
AcDbSymbolTableRecord
100
AcDbBlockTableRecord
  2
водонагреватель
340
0
310
2800000020000000200000000100080000000000000400000000000000000000000000000000000000000000000080000080000000808000800000008000800080800000C0C0C000C0DCC000F0CAA6000020400000206000002080000020A0000020C0000020E00000400000004020000040400000406000004080000040A0
310
000040C0000040E00000600000006020000060400000606000006080000060A0000060C0000060E00000800000008020000080400000806000008080000080A0000080C0000080E00000A0000000A0200000A0400000A0600000A0800000A0A00000A0C00000A0E00000C0000000C0200000C0400000C0600000C0800000C0
310
A00000C0C00000C0E00000E0000000E0200000E0400000E0600000E0800000E0A00000E0C00000E0E00040000000400020004000400040006000400080004000A0004000C0004000E00040200000402020004020400040206000402080004020A0004020C0004020E000404000004040200040404000404060004040800040
310
40A0004040C0004040E00040600000406020004060400040606000406080004060A0004060C0004060E00040800000408020004080400040806000408080004080A0004080C0004080E00040A0000040A0200040A0400040A0600040A0800040A0A00040A0C00040A0E00040C0000040C0200040C0400040C0600040C08000
310
40C0A00040C0C00040C0E00040E0000040E0200040E0400040E0600040E0800040E0A00040E0C00040E0E00080000000800020008000400080006000800080008000A0008000C0008000E00080200000802020008020400080206000802080008020A0008020C0008020E00080400000804020008040400080406000804080
310
008040A0008040C0008040E00080600000806020008060400080606000806080008060A0008060C0008060E00080800000808020008080400080806000808080008080A0008080C0008080E00080A0000080A0200080A0400080A0600080A0800080A0A00080A0C00080A0E00080C0000080C0200080C0400080C0600080C0
310
800080C0A00080C0C00080C0E00080E0000080E0200080E0400080E0600080E0800080E0A00080E0C00080E0E000C0000000C0002000C0004000C0006000C0008000C000A000C000C000C000E000C0200000C0202000C0204000C0206000C0208000C020A000C020C000C020E000C0400000C0402000C0404000C0406000C0
310
408000C040A000C040C000C040E000C0600000C0602000C0604000C0606000C0608000C060A000C060C000C060E000C0800000C0802000C0804000C0806000C0808000C080A000C080C000C080E000C0A00000C0A02000C0A04000C0A06000C0A08000C0A0A000C0A0C000C0A0E000C0C00000C0C02000C0C04000C0C06000
310
C0C08000C0C0A000F0FBFF00A4A0A000808080000000FF0000FF000000FFFF00FF000000FF00FF00FFFF0000FFFFFF0000000000000000000000000000000000000000000000000000000000000000000000000000000000000000000000F9F9F9F9000000000000000000000000000000000000000000000000F9F9F9F900
310
000000F9F9F9F9000000000000000000000000000000000000F9F9000000000000000000000000F9F9000000000000000000000000000000F900000000000000000000000000000000F900000000000000000000000000F9000000000000000000000000000000000000F90000000000000000000000F9F900000000000000
310
000000000000000000000000F900000000000000000000F900F900000000000000000000000000000000000000F90000000000000000F9000000F9000000000000000000000000000000000000F900000000000000F90000000000F9000000000000000000000000000000000000F9000000000000F9000000000000F90000
310
00000000000000000000000000000000F900000000F90000000000000000F90000000000000000000000000000000000F900000000F9000000000000000000F900000000000000000000000000000000F900000000F900000000000000000000F9000000000000F9F900000000000000F900000000F9000000000000000000
310
F90000000000F9F9F90000000000000000F9000000F900000000000000000000F9000000F9F90000F9000000000000000000F90000F9000000000000000000F90000F9F9000000F900000000000000000000F9000000F90000000000000000F9F9F90000000000F900000000000000000000F9000000F900000000000000F9
310
F9000000000000F900000000000000000000F900000000F900000000000000000000000000000000F9000000000000000000F900000000F90000000000000000000000000000000000F90000000000000000F90000000000F90000000000000000000000000000000000F900000000000000F90000000000F9000000000000
310
000000000000000000000000F90000000000F900000000000000F9000000000000000000000000000000000000F9000000F9000000000000000000F9000000000000000000000000000000000000F90000F9000000000000000000F900000000000000000000000000000000000000F9F90000000000000000000000F90000
310
00000000000000000000000000000000F900000000000000000000000000F900000000000000000000000000000000F9000000000000000000000000000000F90000000000000000000000000000F90000000000000000000000000000000000F9F9F9F9000000000000F9F9F9F90000000000000000000000000000000000
310
0000000000F9F9F9F9F9F9000000000000000000000000000000000000000000000000000000000000000000000000000000000000000000
102
{BLKREFS
331
3AE
102
}
 70
     0
280
     1
281
     0
  0
BLOCK_RECORD
  5
3BF
330
1
100
AcDbSymbolTableRecord
100
AcDbBlockTableRecord
  2
Мойка 2х600х600
340
0
310
2800000020000000200000000100080000000000000400000000000000000000000000000000000000000000000080000080000000808000800000008000800080800000C0C0C000C0DCC000F0CAA6000020400000206000002080000020A0000020C0000020E00000400000004020000040400000406000004080000040A0
310
000040C0000040E00000600000006020000060400000606000006080000060A0000060C0000060E00000800000008020000080400000806000008080000080A0000080C0000080E00000A0000000A0200000A0400000A0600000A0800000A0A00000A0C00000A0E00000C0000000C0200000C0400000C0600000C0800000C0
310
A00000C0C00000C0E00000E0000000E0200000E0400000E0600000E0800000E0A00000E0C00000E0E00040000000400020004000400040006000400080004000A0004000C0004000E00040200000402020004020400040206000402080004020A0004020C0004020E000404000004040200040404000404060004040800040
310
40A0004040C0004040E00040600000406020004060400040606000406080004060A0004060C0004060E00040800000408020004080400040806000408080004080A0004080C0004080E00040A0000040A0200040A0400040A0600040A0800040A0A00040A0C00040A0E00040C0000040C0200040C0400040C0600040C08000
310
40C0A00040C0C00040C0E00040E0000040E0200040E0400040E0600040E0800040E0A00040E0C00040E0E00080000000800020008000400080006000800080008000A0008000C0008000E00080200000802020008020400080206000802080008020A0008020C0008020E00080400000804020008040400080406000804080
310
008040A0008040C0008040E00080600000806020008060400080606000806080008060A0008060C0008060E00080800000808020008080400080806000808080008080A0008080C0008080E00080A0000080A0200080A0400080A0600080A0800080A0A00080A0C00080A0E00080C0000080C0200080C0400080C0600080C0
310
800080C0A00080C0C00080C0E00080E0000080E0200080E0400080E0600080E0800080E0A00080E0C00080E0E000C0000000C0002000C0004000C0006000C0008000C000A000C000C000C000E000C0200000C0202000C0204000C0206000C0208000C020A000C020C000C020E000C0400000C0402000C0404000C0406000C0
310
408000C040A000C040C000C040E000C0600000C0602000C0604000C0606000C0608000C060A000C060C000C060E000C0800000C0802000C0804000C0806000C0808000C080A000C080C000C080E000C0A00000C0A02000C0A04000C0A06000C0A08000C0A0A000C0A0C000C0A0E000C0C00000C0C02000C0C04000C0C06000
310
C0C08000C0C0A000F0FBFF00A4A0A000808080000000FF0000FF000000FFFF00FF000000FF00FF00FFFF0000FFFFFF0000000000000000000000000000000000000000000000000000000000000000000000000000000000FFFFFFFFFFFFFFFFFFFFFFFFFFFFFFFF00000000000000000000000000000000FF000000000000
310
000000000000FFFFFF00000000000000000000000000000000FF0000000000000000000000000000FF00000000000000000000000000000000FF0000000000000000000000000000FF00000000000000000000000000000000FF000000FFFFFFFFFFFFFFFF000000FF00000000000000000000000000000000FF0000FF0000
310
000000000000FF0000FF00000000000000000000000000000000FF0000FF0000000000000000FF0000FF00000000000000000000000000000000FF0000FF0000000000000000FF0000FF00000000000000000000000000000000FF0000FF0000000000000000FF0000FF00000000000000000000000000000000FF0000FF00
310
00000000000000FF0000FF00000000000000000000000000000000FF0000FF0000000000000000FF0000FF00000000000000000000000000000000FF0000FF0000000000000000FF0000FF00000000000000000000000000000000FF0000FF0000000000000000FF0000FF00000000000000000000000000000000FF000000
310
FFFFFFFFFFFFFFFF000000FF00000000000000000000000000000000FF0000000000000000000000000000FF00000000000000000000000000000000FF0000000000000000000000000000FF00000000000000000000000000000000FF000000FFFFFFFFFFFFFFFF000000FF00000000000000000000000000000000FF0000
310
FF0000000000000000FF0000FF00000000000000000000000000000000FF0000FF0000000000000000FF0000FF00000000000000000000000000000000FF0000FF0000000000000000FF0000FF00000000000000000000000000000000FF0000FF0000000000000000FF0000FF00000000000000000000000000000000FF00
310
00FF0000000000000000FF0000FF00000000000000000000000000000000FF0000FF0000000000000000FF0000FF00000000000000000000000000000000FF0000FF0000000000000000FF0000FF00000000000000000000000000000000FF0000FF0000000000000000FF0000FF00000000000000000000000000000000FF
310
000000FFFFFFFFFFFFFFFF000000FF00000000000000000000000000000000FF0000000000000000000000000000FF00000000000000000000000000000000FF0000000000000000000000000000FF00000000000000000000000000000000FF000000000000000000000000FFFFFF00000000000000000000000000000000
310
FFFFFFFFFFFFFFFFFFFFFFFFFFFFFFFF00000000000000000000000000000000000000000000000000000000000000000000000000000000
102
{BLKREFS
331
3BE
102
}
 70
     4
280
     1
281
     0
  0
ENDTAB
  0
ENDSEC
  0
SECTION
  2
BLOCKS
  0
BLOCK
  5
20
330
1F
100
AcDbEntity
  8
0
100
AcDbBlockBegin
  2
*Model_Space
 70
     0
 10
0.0
 20
0.0
 30
0.0
  3
*Model_Space
  1

  0
ENDBLK
  5
21
330
1F
100
AcDbEntity
  8
0
100
AcDbBlockEnd
  0
BLOCK
  5
D4
330
D2
100
AcDbEntity
 67
     1
  8
0
100
AcDbBlockBegin
  2
*Paper_Space
 70
     0
 10
0.0
 20
0.0
 30
0.0
  3
*Paper_Space
  1

  0
ENDBLK
  5
D5
330
D2
100
AcDbEntity
 67
     1
  8
0
100
AcDbBlockEnd
  0
BLOCK
  5
21C
330
21A
100
AcDbEntity
  8
0
100
AcDbBlockBegin
  2
*Paper_Space0
 70
     0
 10
0.0
 20
0.0
 30
0.0
  3
*Paper_Space0
  1

  0
VIEWPORT
  5
21E
330
21A
100
AcDbEntity
  8
0
 48
100.0
100
AcDbViewport
 10
0.0
 20
0.0
 30
0.0
 40
840.779612
 41
486.114466
 68
     1
 69
     1
 12
328.692132
 22
196.71883
 13
0.0
 23
0.0
 14
10.0
 24
10.0
 15
10.0
 25
10.0
 16
0.0
 26
0.0
 36
1.0
 17
0.0
 27
0.0
 37
0.0
 42
50.0
 43
0.0
 44
0.0
 45
486.114466
 50
0.0
 51
0.0
 72
   100
 90
   557168
  1

281
     0
 71
     1
 74
     0
110
0.0
120
0.0
130
0.0
111
1.0
121
0.0
131
0.0
112
0.0
122
1.0
132
0.0
 79
     0
146
0.0
170
     0
 61
     5
292
     1
282
     1
141
0.0
142
0.0
 63
   256
  0
ENDBLK
  5
21D
330
21A
100
AcDbEntity
  8
0
100
AcDbBlockEnd
  0
BLOCK
  5
1ED
330
1EC
100
AcDbEntity
  8
0
100
AcDbBlockBegin
  2
_ARCHTICK
 70
     0
 10
0.0
 20
0.0
 30
0.0
  3
_ARCHTICK
  1

  0
POLYLINE
  5
1EF
330
1EC
100
AcDbEntity
  8
0
  6
ByBlock
 62
     0
100
AcDb2dPolyline
 66
     1
 10
0.0
 20
0.0
 30
0.0
 40
0.15
 41
0.15
  0
VERTEX
  5
1F0
330
1EF
100
AcDbEntity
  8
0
  6
ByBlock
 62
     0
100
AcDbVertex
100
AcDb2dVertex
 10
-0.5
 20
-0.5
 30
0.0
  0
VERTEX
  5
1F1
330
1EF
100
AcDbEntity
  8
0
  6
ByBlock
 62
     0
100
AcDbVertex
100
AcDb2dVertex
 10
0.5
 20
0.5
 30
0.0
  0
SEQEND
  5
1F2
330
1EF
100
AcDbEntity
  8
0
  6
ByBlock
 62
     0
  0
ENDBLK
  5
1EE
330
1EC
100
AcDbEntity
  8
0
100
AcDbBlockEnd
  0
BLOCK
  5
1F5
330
1F4
100
AcDbEntity
  8
0
100
AcDbBlockBegin
  2
_OPEN30
 70
     0
 10
0.0
 20
0.0
 30
0.0
  3
_OPEN30
  1

  0
LINE
  5
1F7
330
1F4
100
AcDbEntity
  8
0
  6
ByBlock
 62
     0
370
    -2
100
AcDbLine
 10
-1.0
 20
0.267949
 30
0.0
 11
0.0
 21
0.0
 31
0.0
  0
LINE
  5
1F8
330
1F4
100
AcDbEntity
  8
0
  6
ByBlock
 62
     0
370
    -2
100
AcDbLine
 10
0.0
 20
0.0
 30
0.0
 11
-1.0
 21
-0.267949
 31
0.0
  0
LINE
  5
1F9
330
1F4
100
AcDbEntity
  8
0
  6
ByBlock
 62
     0
370
    -2
100
AcDbLine
 10
0.0
 20
0.0
 30
0.0
 11
-1.0
 21
0.0
 31
0.0
  0
ENDBLK
  5
1F6
330
1F4
100
AcDbEntity
  8
0
100
AcDbBlockEnd
  0
BLOCK
  5
1FD
330
1FC
100
AcDbEntity
  8
0
100
AcDbBlockBegin
  2
_DOT
 70
     0
 10
0.0
 20
0.0
 30
0.0
  3
_DOT
  1

  0
POLYLINE
  5
1FF
330
1FC
100
AcDbEntity
  8
0
  6
ByBlock
 62
     0
100
AcDb2dPolyline
 66
     1
 10
0.0
 20
0.0
 30
0.0
 70
     1
 40
0.5
 41
0.5
  0
VERTEX
  5
201
330
1FF
100
AcDbEntity
  8
0
  6
ByBlock
 62
     0
100
AcDbVertex
100
AcDb2dVertex
 10
-0.25
 20
0.0
 30
0.0
 42
1.0
  0
VERTEX
  5
202
330
1FF
100
AcDbEntity
  8
0
  6
ByBlock
 62
     0
100
AcDbVertex
100
AcDb2dVertex
 10
0.25
 20
0.0
 30
0.0
 42
1.0
  0
SEQEND
  5
203
330
1FF
100
AcDbEntity
  8
0
  6
ByBlock
 62
     0
  0
LINE
  5
200
330
1FC
100
AcDbEntity
  8
0
  6
ByBlock
 62
     0
370
    -2
100
AcDbLine
 10
-0.5
 20
0.0
 30
0.0
 11
-1.0
 21
0.0
 31
0.0
  0
ENDBLK
  5
1FE
330
1FC
100
AcDbEntity
  8
0
100
AcDbBlockEnd
  0
BLOCK
  5
226
330
224
100
AcDbEntity
  8
0
100
AcDbBlockBegin
  2
*Paper_Space4
 70
     0
 10
0.0
 20
0.0
 30
0.0
  3
*Paper_Space4
  1

  0
VIEWPORT
  5
228
330
224
100
AcDbEntity
  8
0
 48
100.0
100
AcDbViewport
 10
0.0
 20
0.0
 30
0.0
 40
1715.87676
 41
992.070339
 68
     1
 69
     1
 12
497.20797
 22
380.27835
 13
0.0
 23
0.0
 14
10.0
 24
10.0
 15
10.0
 25
10.0
 16
0.0
 26
0.0
 36
1.0
 17
0.0
 27
0.0
 37
0.0
 42
50.0
 43
0.0
 44
0.0
 45
992.070339
 50
0.0
 51
0.0
 72
   100
 90
   557168
  1

281
     0
 71
     1
 74
     0
110
0.0
120
0.0
130
0.0
111
1.0
121
0.0
131
0.0
112
0.0
122
1.0
132
0.0
 79
     0
146
0.0
170
     0
 61
     5
292
     1
282
     1
141
0.0
142
0.0
 63
   256
  0
ENDBLK
  5
227
330
224
100
AcDbEntity
  8
0
100
AcDbBlockEnd
  0
BLOCK
  5
D8
330
D6
100
AcDbEntity
  8
0
100
AcDbBlockBegin
  2
*Paper_Space5
 70
     0
 10
0.0
 20
0.0
 30
0.0
  3
*Paper_Space5
  1

  0
VIEWPORT
  5
20F
330
D6
100
AcDbEntity
  8
0
 48
100.0
100
AcDbViewport
 10
0.0
 20
0.0
 30
0.0
 40
411.98201
 41
238.196088
 68
     1
 69
     1
 12
128.5
 22
97.5
 13
0.0
 23
0.0
 14
10.0
 24
10.0
 15
10.0
 25
10.0
 16
0.0
 26
0.0
 36
1.0
 17
0.0
 27
0.0
 37
0.0
 42
50.0
 43
0.0
 44
0.0
 45
238.196088
 50
0.0
 51
0.0
 72
   100
 90
   557168
  1

281
     0
 71
     1
 74
     0
110
0.0
120
0.0
130
0.0
111
1.0
121
0.0
131
0.0
112
0.0
122
1.0
132
0.0
 79
     0
146
0.0
170
     0
 61
     5
292
     1
282
     1
141
0.0
142
0.0
 63
   256
  0
ENDBLK
  5
D9
330
D6
100
AcDbEntity
  8
0
100
AcDbBlockEnd
  0
BLOCK
  5
221
330
21F
100
AcDbEntity
  8
0
100
AcDbBlockBegin
  2
*Paper_Space6
 70
     0
 10
0.0
 20
0.0
 30
0.0
  3
*Paper_Space6
  1

  0
VIEWPORT
  5
223
330
21F
100
AcDbEntity
  8
0
 48
100.0
100
AcDbViewport
 10
0.0
 20
0.0
 30
0.0
 40
1201.113732
 41
694.449237
 68
     1
 69
     1
 12
454.893705
 22
285.342469
 13
0.0
 23
0.0
 14
10.0
 24
10.0
 15
10.0
 25
10.0
 16
0.0
 26
0.0
 36
1.0
 17
0.0
 27
0.0
 37
0.0
 42
50.0
 43
0.0
 44
0.0
 45
694.449237
 50
0.0
 51
0.0
 72
   100
 90
   557168
  1

281
     0
 71
     1
 74
     0
110
0.0
120
0.0
130
0.0
111
1.0
121
0.0
131
0.0
112
0.0
122
1.0
132
0.0
 79
     0
146
0.0
170
     0
 61
     5
292
     1
282
     1
141
0.0
142
0.0
 63
   256
  0
ENDBLK
  5
222
330
21F
100
AcDbEntity
  8
0
100
AcDbBlockEnd
  0
BLOCK
  5
212
330
210
100
AcDbEntity
  8
0
100
AcDbBlockBegin
  2
*Paper_Space7
 70
     0
 10
0.0
 20
0.0
 30
0.0
  3
*Paper_Space7
  1

  0
VIEWPORT
  5
214
330
210
100
AcDbEntity
  8
0
 48
100.0
100
AcDbViewport
 10
0.0
 20
0.0
 30
0.0
 40
588.545729
 41
340.280126
 68
     1
 69
     1
 12
151.627136
 22
129.479246
 13
0.0
 23
0.0
 14
10.0
 24
10.0
 15
10.0
 25
10.0
 16
0.0
 26
0.0
 36
1.0
 17
0.0
 27
0.0
 37
0.0
 42
50.0
 43
0.0
 44
0.0
 45
340.280126
 50
0.0
 51
0.0
 72
   100
 90
   557168
  1

281
     0
 71
     1
 74
     0
110
0.0
120
0.0
130
0.0
111
1.0
121
0.0
131
0.0
112
0.0
122
1.0
132
0.0
 79
     0
146
0.0
170
     0
 61
     5
292
     1
282
     1
141
0.0
142
0.0
 63
   256
  0
ENDBLK
  5
213
330
210
100
AcDbEntity
  8
0
100
AcDbBlockEnd
  0
BLOCK
  5
217
330
215
100
AcDbEntity
  8
0
100
AcDbBlockBegin
  2
*Paper_Space8
 70
     0
 10
0.0
 20
0.0
 30
0.0
  3
*Paper_Space8
  1

  0
VIEWPORT
  5
219
330
215
100
AcDbEntity
  8
0
 48
100.0
100
AcDbViewport
 10
0.0
 20
0.0
 30
0.0
 40
588.545729
 41
340.280126
 68
     1
 69
     1
 12
213.910905
 22
130.914724
 13
0.0
 23
0.0
 14
10.0
 24
10.0
 15
10.0
 25
10.0
 16
0.0
 26
0.0
 36
1.0
 17
0.0
 27
0.0
 37
0.0
 42
50.0
 43
0.0
 44
0.0
 45
340.280126
 50
0.0
 51
0.0
 72
   100
 90
   557168
  1

281
     0
 71
     1
 74
     0
110
0.0
120
0.0
130
0.0
111
1.0
121
0.0
131
0.0
112
0.0
122
1.0
132
0.0
 79
     0
146
0.0
170
     0
 61
     5
292
     1
282
     1
141
0.0
142
0.0
 63
   256
  0
ENDBLK
  5
218
330
215
100
AcDbEntity
  8
0
100
AcDbBlockEnd
  0
BLOCK
  5
37D
330
37C
100
AcDbEntity
  8
0
100
AcDbBlockBegin
  2
умывальник1
 70
     0
 10
0.0
 20
0.0
 30
0.0
  3
умывальник1
  1

  0
LINE
  5
37E
330
37C
100
AcDbEntity
  8
0
100
AcDbLine
 10
260.0
 20
0.0
 30
0.0
 11
-260.0
 21
0.0
 31
0.0
  0
LINE
  5
37F
330
37C
100
AcDbEntity
  8
0
100
AcDbLine
 10
-41.253568
 20
98.876178
 30
0.0
 11
-15.111226
 21
108.986791
 31
0.0
  0
LINE
  5
380
330
37C
100
AcDbEntity
  8
0
100
AcDbLine
 10
-5.193675
 20
39.634601
 30
0.0
 11
-39.917812
 21
129.418505
 31
0.0
  0
LINE
  5
381
330
37C
100
AcDbEntity
  8
0
100
AcDbLine
 10
41.253568
 20
98.876178
 30
0.0
 11
15.111226
 21
108.986791
 31
0.0
  0
LINE
  5
382
330
37C
100
AcDbEntity
  8
0
100
AcDbLine
 10
5.193675
 20
39.634601
 30
0.0
 11
39.917812
 21
129.418505
 31
0.0
  0
CIRCLE
  5
383
330
37C
100
AcDbEntity
  8
0
100
AcDbCircle
 10
-0.061619
 20
193.658443
 30
0.0
 40
14.00213689915836
  0
ARC
  5
384
330
37C
100
AcDbEntity
  8
0
100
AcDbCircle
 10
-180.0
 20
120.0
 30
0.0
 40
40.0
100
AcDbArc
 50
180.0
 51
270.0
  0
ARC
  5
385
330
37C
100
AcDbEntity
  8
0
100
AcDbCircle
 10
180.0
 20
120.0
 30
0.0
 40
40.0
100
AcDbArc
 50
270.0
 51
0.0
  0
LINE
  5
386
330
37C
100
AcDbEntity
  8
0
100
AcDbLine
 10
-220.0
 20
240.0
 30
0.0
 11
-220.0
 21
120.0
 31
0.0
  0
LINE
  5
387
330
37C
100
AcDbEntity
  8
0
100
AcDbLine
 10
220.0
 20
120.0
 30
0.0
 11
220.0
 21
240.0
 31
0.0
  0
LINE
  5
388
330
37C
100
AcDbEntity
  8
0
100
AcDbLine
 10
-180.0
 20
80.0
 30
0.0
 11
180.0
 21
80.0
 31
0.0
  0
LINE
  5
389
330
37C
100
AcDbEntity
  8
0
100
AcDbLine
 10
60.0
 20
400.0
 30
0.0
 11
-60.0
 21
400.0
 31
0.0
  0
LINE
  5
38A
330
37C
100
AcDbEntity
  8
0
100
AcDbLine
 10
-260.0
 20
280.0
 30
0.0
 11
-260.0
 21
0.0
 31
0.0
  0
LINE
  5
38B
330
37C
100
AcDbEntity
  8
0
100
AcDbLine
 10
260.0
 20
0.0
 30
0.0
 11
260.0
 21
280.0
 31
0.0
  0
LINE
  5
38C
330
37C
100
AcDbEntity
  8
0
100
AcDbLine
 10
100.0
 20
440.0
 30
0.0
 11
-100.0
 21
440.0
 31
0.0
  0
ARC
  5
38D
330
37C
100
AcDbEntity
  8
0
100
AcDbCircle
 10
100.0
 20
280.0
 30
0.0
 40
160.0
100
AcDbArc
 50
0.0
 51
90.0
  0
ARC
  5
38E
330
37C
100
AcDbEntity
  8
0
100
AcDbCircle
 10
-100.0
 20
280.0
 30
0.0
 40
160.0
100
AcDbArc
 50
90.0
 51
180.0
  0
ARC
  5
38F
330
37C
100
AcDbEntity
  8
0
100
AcDbCircle
 10
-60.0
 20
240.0
 30
0.0
 40
160.0
100
AcDbArc
 50
90.0
 51
180.0
  0
ARC
  5
390
330
37C
100
AcDbEntity
  8
0
100
AcDbCircle
 10
60.0
 20
240.0
 30
0.0
 40
160.0
100
AcDbArc
 50
0.0
 51
90.0
  0
ENDBLK
  5
391
330
37C
100
AcDbEntity
  8
0
100
AcDbBlockEnd
  0
BLOCK
  5
397
330
396
100
AcDbEntity
  8
0
100
AcDbBlockBegin
  2
Плита 4-х комфорочная
 70
     0
 10
0.0
 20
0.0
 30
0.0
  3
Плита 4-х комфорочная
  1

  0
LWPOLYLINE
  5
398
330
396
100
AcDbEntity
  8
0
  6
Continuous
 62
     3
370
    20
100
AcDbPolyline
 90
        4
 70
     1
 43
0.0
 10
-754.306996
 20
-1231.150441
 10
-754.306996
 20
0.0
 10
0.0
 20
0.0
 10
0.0
 20
-1231.150441
  0
LWPOLYLINE
  5
399
330
396
100
AcDbEntity
  8
0
  6
Continuous
 62
     1
370
    20
100
AcDbPolyline
 90
        4
 70
     1
 43
0.0
 10
-617.999072
 20
-1081.346245
 10
-617.999072
 20
-755.784219
 10
-422.753858
 20
-755.784219
 10
-422.753858
 20
-1081.346245
  0
LWPOLYLINE
  5
39A
330
396
100
AcDbEntity
  8
0
  6
Continuous
 62
     1
370
    20
100
AcDbPolyline
 90
        4
 70
     1
 43
0.0
 10
-318.623132
 20
-1081.346245
 10
-318.623132
 20
-755.784219
 10
-123.377918
 20
-755.784219
 10
-123.377918
 20
-1081.346245
  0
LWPOLYLINE
  5
39B
330
396
100
AcDbEntity
  8
0
  6
Continuous
 62
     1
370
    20
100
AcDbPolyline
 90
        4
 70
     1
 43
0.0
 10
-617.999072
 20
-475.800491
 10
-617.999072
 20
-150.238465
 10
-422.753858
 20
-150.238465
 10
-422.753858
 20
-475.800491
  0
LWPOLYLINE
  5
39C
330
396
100
AcDbEntity
  8
0
  6
Continuous
 62
     1
370
    20
100
AcDbPolyline
 90
        4
 70
     1
 43
0.0
 10
-318.623132
 20
-475.800491
 10
-318.623132
 20
-150.238465
 10
-123.377918
 20
-150.238465
 10
-123.377918
 20
-475.800491
  0
ENDBLK
  5
39D
330
396
100
AcDbEntity
  8
0
100
AcDbBlockEnd
  0
BLOCK
  5
3A4
330
3A3
100
AcDbEntity
  8
0
100
AcDbBlockBegin
  2
Стол 1200х600
 70
     0
 10
0.0
 20
0.0
 30
0.0
  3
Стол 1200х600
  1

  0
LINE
  5
3A5
330
3A3
100
AcDbEntity
  8
0
100
AcDbLine
 10
-1200.0
 20
600.0
 30
0.0
 11
0.0
 21
0.0
 31
0.0
  0
LWPOLYLINE
  5
3A6
330
3A3
100
AcDbEntity
  8
0
100
AcDbPolyline
 90
        4
 70
     1
 43
0.0
 10
-1200.0
 20
0.0
 10
0.0
 20
0.0
 10
0.0
 20
600.0
 10
-1200.0
 20
600.0
  0
LWPOLYLINE
  5
3A7
330
3A3
100
AcDbEntity
  8
0
 62
     1
100
AcDbPolyline
 90
        4
 70
     1
 43
0.0
 10
-1200.0
 20
80.0
 10
-1170.0
 20
80.0
 10
-1170.0
 20
0.0
 10
-1200.0
 20
0.0
  0
LWPOLYLINE
  5
3A8
330
3A3
100
AcDbEntity
  8
0
 62
     1
100
AcDbPolyline
 90
        4
 70
     1
 43
0.0
 10
-30.0
 20
80.0
 10
0.0
 20
80.0
 10
0.0
 20
0.0
 10
-30.0
 20
0.0
  0
MTEXT
  5
3A9
330
3A3
100
AcDbEntity
  8
стены
 62
     6
100
AcDbMText
 10
-600.0
 20
505.140576
 30
0.0
 40
75.0
 41
5.054687
 46
0.0
 71
     5
 72
     5
  1
{\fArial|b0|i0|c0|p34;1200}
 73
     1
 44
1.0
  0
MTEXT
  5
3AC
330
3A3
100
AcDbEntity
  8
стены
 62
     6
100
AcDbMText
 10
-1105.878045
 20
300.0
 30
0.0
 40
75.0
 41
5.0547
 46
0.0
 71
     5
 72
     5
  1
{\fArial|b0|i0|c0|p34;600.}
 11
6.123031769111886E-17
 21
1.0
 31
0.0
 73
     1
 44
1.0
  0
ENDBLK
  5
3AD
330
3A3
100
AcDbEntity
  8
0
100
AcDbBlockEnd
  0
BLOCK
  5
3B1
330
3B0
100
AcDbEntity
  8
0
100
AcDbBlockBegin
  2
водонагреватель
 70
     0
 10
0.0
 20
0.0
 30
0.0
  3
водонагреватель
  1

  0
CIRCLE
  5
3B2
330
3B0
100
AcDbEntity
  8
Стены АХП
 62
     1
100
AcDbCircle
 10
0.0
 20
0.0
 30
0.0
 40
235.9190254195298
  0
LINE
  5
3B3
330
3B0
100
AcDbEntity
  8
Стены АХП
 62
     1
100
AcDbLine
 10
-166.819943
 20
-166.819943
 30
0.0
 11
-36.60254
 21
-36.60254
 31
0.0
  0
LINE
  5
3B4
330
3B0
100
AcDbEntity
  8
Стены АХП
 62
     1
100
AcDbLine
 10
-36.60254
 20
-36.60254
 30
0.0
 11
-86.60254
 21
50.0
 31
0.0
  0
LINE
  5
3B5
330
3B0
100
AcDbEntity
  8
Стены АХП
 62
     1
100
AcDbLine
 10
86.60254
 20
-50.0
 30
0.0
 11
36.60254
 21
36.60254
 31
0.0
  0
LINE
  5
3B6
330
3B0
100
AcDbEntity
  8
Стены АХП
 62
     1
100
AcDbLine
 10
-86.60254
 20
50.0
 30
0.0
 11
86.60254
 21
-50.0
 31
0.0
  0
LINE
  5
3B7
330
3B0
100
AcDbEntity
  8
Стены АХП
 62
     1
100
AcDbLine
 10
36.60254
 20
36.60254
 30
0.0
 11
166.819943
 21
166.819943
 31
0.0
  0
ENDBLK
  5
3B8
330
3B0
100
AcDbEntity
  8
0
100
AcDbBlockEnd
  0
BLOCK
  5
3C0
330
3BF
100
AcDbEntity
  8
0
100
AcDbBlockBegin
  2
Мойка 2х600х600
 70
     0
 10
0.0
 20
0.0
 30
0.0
  3
Мойка 2х600х600
  1

  0
LWPOLYLINE
  5
3C1
330
3BF
100
AcDbEntity
  8
0
100
AcDbPolyline
 90
        8
 70
     1
 43
0.0
 10
-400.0
 20
550.0
 10
-200.0
 20
550.0
 42
-0.414214
 10
-100.0
 20
450.0
 10
-100.0
 20
250.0
 42
-0.414214
 10
-200.0
 20
150.0
 10
-400.0
 20
150.0
 42
-0.414214
 10
-500.0
 20
250.0
 10
-500.0
 20
450.0
 42
-0.414214
  0
LWPOLYLINE
  5
3C2
330
3BF
100
AcDbEntity
  8
0
100
AcDbPolyline
 90
        4
 70
     1
 43
0.0
 10
-600.0
 20
0.0
 10
0.0
 20
0.0
 10
0.0
 20
1200.0
 10
-600.0
 20
1200.0
  0
LWPOLYLINE
  5
3C3
330
3BF
100
AcDbEntity
  8
0
100
AcDbPolyline
 90
        4
 70
     1
 43
0.0
 10
-80.000014
 20
0.0
 10
0.0
 20
0.0
 10
0.0
 20
29.999962
 10
-80.000014
 20
29.999962
  0
LWPOLYLINE
  5
3C4
330
3BF
100
AcDbEntity
  8
0
100
AcDbPolyline
 90
        4
 70
     1
 43
0.0
 10
-80.000014
 20
1170.000038
 10
0.0
 20
1170.000038
 10
0.0
 20
1200.0
 10
-80.000014
 20
1200.0
  0
LWPOLYLINE
  5
3C5
330
3BF
100
AcDbEntity
  8
0
100
AcDbPolyline
 90
        8
 70
     1
 43
0.0
 10
-400.0
 20
650.0
 10
-200.0
 20
650.0
 42
0.414214
 10
-100.0
 20
750.0
 10
-100.0
 20
950.0
 42
0.414214
 10
-200.0
 20
1050.0
 10
-400.0
 20
1050.0
 42
0.414214
 10
-500.0
 20
950.0
 10
-500.0
 20
750.0
 42
0.414214
  0
ENDBLK
  5
3C6
330
3BF
100
AcDbEntity
  8
0
100
AcDbBlockEnd
  0
ENDSEC
  0
SECTION
  2
ENTITIES
  0
LINE
  5
366
330
1F
100
AcDbEntity
  8
Размеры по перег.
 62
     0
370
    30
100
AcDbLine
 10
36054.259018
 20
36851.553483
 30
0.0
 11
30987.322461
 21
36851.89744
 31
0.0
  0
LINE
  5
36A
330
1F
100
AcDbEntity
  8
Контуры
 62
     0
370
     0
100
AcDbLine
 10
30987.322461
 20
34091.897467
 30
0.0
 11
15133.702738
 21
34091.897467
 31
0.0
  0
LINE
  5
36C
330
1F
100
AcDbEntity
  8
Размеры по перег.
 62
     0
370
    25
100
AcDbLine
 10
30987.322461
 20
34291.897467
 30
0.0
 11
15133.702738
 21
34291.897467
 31
0.0
  0
LINE
  5
36E
330
1F
100
AcDbEntity
  8
Размеры по перег.
 62
     0
370
    30
100
AcDbLine
 10
34705.098756
 20
34091.897467
 30
0.0
 11
35287.322383
 21
34091.897467
 31
0.0
  0
LWPOLYLINE
  5
36F
330
1F
100
AcDbEntity
  8
Размеры по перег.
 62
     0
370
    30
100
AcDbPolyline
 90
        4
 70
     1
 43
0.0
 10
35487.322461
 20
33891.897467
 10
35887.322461
 20
33891.897467
 10
35887.322461
 20
34291.897467
 10
35487.322461
 20
34291.897467
  0
LINE
  5
370
330
1F
100
AcDbEntity
  8
Стеллаж
  6
штриховая2
 62
     0
 48
0.1
370
     0
100
AcDbLine
 10
29078.145779
 20
33087.815632
 30
0.0
 11
28958.145779
 21
33087.815632
 31
0.0
  0
LINE
  5
373
330
1F
100
AcDbEntity
  8
Стеллаж
  6
штриховая2
 62
     0
 48
0.1
370
     0
100
AcDbLine
 10
29078.145779
 20
33887.815632
 30
0.0
 11
28958.145779
 21
33887.815632
 31
0.0
  0
LINE
  5
374
330
1F
100
AcDbEntity
  8
Стеллаж
  6
штриховая2
 62
     0
 48
0.1
370
     0
100
AcDbLine
 10
32487.322461
 20
34091.897467
 30
0.0
 11
32487.322461
 21
36851.897446
 31
0.0
  0
LINE
  5
375
330
1F
100
AcDbEntity
  8
Стеллаж
  6
штриховая2
 62
     0
 48
0.1
370
     0
100
AcDbLine
 10
30987.322461
 20
36851.897438
 30
0.0
 11
31889.304985
 21
36851.897443
 31
0.0
  0
LINE
  5
376
330
1F
100
AcDbEntity
  8
Стеллаж
  6
штриховая2
 62
     0
 48
0.1
370
     0
100
AcDbLine
 10
30987.322461
 20
34091.897467
 30
0.0
 11
30987.322461
 21
36851.897438
 31
0.0
  0
LINE
  5
378
330
1F
100
AcDbEntity
  8
Размеры по перег.
 62
     0
370
    30
100
AcDbLine
 10
28958.145779
 20
34091.897467
 30
0.0
 11
28958.145779
 21
33887.815632
 31
0.0
  0
LINE
  5
379
330
1F
100
AcDbEntity
  8
Размеры по перег.
 62
     0
370
    30
100
AcDbLine
 10
29078.145779
 20
34091.897467
 30
0.0
 11
29078.145779
 21
33887.815632
 31
0.0
  0
INSERT
  5
37A
330
1F
100
AcDbEntity
  8
объекты
100
AcDbBlockReference
  2
умывальник1
 10
27231.724861
 20
32661.897467
 30
0.0
 50
270.0
  0
LINE
  5
392
330
1F
100
AcDbEntity
  8
Стеллаж
  6
штриховая2
 62
     0
 48
0.1
370
     0
100
AcDbLine
 10
29078.145779
 20
28503.83566
 30
0.0
 11
27111.724861
 21
28503.83566
 31
0.0
  0
LINE
  5
393
330
1F
100
AcDbEntity
  8
Стеллаж
  6
штриховая2
 62
     0
 48
0.1
370
     0
100
AcDbLine
 10
28958.145779
 20
28623.83566
 30
0.0
 11
27231.724861
 21
28623.83566
 31
0.0
  0
INSERT
  5
395
330
1F
100
AcDbEntity
  8
0
100
AcDbBlockReference
  2
Плита 4-х комфорочная
 10
27231.724861
 20
28673.83566
 30
0.0
 50
180.0
  0
LWPOLYLINE
  5
39E
330
1F
100
AcDbEntity
  8
Racking
  6
штриховая2
 62
     0
 48
100.0
370
     0
100
AcDbPolyline
 90
        4
 70
     1
 43
0.0
 10
27292.289579
 20
31072.02784
 10
27525.922462
 20
31072.02784
 10
27525.922462
 20
30671.616909
 10
27292.289579
 20
30671.616909
  0
INSERT
  5
3A1
330
1F
100
AcDbEntity
  8
конт пособн.
  6
Continuous
100
AcDbBlockReference
  2
Стол 1200х600
 10
27231.724861
 20
29985.285479
 30
0.0
 50
270.0
  0
INSERT
  5
3AE
330
1F
100
AcDbEntity
  8
Стены АХП
100
AcDbBlockReference
  2
водонагреватель
 10
27489.412963
 20
31604.303438
 30
0.0
 50
90.0
  0
LINE
  5
3B9
330
1F
100
AcDbEntity
  8
Racking
  6
штриховая2
 62
     0
 48
100.0
370
     0
100
AcDbLine
 10
27105.922462
 20
29648.528805
 30
0.0
 11
27225.922462
 21
29648.528805
 31
0.0
  0
LINE
  5
3BA
330
1F
100
AcDbEntity
  8
Стеллаж
  6
штриховая2
 62
     0
 48
0.1
370
     0
100
AcDbLine
 10
27231.724861
 20
34117.847165
 30
0.0
 11
27231.724861
 21
28503.83566
 31
0.0
  0
LINE
  5
3BB
330
1F
100
AcDbEntity
  8
Стеллаж
  6
штриховая2
 62
     0
 48
0.1
370
     0
100
AcDbLine
 10
27111.724861
 20
34117.847165
 30
0.0
 11
27111.724861
 21
28503.83566
 31
0.0
  0
LINE
  5
3BC
330
1F
100
AcDbEntity
  8
Размеры по перег.
 62
     0
370
    30
100
AcDbLine
 10
28958.145779
 20
33087.815632
 30
0.0
 11
28958.145779
 21
28503.83566
 31
0.0
  0
LINE
  5
3BD
330
1F
100
AcDbEntity
  8
Размеры по перег.
 62
     0
370
    30
100
AcDbLine
 10
29078.145779
 20
33087.815632
 30
0.0
 11
29078.145779
 21
28503.83566
 31
0.0
  0
INSERT
  5
3BE
330
1F
100
AcDbEntity
  8
конт пособн.
  6
Continuous
100
AcDbBlockReference
  2
Мойка 2х600х600
 10
27231.724861
 20
32401.897467
 30
0.0
 50
180.0
  0
LINE
  5
3C7
330
1F
100
AcDbEntity
  8
Размеры по перег.
 62
     0
370
    30
100
AcDbLine
 10
27231.724861
 20
34117.847165
 30
0.0
 11
27231.724861
 21
28673.83566
 31
0.0
  0
LINE
  5
3C8
330
1F
100
AcDbEntity
  8
Размеры по перег.
 62
     0
370
    30
100
AcDbLine
 10
34705.098756
 20
34091.897467
 30
0.0
 11
32487.322461
 21
34091.899369
 31
0.0
  0
LWPOLYLINE
  5
3C9
330
1F
100
AcDbEntity
  8
Размеры по перег.
 62
     0
370
    25
100
AcDbPolyline
 90
        2
 70
     0
 43
0.0
 10
35487.322461
 20
34091.897467
 10
32487.322461
 20
34091.897467
  0
LINE
  5
3CA
330
1F
100
AcDbEntity
  8
Размеры по перег.
 62
     0
370
    25
100
AcDbLine
 10
35887.322461
 20
34291.897467
 30
0.0
 11
32487.322461
 21
34291.897467
 31
0.0
  0
LINE
  5
3CB
330
1F
100
AcDbEntity
  8
Racking
  6
штриховая2
 62
     0
 48
100.0
370
     0
100
AcDbLine
 10
26473.078814
 20
34087.127184
 30
0.0
 11
26593.078814
 21
34087.127184
 31
0.0
  0
CIRCLE
  5
3CC
330
1F
100
AcDbEntity
  8
FURN
100
AcDbCircle
 10
24651.328827
 20
32905.298515
 30
0.0
 40
200.0
  0
CIRCLE
  5
3CE
330
1F
100
AcDbEntity
  8
FURN
100
AcDbCircle
 10
24360.426945
 20
33444.350949
 30
0.0
 40
200.0
  0
LWPOLYLINE
  5
3CF
330
1F
100
AcDbEntity
  8
FURN
100
AcDbPolyline
 90
        4
 70
     1
 43
0.0
 10
24203.215539
 20
33605.315461
 10
24185.747605
 20
33623.200406
 42
-0.407321
 10
24535.106284
 20
33623.200406
 10
24517.63835
 20
33605.315461
 42
0.407321
  0
CIRCLE
  5
3D0
330
1F
100
AcDbEntity
  8
FURN
100
AcDbCircle
 10
23666.931008
 20
33497.633928
 30
0.0
 40
200.0
  0
LWPOLYLINE
  5
3D1
330
1F
100
AcDbEntity
  8
FURN
100
AcDbPolyline
 90
        4
 70
     1
 43
0.0
 10
23509.719602
 20
33658.598439
 10
23492.251668
 20
33676.483385
 42
-0.407321
 10
23841.610347
 20
33676.483385
 10
23824.142413
 20
33658.598439
 42
0.407321
  0
CIRCLE
  5
3D2
330
1F
100
AcDbEntity
  8
FURN
100
AcDbCircle
 10
23244.237857
 20
32905.298515
 30
0.0
 40
200.0
  0
LWPOLYLINE
  5
3D3
330
1F
100
AcDbEntity
  8
FURN
100
AcDbPolyline
 90
        4
 70
     1
 43
0.0
 10
23083.273346
 20
32748.08711
 10
23065.3884
 20
32730.619176
 42
-0.407321
 10
23065.3884
 20
33079.977855
 10
23083.273346
 20
33062.509921
 42
0.407321
  0
CIRCLE
  5
3D4
330
1F
100
AcDbEntity
  8
FURN
  6
Continuous
100
AcDbCircle
 10
23947.783342
 20
32905.298515
 30
0.0
 40
450.0
  0
CIRCLE
  5
3D5
330
1F
100
AcDbEntity
  8
FURN
100
AcDbCircle
 10
22365.947872
 20
32936.018497
 30
0.0
 40
200.0
  0
CIRCLE
  5
3D6
330
1F
100
AcDbEntity
  8
FURN
100
AcDbCircle
 10
22075.045989
 20
33475.07093
 30
0.0
 40
200.0
  0
LWPOLYLINE
  5
3D7
330
1F
100
AcDbEntity
  8
FURN
100
AcDbPolyline
 90
        4
 70
     1
 43
0.0
 10
21917.834584
 20
33636.035442
 10
21900.36665
 20
33653.920387
 42
-0.407321
 10
22249.725329
 20
33653.920387
 10
22232.257395
 20
33636.035442
 42
0.407321
  0
CIRCLE
  5
3D8
330
1F
100
AcDbEntity
  8
FURN
100
AcDbCircle
 10
21381.550052
 20
33528.353909
 30
0.0
 40
200.0
  0
LWPOLYLINE
  5
3D9
330
1F
100
AcDbEntity
  8
FURN
100
AcDbPolyline
 90
        4
 70
     1
 43
0.0
 10
21224.338647
 20
33689.318421
 10
21206.870713
 20
33707.203366
 42
-0.407321
 10
21556.229392
 20
33707.203366
 10
21538.761458
 20
33689.318421
 42
0.407321
  0
CIRCLE
  5
3DA
330
1F
100
AcDbEntity
  8
FURN
100
AcDbCircle
 10
20958.856902
 20
32936.018497
 30
0.0
 40
200.0
  0
CIRCLE
  5
3DB
330
1F
100
AcDbEntity
  8
FURN
  6
Continuous
100
AcDbCircle
 10
21662.402387
 20
32936.018497
 30
0.0
 40
450.0
  0
CIRCLE
  5
3DC
330
1F
100
AcDbEntity
  8
FURN
100
AcDbCircle
 10
24810.066012
 20
30521.260939
 30
0.0
 40
200.0
  0
LWPOLYLINE
  5
3DD
330
1F
100
AcDbEntity
  8
FURN
100
AcDbPolyline
 90
        4
 70
     1
 43
0.0
 10
24971.030524
 20
30364.049534
 10
24988.91547
 20
30346.5816
 42
0.407321
 10
24988.91547
 20
30695.940279
 10
24971.030524
 20
30678.472345
 42
-0.407321
  0
CIRCLE
  5
3DE
330
1F
100
AcDbEntity
  8
FURN
100
AcDbCircle
 10
24519.16413
 20
31060.313373
 30
0.0
 40
200.0
  0
LWPOLYLINE
  5
3DF
330
1F
100
AcDbEntity
  8
FURN
100
AcDbPolyline
 90
        4
 70
     1
 43
0.0
 10
24361.952724
 20
31221.277884
 10
24344.48479
 20
31239.16283
 42
-0.407321
 10
24693.843469
 20
31239.16283
 10
24676.375535
 20
31221.277884
 42
0.407321
  0
CIRCLE
  5
3E0
330
1F
100
AcDbEntity
  8
FURN
100
AcDbCircle
 10
24502.183526
 20
29922.562017
 30
0.0
 40
200.0
  0
LWPOLYLINE
  5
3E1
330
1F
100
AcDbEntity
  8
FURN
100
AcDbPolyline
 90
        4
 70
     1
 43
0.0
 10
24663.148038
 20
29765.350611
 10
24681.032984
 20
29747.882677
 42
0.407321
 10
24681.032984
 20
30097.241356
 10
24663.148038
 20
30079.773422
 42
-0.407321
  0
CIRCLE
  5
3E2
330
1F
100
AcDbEntity
  8
FURN
100
AcDbCircle
 10
23402.975043
 20
30521.260939
 30
0.0
 40
200.0
  0
LWPOLYLINE
  5
3E3
330
1F
100
AcDbEntity
  8
FURN
100
AcDbPolyline
 90
        4
 70
     1
 43
0.0
 10
23242.010531
 20
30364.049534
 10
23224.125585
 20
30346.5816
 42
-0.407321
 10
23224.125585
 20
30695.940279
 10
23242.010531
 20
30678.472345
 42
0.407321
  0
LWPOLYLINE
  5
3E4
330
1F
100
AcDbEntity
  8
FURN
100
AcDbPolyline
 90
        4
 70
     1
 43
0.0
 10
21265.293568
 20
32124.186148
 10
21247.825634
 20
32106.301202
 42
0.407321
 10
21597.184313
 20
32106.301202
 10
21579.716379
 20
32124.186148
 42
-0.407321
  0
CIRCLE
  5
3E5
330
1F
100
AcDbEntity
  8
FURN
100
AcDbCircle
 10
22524.685057
 20
30551.98092
 30
0.0
 40
200.0
  0
LWPOLYLINE
  5
3E6
330
1F
100
AcDbEntity
  8
FURN
100
AcDbPolyline
 90
        4
 70
     1
 43
0.0
 10
22685.649568
 20
30394.769515
 10
22703.534514
 20
30377.301581
 42
0.407321
 10
22703.534514
 20
30726.66026
 10
22685.649568
 20
30709.192326
 42
-0.407321
  0
CIRCLE
  5
3E7
330
1F
100
AcDbEntity
  8
FURN
100
AcDbCircle
 10
22233.783174
 20
31091.033354
 30
0.0
 40
200.0
  0
LWPOLYLINE
  5
3E8
330
1F
100
AcDbEntity
  8
FURN
100
AcDbPolyline
 90
        4
 70
     1
 43
0.0
 10
22076.571769
 20
31251.997865
 10
22059.103835
 20
31269.882811
 42
-0.407321
 10
22408.462514
 20
31269.882811
 10
22390.99458
 20
31251.997865
 42
0.407321
  0
CIRCLE
  5
3E9
330
1F
100
AcDbEntity
  8
FURN
100
AcDbCircle
 10
21581.242158
 20
29901.113083
 30
0.0
 40
200.0
  0
LWPOLYLINE
  5
3EA
330
1F
100
AcDbEntity
  8
FURN
100
AcDbPolyline
 90
        4
 70
     1
 43
0.0
 10
21424.030753
 20
29740.148572
 10
21406.562819
 20
29722.263626
 42
0.407321
 10
21755.921498
 20
29722.263626
 10
21738.453564
 20
29740.148572
 42
-0.407321
  0
CIRCLE
  5
3EB
330
1F
100
AcDbEntity
  8
FURN
100
AcDbCircle
 10
21540.287238
 20
31144.316333
 30
0.0
 40
200.0
  0
LWPOLYLINE
  5
3EC
330
1F
100
AcDbEntity
  8
FURN
100
AcDbPolyline
 90
        4
 70
     1
 43
0.0
 10
21383.075832
 20
31305.280844
 10
21365.607898
 20
31323.16579
 42
-0.407321
 10
21714.966577
 20
31323.16579
 10
21697.498643
 20
31305.280844
 42
0.407321
  0
CIRCLE
  5
3ED
330
1F
100
AcDbEntity
  8
FURN
100
AcDbCircle
 10
22216.802571
 20
29953.281998
 30
0.0
 40
200.0
  0
LWPOLYLINE
  5
3EE
330
1F
100
AcDbEntity
  8
FURN
100
AcDbPolyline
 90
        4
 70
     1
 43
0.0
 10
22377.767083
 20
29796.070592
 10
22395.652028
 20
29778.602658
 42
0.407321
 10
22395.652028
 20
30127.961337
 10
22377.767083
 20
30110.493403
 42
-0.407321
  0
CIRCLE
  5
3EF
330
1F
100
AcDbEntity
  8
FURN
100
AcDbCircle
 10
21117.594087
 20
30551.98092
 30
0.0
 40
200.0
  0
LWPOLYLINE
  5
3F0
330
1F
100
AcDbEntity
  8
FURN
100
AcDbPolyline
 90
        4
 70
     1
 43
0.0
 10
20956.629576
 20
30394.769515
 10
20938.74463
 20
30377.301581
 42
-0.407321
 10
20938.74463
 20
30726.66026
 10
20956.629576
 20
30709.192326
 42
0.407321
  0
CIRCLE
  5
3F1
330
1F
100
AcDbEntity
  8
FURN
  6
Continuous
100
AcDbCircle
 10
21821.139572
 20
30551.98092
 30
0.0
 40
450.0
  0
LWPOLYLINE
  5
3F2
330
1F
100
AcDbEntity
  8
FURN
100
AcDbPolyline
 90
        4
 70
     1
 43
0.0
 10
22136.71495
 20
28103.003002
 10
22119.247016
 20
28120.887948
 42
-0.407321
 10
22468.605695
 20
28120.887948
 10
22451.137761
 20
28103.003002
 42
0.407321
  0
LWPOLYLINE
  5
3F3
330
1F
100
AcDbEntity
  8
FURN
100
AcDbPolyline
 90
        4
 70
     1
 43
0.0
 10
21443.219013
 20
28156.285981
 10
21425.751079
 20
28174.170927
 42
-0.407321
 10
21775.109758
 20
28174.170927
 10
21757.641824
 20
28156.285981
 42
0.407321
  0
LWPOLYLINE
  5
3F4
330
1F
100
AcDbEntity
  8
FURN
100
AcDbPolyline
 90
        4
 70
     1
 43
0.0
 10
23728.599969
 20
28125.566
 10
23711.132035
 20
28143.450946
 42
-0.407321
 10
24060.490714
 20
28143.450946
 10
24043.02278
 20
28125.566
 42
0.407321
  0
LWPOLYLINE
  5
3F5
330
1F
100
AcDbEntity
  8
FURN
100
AcDbPolyline
 90
        4
 70
     1
 43
0.0
 10
23550.674523
 20
32093.466167
 10
23533.206589
 20
32075.581221
 42
0.407321
 10
23882.565268
 20
32075.581221
 10
23865.097334
 20
32093.466167
 42
-0.407321
  0
CIRCLE
  5
3F6
330
1F
100
AcDbEntity
  8
FURN
100
AcDbCircle
 10
23866.623114
 20
29870.393102
 30
0.0
 40
200.0
  0
LWPOLYLINE
  5
3F7
330
1F
100
AcDbEntity
  8
FURN
100
AcDbPolyline
 90
        4
 70
     1
 43
0.0
 10
23709.411708
 20
29709.42859
 10
23691.943774
 20
29691.543645
 42
0.407321
 10
24041.302453
 20
29691.543645
 10
24023.834519
 20
29709.42859
 42
-0.407321
  0
CIRCLE
  5
3F8
330
1F
100
AcDbEntity
  8
FURN
100
AcDbCircle
 10
23825.668193
 20
31113.596352
 30
0.0
 40
200.0
  0
LWPOLYLINE
  5
3F9
330
1F
100
AcDbEntity
  8
FURN
100
AcDbPolyline
 90
        4
 70
     1
 43
0.0
 10
23668.456787
 20
31274.560863
 10
23650.988853
 20
31292.445809
 42
-0.407321
 10
24000.347532
 20
31292.445809
 10
23982.879598
 20
31274.560863
 42
0.407321
  0
CIRCLE
  5
3FA
330
1F
100
AcDbEntity
  8
FURN
  6
Continuous
100
AcDbCircle
 10
24106.520527
 20
30521.260939
 30
0.0
 40
450.0
  0
CIRCLE
  5
3FB
330
1F
100
AcDbEntity
  8
FURN
100
AcDbCircle
 10
23707.885929
 20
32254.430678
 30
0.0
 40
200.0
  0
CIRCLE
  5
3FC
330
1F
100
AcDbEntity
  8
FURN
100
AcDbCircle
 10
24343.446341
 20
32306.599593
 30
0.0
 40
200.0
  0
LWPOLYLINE
  5
3FD
330
1F
100
AcDbEntity
  8
FURN
100
AcDbPolyline
 90
        4
 70
     1
 43
0.0
 10
24504.410853
 20
32149.388187
 10
24522.295799
 20
32131.920253
 42
0.407321
 10
24522.295799
 20
32481.278932
 10
24504.410853
 20
32463.810999
 42
-0.407321
  0
CIRCLE
  5
3FE
330
1F
100
AcDbEntity
  8
FURN
100
AcDbCircle
 10
21422.504973
 20
32285.150659
 30
0.0
 40
200.0
  0
CIRCLE
  5
3FF
330
1F
100
AcDbEntity
  8
FURN
100
AcDbCircle
 10
22058.065386
 20
32337.319574
 30
0.0
 40
200.0
  0
LWPOLYLINE
  5
400
330
1F
100
AcDbEntity
  8
FURN
100
AcDbPolyline
 90
        4
 70
     1
 43
0.0
 10
22219.029897
 20
32180.108169
 10
22236.914843
 20
32162.640235
 42
0.407321
 10
22236.914843
 20
32511.998914
 10
22219.029897
 20
32494.53098
 42
-0.407321
  0
CIRCLE
  5
401
330
1F
100
AcDbEntity
  8
FURN
100
AcDbCircle
 10
16058.426948
 20
32851.905512
 30
0.0
 40
200.0
  0
CIRCLE
  5
402
330
1F
100
AcDbEntity
  8
FURN
100
AcDbCircle
 10
19671.704608
 20
32859.507379
 30
0.0
 40
200.0
  0
LWPOLYLINE
  5
403
330
1F
100
AcDbEntity
  8
FURN
100
AcDbPolyline
 90
        4
 70
     1
 43
0.0
 10
19832.66912
 20
32702.295973
 10
19850.554066
 20
32684.828039
 42
0.407321
 10
19850.554066
 20
33034.186718
 10
19832.66912
 20
33016.718784
 42
-0.407321
  0
CIRCLE
  5
404
330
1F
100
AcDbEntity
  8
FURN
100
AcDbCircle
 10
19380.802726
 20
33398.559812
 30
0.0
 40
200.0
  0
LWPOLYLINE
  5
405
330
1F
100
AcDbEntity
  8
FURN
100
AcDbPolyline
 90
        4
 70
     1
 43
0.0
 10
19223.59132
 20
33559.524324
 10
19206.123386
 20
33577.409269
 42
-0.407321
 10
19555.482065
 20
33577.409269
 10
19538.014131
 20
33559.524324
 42
0.407321
  0
CIRCLE
  5
406
330
1F
100
AcDbEntity
  8
FURN
100
AcDbCircle
 10
18687.306789
 20
33451.842791
 30
0.0
 40
200.0
  0
LWPOLYLINE
  5
407
330
1F
100
AcDbEntity
  8
FURN
100
AcDbPolyline
 90
        4
 70
     1
 43
0.0
 10
18530.095383
 20
33612.807303
 10
18512.627449
 20
33630.692248
 42
-0.407321
 10
18861.986128
 20
33630.692248
 10
18844.518194
 20
33612.807303
 42
0.407321
  0
CIRCLE
  5
408
330
1F
100
AcDbEntity
  8
FURN
100
AcDbCircle
 10
18264.613639
 20
32859.507379
 30
0.0
 40
200.0
  0
LWPOLYLINE
  5
409
330
1F
100
AcDbEntity
  8
FURN
100
AcDbPolyline
 90
        4
 70
     1
 43
0.0
 10
18103.649127
 20
32702.295973
 10
18085.764181
 20
32684.828039
 42
-0.407321
 10
18085.764181
 20
33034.186718
 10
18103.649127
 20
33016.718784
 42
0.407321
  0
CIRCLE
  5
40A
330
1F
100
AcDbEntity
  8
FURN
  6
Continuous
100
AcDbCircle
 10
18968.159123
 20
32859.507379
 30
0.0
 40
450.0
  0
CIRCLE
  5
40B
330
1F
100
AcDbEntity
  8
FURN
100
AcDbCircle
 10
17465.517918
 20
32851.905512
 30
0.0
 40
200.0
  0
LWPOLYLINE
  5
40C
330
1F
100
AcDbEntity
  8
FURN
100
AcDbPolyline
 90
        4
 70
     1
 43
0.0
 10
17626.48243
 20
32694.694106
 10
17644.367375
 20
32677.226173
 42
0.407321
 10
17644.367375
 20
33026.584851
 10
17626.48243
 20
33009.116918
 42
-0.407321
  0
CIRCLE
  5
40D
330
1F
100
AcDbEntity
  8
FURN
100
AcDbCircle
 10
17174.616035
 20
33390.957946
 30
0.0
 40
200.0
  0
LWPOLYLINE
  5
40E
330
1F
100
AcDbEntity
  8
FURN
100
AcDbPolyline
 90
        4
 70
     1
 43
0.0
 10
17017.40463
 20
33551.922457
 10
16999.936696
 20
33569.807403
 42
-0.407321
 10
17349.295375
 20
33569.807403
 10
17331.827441
 20
33551.922457
 42
0.407321
  0
CIRCLE
  5
40F
330
1F
100
AcDbEntity
  8
FURN
100
AcDbCircle
 10
16481.120099
 20
33444.240924
 30
0.0
 40
200.0
  0
LWPOLYLINE
  5
410
330
1F
100
AcDbEntity
  8
FURN
100
AcDbPolyline
 90
        4
 70
     1
 43
0.0
 10
16323.908693
 20
33605.205436
 10
16306.440759
 20
33623.090382
 42
-0.407321
 10
16655.799438
 20
33623.090382
 10
16638.331504
 20
33605.205436
 42
0.407321
  0
LWPOLYLINE
  5
411
330
1F
100
AcDbEntity
  8
FURN
100
AcDbPolyline
 90
        4
 70
     1
 43
0.0
 10
15897.462437
 20
32694.694106
 10
15879.577491
 20
32677.226173
 42
-0.407321
 10
15879.577491
 20
33026.584851
 10
15897.462437
 20
33009.116918
 42
0.407321
  0
CIRCLE
  5
412
330
1F
100
AcDbEntity
  8
FURN
  6
Continuous
100
AcDbCircle
 10
16761.972433
 20
32851.905512
 30
0.0
 40
450.0
  0
LWPOLYLINE
  5
413
330
1F
100
AcDbEntity
  8
FURN
100
AcDbPolyline
 90
        4
 70
     1
 43
0.0
 10
18571.050304
 20
32047.67503
 10
18553.58237
 20
32029.790084
 42
0.407321
 10
18902.941049
 20
32029.790084
 10
18885.473115
 20
32047.67503
 42
-0.407321
  0
CIRCLE
  5
414
330
1F
100
AcDbEntity
  8
FURN
100
AcDbCircle
 10
19708.988681
 20
30556.468343
 30
0.0
 40
200.0
  0
LWPOLYLINE
  5
415
330
1F
100
AcDbEntity
  8
FURN
100
AcDbPolyline
 90
        4
 70
     1
 43
0.0
 10
19869.953192
 20
30399.256938
 10
19887.838138
 20
30381.789004
 42
0.407321
 10
19887.838138
 20
30731.147683
 10
19869.953192
 20
30713.679749
 42
-0.407321
  0
CIRCLE
  5
416
330
1F
100
AcDbEntity
  8
FURN
100
AcDbCircle
 10
19418.086798
 20
31095.520777
 30
0.0
 40
200.0
  0
LWPOLYLINE
  5
417
330
1F
100
AcDbEntity
  8
FURN
100
AcDbPolyline
 90
        4
 70
     1
 43
0.0
 10
19260.875393
 20
31256.485289
 10
19243.407459
 20
31274.370234
 42
-0.407321
 10
19592.766138
 20
31274.370234
 10
19575.298204
 20
31256.485289
 42
0.407321
  0
CIRCLE
  5
418
330
1F
100
AcDbEntity
  8
FURN
100
AcDbCircle
 10
18765.545782
 20
29905.600506
 30
0.0
 40
200.0
  0
LWPOLYLINE
  5
419
330
1F
100
AcDbEntity
  8
FURN
100
AcDbPolyline
 90
        4
 70
     1
 43
0.0
 10
18608.334377
 20
29744.635995
 10
18590.866443
 20
29726.751049
 42
0.407321
 10
18940.225122
 20
29726.751049
 10
18922.757188
 20
29744.635995
 42
-0.407321
  0
CIRCLE
  5
41A
330
1F
100
AcDbEntity
  8
FURN
100
AcDbCircle
 10
18724.590861
 20
31148.803756
 30
0.0
 40
200.0
  0
LWPOLYLINE
  5
41B
330
1F
100
AcDbEntity
  8
FURN
100
AcDbPolyline
 90
        4
 70
     1
 43
0.0
 10
18567.379456
 20
31309.768267
 10
18549.911522
 20
31327.653213
 42
-0.407321
 10
18899.270201
 20
31327.653213
 10
18881.802267
 20
31309.768267
 42
0.407321
  0
CIRCLE
  5
41C
330
1F
100
AcDbEntity
  8
FURN
100
AcDbCircle
 10
19401.106195
 20
29957.769421
 30
0.0
 40
200.0
  0
LWPOLYLINE
  5
41D
330
1F
100
AcDbEntity
  8
FURN
100
AcDbPolyline
 90
        4
 70
     1
 43
0.0
 10
19562.070706
 20
29800.558015
 10
19579.955652
 20
29783.090082
 42
0.407321
 10
19579.955652
 20
30132.44876
 10
19562.070706
 20
30114.980827
 42
-0.407321
  0
CIRCLE
  5
41E
330
1F
100
AcDbEntity
  8
FURN
100
AcDbCircle
 10
18301.897711
 20
30556.468343
 30
0.0
 40
200.0
  0
LWPOLYLINE
  5
41F
330
1F
100
AcDbEntity
  8
FURN
100
AcDbPolyline
 90
        4
 70
     1
 43
0.0
 10
18140.9332
 20
30399.256938
 10
18123.048254
 20
30381.789004
 42
-0.407321
 10
18123.048254
 20
30731.147683
 10
18140.9332
 20
30713.679749
 42
0.407321
  0
CIRCLE
  5
420
330
1F
100
AcDbEntity
  8
FURN
  6
Continuous
100
AcDbCircle
 10
19005.443196
 20
30556.468343
 30
0.0
 40
450.0
  0
LWPOLYLINE
  5
421
330
1F
100
AcDbEntity
  8
FURN
100
AcDbPolyline
 90
        4
 70
     1
 43
0.0
 10
19438.690392
 20
28298.216035
 10
19421.222458
 20
28316.10098
 42
-0.407321
 10
19770.581137
 20
28316.10098
 10
19753.113203
 20
28298.216035
 42
0.407321
  0
CIRCLE
  5
422
330
1F
100
AcDbEntity
  8
FURN
100
AcDbCircle
 10
17465.517918
 20
30622.038739
 30
0.0
 40
200.0
  0
LWPOLYLINE
  5
423
330
1F
100
AcDbEntity
  8
FURN
100
AcDbPolyline
 90
        4
 70
     1
 43
0.0
 10
17626.48243
 20
30464.827333
 10
17644.367375
 20
30447.359399
 42
0.407321
 10
17644.367375
 20
30796.718078
 10
17626.48243
 20
30779.250144
 42
-0.407321
  0
CIRCLE
  5
424
330
1F
100
AcDbEntity
  8
FURN
100
AcDbCircle
 10
17174.616035
 20
31161.091172
 30
0.0
 40
200.0
  0
LWPOLYLINE
  5
425
330
1F
100
AcDbEntity
  8
FURN
100
AcDbPolyline
 90
        4
 70
     1
 43
0.0
 10
17017.40463
 20
31322.055684
 10
16999.936696
 20
31339.94063
 42
-0.407321
 10
17349.295375
 20
31339.94063
 10
17331.827441
 20
31322.055684
 42
0.407321
  0
CIRCLE
  5
426
330
1F
100
AcDbEntity
  8
FURN
100
AcDbCircle
 10
16522.07502
 20
29971.170902
 30
0.0
 40
200.0
  0
LWPOLYLINE
  5
427
330
1F
100
AcDbEntity
  8
FURN
100
AcDbPolyline
 90
        4
 70
     1
 43
0.0
 10
16364.863614
 20
29810.20639
 10
16347.39568
 20
29792.321444
 42
0.407321
 10
16696.754359
 20
29792.321444
 10
16679.286425
 20
29810.20639
 42
-0.407321
  0
CIRCLE
  5
428
330
1F
100
AcDbEntity
  8
FURN
100
AcDbCircle
 10
16481.120099
 20
31214.374151
 30
0.0
 40
200.0
  0
LWPOLYLINE
  5
429
330
1F
100
AcDbEntity
  8
FURN
100
AcDbPolyline
 90
        4
 70
     1
 43
0.0
 10
16323.908693
 20
31375.338663
 10
16306.440759
 20
31393.223608
 42
-0.407321
 10
16655.799438
 20
31393.223608
 10
16638.331504
 20
31375.338663
 42
0.407321
  0
CIRCLE
  5
42A
330
1F
100
AcDbEntity
  8
FURN
100
AcDbCircle
 10
17157.635432
 20
30023.339816
 30
0.0
 40
200.0
  0
LWPOLYLINE
  5
42B
330
1F
100
AcDbEntity
  8
FURN
100
AcDbPolyline
 90
        4
 70
     1
 43
0.0
 10
17318.599944
 20
29866.128411
 10
17336.484889
 20
29848.660477
 42
0.407321
 10
17336.484889
 20
30198.019156
 10
17318.599944
 20
30180.551222
 42
-0.407321
  0
CIRCLE
  5
42C
330
1F
100
AcDbEntity
  8
FURN
100
AcDbCircle
 10
16058.426948
 20
30622.038739
 30
0.0
 40
200.0
  0
LWPOLYLINE
  5
42D
330
1F
100
AcDbEntity
  8
FURN
100
AcDbPolyline
 90
        4
 70
     1
 43
0.0
 10
15897.462437
 20
30464.827333
 10
15879.577491
 20
30447.359399
 42
-0.407321
 10
15879.577491
 20
30796.718078
 10
15897.462437
 20
30779.250144
 42
0.407321
  0
CIRCLE
  5
42E
330
1F
100
AcDbEntity
  8
FURN
  6
Continuous
100
AcDbCircle
 10
16761.972433
 20
30622.038739
 30
0.0
 40
450.0
  0
LWPOLYLINE
  5
42F
330
1F
100
AcDbEntity
  8
FURN
100
AcDbPolyline
 90
        4
 70
     1
 43
0.0
 10
16364.863614
 20
32040.073163
 10
16347.39568
 20
32022.188218
 42
0.407321
 10
16696.754359
 20
32022.188218
 10
16679.286425
 20
32040.073163
 42
-0.407321
  0
LWPOLYLINE
  5
430
330
1F
100
AcDbEntity
  8
FURN
100
AcDbPolyline
 90
        4
 70
     1
 43
0.0
 10
16710.602113
 20
28415.759598
 10
16693.134179
 20
28433.644544
 42
-0.407321
 10
17042.492858
 20
28433.644544
 10
17025.024924
 20
28415.759598
 42
0.407321
  0
CIRCLE
  5
431
330
1F
100
AcDbEntity
  8
FURN
100
AcDbCircle
 10
18728.26171
 20
32208.639541
 30
0.0
 40
200.0
  0
CIRCLE
  5
432
330
1F
100
AcDbEntity
  8
FURN
100
AcDbCircle
 10
19363.822122
 20
32260.808456
 30
0.0
 40
200.0
  0
LWPOLYLINE
  5
433
330
1F
100
AcDbEntity
  8
FURN
100
AcDbPolyline
 90
        4
 70
     1
 43
0.0
 10
19524.786634
 20
32103.597051
 10
19542.67158
 20
32086.129117
 42
0.407321
 10
19542.67158
 20
32435.487796
 10
19524.786634
 20
32418.019862
 42
-0.407321
  0
CIRCLE
  5
434
330
1F
100
AcDbEntity
  8
FURN
100
AcDbCircle
 10
16522.07502
 20
32201.037675
 30
0.0
 40
200.0
  0
CIRCLE
  5
435
330
1F
100
AcDbEntity
  8
FURN
100
AcDbCircle
 10
17157.635432
 20
32253.206589
 30
0.0
 40
200.0
  0
LWPOLYLINE
  5
436
330
1F
100
AcDbEntity
  8
FURN
100
AcDbPolyline
 90
        4
 70
     1
 43
0.0
 10
17318.599944
 20
32095.995184
 10
17336.484889
 20
32078.52725
 42
0.407321
 10
17336.484889
 20
32427.885929
 10
17318.599944
 20
32410.417995
 42
-0.407321
  0
LWPOLYLINE
  5
437
330
1F
100
AcDbEntity
  8
FURN
100
AcDbPolyline
 90
        4
 70
     1
 43
0.0
 10
20797.89239
 20
32778.807091
 10
20780.007445
 20
32761.339157
 42
-0.407321
 10
20780.007445
 20
33110.697836
 10
20797.89239
 20
33093.229902
 42
0.407321
  0
INSERT
  5
438
330
1F
100
AcDbEntity
  8
объекты
100
AcDbBlockReference
  2
умывальник1
 10
27105.922462
 20
32141.897467
 30
0.0
 41
-1.0
 50
90.0
  0
INSERT
  5
439
330
1F
100
AcDbEntity
  8
конт пособн.
  6
Continuous
100
AcDbBlockReference
  2
Стол 1200х600
 10
27105.922462
 20
32921.897467
 30
0.0
 41
-1.0
 50
90.0
  0
INSERT
  5
43A
330
1F
100
AcDbEntity
  8
объекты
100
AcDbBlockReference
  2
умывальник1
 10
27105.922462
 20
32661.897467
 30
0.0
 41
-1.0
 50
90.0
  0
LWPOLYLINE
  5
43B
330
1F
100
AcDbEntity
  8
Размеры по перег.
 62
     0
370
    25
100
AcDbPolyline
 90
        2
 70
     0
 43
0.0
 10
30987.322461
 20
34091.897467
 10
21076.31282
 20
34091.897467
  0
LINE
  5
43C
330
1F
100
AcDbEntity
  8
Размеры по перег.
 62
     0
370
    30
100
AcDbLine
 10
32386.836373
 20
19251.204481
 30
0.0
 11
33260.056896
 21
19239.062022
 31
0.0
  0
LINE
  5
43D
330
1F
100
AcDbEntity
  8
Размеры по перег.
 62
     0
370
     0
100
AcDbLine
 10
33255.677249
 20
19241.590613
 30
0.0
 11
34121.702652
 21
18741.590613
 31
0.0
  0
LINE
  5
43E
330
1F
100
AcDbEntity
  8
Размеры по перег.
 62
     0
370
    30
100
AcDbLine
 10
34877.995116
 20
19237.227968
 30
0.0
 11
36070.976661
 21
19238.210447
 31
0.0
  0
LINE
  5
43F
330
1F
100
AcDbEntity
  8
Размеры по перег.
 62
     0
370
     0
100
AcDbLine
 10
34877.995116
 20
19237.227968
 30
0.0
 11
34524.441725
 21
18883.674578
 31
0.0
  0
LINE
  5
440
330
1F
100
AcDbEntity
  8
Стеллаж
  6
штриховая2
 62
     0
 48
0.1
370
     0
100
AcDbLine
 10
27111.724861
 20
26698.461144
 30
0.0
 11
27111.724861
 21
25673.086629
 31
0.0
  0
LINE
  5
441
330
1F
100
AcDbEntity
  8
Размеры по перег.
 62
     0
370
    30
100
AcDbLine
 10
15133.702738
 20
25673.086629
 30
0.0
 11
27873.075761
 21
25673.086629
 31
0.0
  0
LINE
  5
442
330
1F
100
AcDbEntity
  8
Размеры по перег.
 62
     0
370
    30
100
AcDbLine
 10
32387.322461
 20
25793.086629
 30
0.0
 11
32387.322461
 21
19244.531196
 31
0.0
  0
LINE
  5
443
330
1F
100
AcDbEntity
  8
Перекресток оборудование
 48
200.0
100
AcDbLine
 10
22567.403051
 20
25673.086781
 30
0.0
 11
23167.403051
 21
25673.08831
 31
0.0
  0
LINE
  5
445
330
1F
100
AcDbEntity
  8
Стеллаж
  6
штриховая2
 62
     0
 48
0.1
370
     0
100
AcDbLine
 10
27111.724861
 20
27598.461144
 30
0.0
 11
27231.724861
 21
27598.461144
 31
0.0
  0
LINE
  5
446
330
1F
100
AcDbEntity
  8
Стеллаж
  6
штриховая2
 62
     0
 48
0.1
370
     0
100
AcDbLine
 10
27111.724861
 20
26698.461144
 30
0.0
 11
27231.724861
 21
26698.461144
 31
0.0
  0
LINE
  5
447
330
1F
100
AcDbEntity
  8
Стеллаж
  6
штриховая2
 62
     0
 48
0.1
370
     0
100
AcDbLine
 10
32387.322461
 20
25673.086629
 30
0.0
 11
32387.322461
 21
25793.086629
 31
0.0
  0
LINE
  5
448
330
1F
100
AcDbEntity
  8
Перекресток оборудование
 48
200.0
100
AcDbLine
 10
27753.080856
 20
25673.086781
 30
0.0
 11
27153.080856
 21
25673.08831
 31
0.0
  0
LINE
  5
449
330
1F
100
AcDbEntity
  8
Стеллаж
  6
штриховая2
 62
     0
 48
0.1
370
     0
100
AcDbLine
 10
29210.411359
 20
25793.086629
 30
0.0
 11
29210.411359
 21
25673.086629
 31
0.0
  0
LINE
  5
44A
330
1F
100
AcDbEntity
  8
Стеллаж
  6
штриховая2
 62
     0
 48
0.1
370
     0
100
AcDbLine
 10
27753.075761
 20
21272.142227
 30
0.0
 11
27753.075761
 21
25673.086629
 31
0.0
  0
LINE
  5
44B
330
1F
100
AcDbEntity
  8
Стеллаж
  6
штриховая2
 62
     0
 48
0.1
370
     0
100
AcDbLine
 10
27873.075761
 20
21392.142227
 30
0.0
 11
27873.075761
 21
25673.086629
 31
0.0
  0
LINE
  5
44C
330
1F
100
AcDbEntity
  8
Стеллаж
  6
штриховая2
 62
     4
 48
0.1
370
     0
100
AcDbLine
 10
29210.411359
 20
25733.086629
 30
0.0
 11
32387.322461
 21
25733.086629
 31
0.0
  0
LINE
  5
44D
330
1F
100
AcDbEntity
  8
Стеллаж
  6
штриховая2
 62
     0
 48
0.1
370
     0
100
AcDbLine
 10
29210.411359
 20
25793.086629
 30
0.0
 11
32507.322461
 21
25793.086629
 31
0.0
  0
LINE
  5
44E
330
1F
100
AcDbEntity
  8
Стеллаж
  6
штриховая2
 62
     0
 48
0.1
370
     0
100
AcDbLine
 10
27753.075761
 20
21272.142227
 30
0.0
 11
32387.322461
 21
21272.142227
 31
0.0
  0
LINE
  5
44F
330
1F
100
AcDbEntity
  8
Стеллаж
  6
штриховая2
 62
     0
 48
0.1
370
     0
100
AcDbLine
 10
27753.075761
 20
21392.142227
 30
0.0
 11
32387.322461
 21
21392.142227
 31
0.0
  0
LINE
  5
450
330
1F
100
AcDbEntity
  8
Стеллаж
  6
штриховая2
 62
     0
 48
0.1
370
     0
100
AcDbLine
 10
29210.411359
 20
25673.086629
 30
0.0
 11
32387.322461
 21
25673.086629
 31
0.0
  0
LINE
  5
451
330
1F
100
AcDbEntity
  8
Стеллаж
  6
штриховая2
 62
     0
 48
0.1
370
     0
100
AcDbLine
 10
27231.724861
 20
26698.461144
 30
0.0
 11
27231.724861
 21
25673.086629
 31
0.0
  0
CIRCLE
  5
452
330
1F
100
AcDbEntity
  8
FURN
100
AcDbCircle
 10
24870.209193
 20
27372.266076
 30
0.0
 40
200.0
  0
LWPOLYLINE
  5
453
330
1F
100
AcDbEntity
  8
FURN
100
AcDbPolyline
 90
        4
 70
     1
 43
0.0
 10
25031.173705
 20
27215.05467
 10
25049.058651
 20
27197.586736
 42
0.407321
 10
25049.058651
 20
27546.945415
 10
25031.173705
 20
27529.477481
 42
-0.407321
  0
CIRCLE
  5
454
330
1F
100
AcDbEntity
  8
FURN
100
AcDbCircle
 10
24562.326708
 20
26773.567153
 30
0.0
 40
200.0
  0
LWPOLYLINE
  5
455
330
1F
100
AcDbEntity
  8
FURN
100
AcDbPolyline
 90
        4
 70
     1
 43
0.0
 10
24723.291219
 20
26616.355748
 10
24741.176165
 20
26598.887814
 42
0.407321
 10
24741.176165
 20
26948.246493
 10
24723.291219
 20
26930.778559
 42
-0.407321
  0
CIRCLE
  5
456
330
1F
100
AcDbEntity
  8
FURN
100
AcDbCircle
 10
23463.118224
 20
27372.266076
 30
0.0
 40
200.0
  0
LWPOLYLINE
  5
457
330
1F
100
AcDbEntity
  8
FURN
100
AcDbPolyline
 90
        4
 70
     1
 43
0.0
 10
23302.153712
 20
27215.05467
 10
23284.268766
 20
27197.586736
 42
-0.407321
 10
23284.268766
 20
27546.945415
 10
23302.153712
 20
27529.477481
 42
0.407321
  0
CIRCLE
  5
458
330
1F
100
AcDbEntity
  8
FURN
100
AcDbCircle
 10
22584.828238
 20
27402.986057
 30
0.0
 40
200.0
  0
LWPOLYLINE
  5
459
330
1F
100
AcDbEntity
  8
FURN
100
AcDbPolyline
 90
        4
 70
     1
 43
0.0
 10
22745.79275
 20
27245.774652
 10
22763.677695
 20
27228.306718
 42
0.407321
 10
22763.677695
 20
27577.665397
 10
22745.79275
 20
27560.197463
 42
-0.407321
  0
CIRCLE
  5
45A
330
1F
100
AcDbEntity
  8
FURN
100
AcDbCircle
 10
21641.38534
 20
26752.11822
 30
0.0
 40
200.0
  0
LWPOLYLINE
  5
45B
330
1F
100
AcDbEntity
  8
FURN
100
AcDbPolyline
 90
        4
 70
     1
 43
0.0
 10
21484.173934
 20
26591.153708
 10
21466.706
 20
26573.268763
 42
0.407321
 10
21816.064679
 20
26573.268763
 10
21798.596745
 20
26591.153708
 42
-0.407321
  0
CIRCLE
  5
45C
330
1F
100
AcDbEntity
  8
FURN
100
AcDbCircle
 10
22276.945752
 20
26804.287135
 30
0.0
 40
200.0
  0
LWPOLYLINE
  5
45D
330
1F
100
AcDbEntity
  8
FURN
100
AcDbPolyline
 90
        4
 70
     1
 43
0.0
 10
22437.910264
 20
26647.075729
 10
22455.795209
 20
26629.607795
 42
0.407321
 10
22455.795209
 20
26978.966474
 10
22437.910264
 20
26961.49854
 42
-0.407321
  0
CIRCLE
  5
45E
330
1F
100
AcDbEntity
  8
FURN
100
AcDbCircle
 10
21177.737268
 20
27402.986057
 30
0.0
 40
200.0
  0
LWPOLYLINE
  5
45F
330
1F
100
AcDbEntity
  8
FURN
100
AcDbPolyline
 90
        4
 70
     1
 43
0.0
 10
21016.772757
 20
27245.774652
 10
20998.887811
 20
27228.306718
 42
-0.407321
 10
20998.887811
 20
27577.665397
 10
21016.772757
 20
27560.197463
 42
0.407321
  0
CIRCLE
  5
460
330
1F
100
AcDbEntity
  8
FURN
  6
Continuous
100
AcDbCircle
 10
21881.282753
 20
27402.986057
 30
0.0
 40
450.0
  0
CIRCLE
  5
461
330
1F
100
AcDbEntity
  8
FURN
100
AcDbCircle
 10
23926.766295
 20
26721.398239
 30
0.0
 40
200.0
  0
LWPOLYLINE
  5
462
330
1F
100
AcDbEntity
  8
FURN
100
AcDbPolyline
 90
        4
 70
     1
 43
0.0
 10
23769.554889
 20
26560.433727
 10
23752.086956
 20
26542.548781
 42
0.407321
 10
24101.445634
 20
26542.548781
 10
24083.977701
 20
26560.433727
 42
-0.407321
  0
CIRCLE
  5
463
330
1F
100
AcDbEntity
  8
FURN
  6
Continuous
100
AcDbCircle
 10
24166.663709
 20
27372.266076
 30
0.0
 40
450.0
  0
CIRCLE
  5
464
330
1F
100
AcDbEntity
  8
FURN
100
AcDbCircle
 10
19595.901798
 20
26730.160553
 30
0.0
 40
200.0
  0
LWPOLYLINE
  5
465
330
1F
100
AcDbEntity
  8
FURN
100
AcDbPolyline
 90
        4
 70
     1
 43
0.0
 10
19438.690392
 20
26569.196042
 10
19421.222458
 20
26551.311096
 42
0.407321
 10
19770.581137
 20
26551.311096
 10
19753.113203
 20
26569.196042
 42
-0.407321
  0
CIRCLE
  5
466
330
1F
100
AcDbEntity
  8
FURN
100
AcDbCircle
 10
20134.954231
 20
27021.062436
 30
0.0
 40
200.0
  0
LWPOLYLINE
  5
467
330
1F
100
AcDbEntity
  8
FURN
100
AcDbPolyline
 90
        4
 70
     1
 43
0.0
 10
20295.918743
 20
27178.273842
 10
20313.803689
 20
27195.741776
 42
-0.407321
 10
20313.803689
 20
26846.383097
 10
20295.918743
 20
26863.85103
 42
0.407321
  0
CIRCLE
  5
468
330
1F
100
AcDbEntity
  8
FURN
100
AcDbCircle
 10
18945.033961
 20
27673.603452
 30
0.0
 40
200.0
  0
LWPOLYLINE
  5
469
330
1F
100
AcDbEntity
  8
FURN
100
AcDbPolyline
 90
        4
 70
     1
 43
0.0
 10
18784.069449
 20
27830.814857
 10
18766.184503
 20
27848.282791
 42
0.407321
 10
18766.184503
 20
27498.924112
 10
18784.069449
 20
27516.392046
 42
-0.407321
  0
CIRCLE
  5
46A
330
1F
100
AcDbEntity
  8
FURN
100
AcDbCircle
 10
20188.23721
 20
27714.558373
 30
0.0
 40
200.0
  0
LWPOLYLINE
  5
46B
330
1F
100
AcDbEntity
  8
FURN
100
AcDbPolyline
 90
        4
 70
     1
 43
0.0
 10
20349.201722
 20
27871.769778
 10
20367.086667
 20
27889.237712
 42
-0.407321
 10
20367.086667
 20
27539.879033
 10
20349.201722
 20
27557.346967
 42
0.407321
  0
CIRCLE
  5
46C
330
1F
100
AcDbEntity
  8
FURN
100
AcDbCircle
 10
18997.202875
 20
27038.043039
 30
0.0
 40
200.0
  0
LWPOLYLINE
  5
46D
330
1F
100
AcDbEntity
  8
FURN
100
AcDbPolyline
 90
        4
 70
     1
 43
0.0
 10
18839.99147
 20
26877.078528
 10
18822.523536
 20
26859.193582
 42
0.407321
 10
19171.882215
 20
26859.193582
 10
19154.414281
 20
26877.078528
 42
-0.407321
  0
CIRCLE
  5
46E
330
1F
100
AcDbEntity
  8
FURN
  6
Continuous
100
AcDbCircle
 10
19595.901798
 20
27433.706038
 30
0.0
 40
450.0
  0
CIRCLE
  5
46F
330
1F
100
AcDbEntity
  8
FURN
100
AcDbCircle
 10
16867.813518
 20
26847.704117
 30
0.0
 40
200.0
  0
LWPOLYLINE
  5
470
330
1F
100
AcDbEntity
  8
FURN
100
AcDbPolyline
 90
        4
 70
     1
 43
0.0
 10
16710.602113
 20
26686.739605
 10
16693.134179
 20
26668.854659
 42
0.407321
 10
17042.492858
 20
26668.854659
 10
17025.024924
 20
26686.739605
 42
-0.407321
  0
CIRCLE
  5
471
330
1F
100
AcDbEntity
  8
FURN
100
AcDbCircle
 10
17406.865952
 20
27138.605999
 30
0.0
 40
200.0
  0
LWPOLYLINE
  5
472
330
1F
100
AcDbEntity
  8
FURN
100
AcDbPolyline
 90
        4
 70
     1
 43
0.0
 10
17567.830463
 20
27295.817405
 10
17585.715409
 20
27313.285339
 42
-0.407321
 10
17585.715409
 20
26963.92666
 10
17567.830463
 20
26981.394594
 42
0.407321
  0
CIRCLE
  5
473
330
1F
100
AcDbEntity
  8
FURN
100
AcDbCircle
 10
16216.945681
 20
27791.147015
 30
0.0
 40
200.0
  0
LWPOLYLINE
  5
474
330
1F
100
AcDbEntity
  8
FURN
100
AcDbPolyline
 90
        4
 70
     1
 43
0.0
 10
16055.98117
 20
27948.358421
 10
16038.096224
 20
27965.826355
 42
0.407321
 10
16038.096224
 20
27616.467676
 10
16055.98117
 20
27633.93561
 42
-0.407321
  0
CIRCLE
  5
475
330
1F
100
AcDbEntity
  8
FURN
100
AcDbCircle
 10
17460.148931
 20
27832.101936
 30
0.0
 40
200.0
  0
LWPOLYLINE
  5
476
330
1F
100
AcDbEntity
  8
FURN
100
AcDbPolyline
 90
        4
 70
     1
 43
0.0
 10
17621.113442
 20
27989.313342
 10
17638.998388
 20
28006.781275
 42
-0.407321
 10
17638.998388
 20
27657.422596
 10
17621.113442
 20
27674.89053
 42
0.407321
  0
CIRCLE
  5
477
330
1F
100
AcDbEntity
  8
FURN
100
AcDbCircle
 10
16269.114596
 20
27155.586602
 30
0.0
 40
200.0
  0
LWPOLYLINE
  5
478
330
1F
100
AcDbEntity
  8
FURN
100
AcDbPolyline
 90
        4
 70
     1
 43
0.0
 10
16111.90319
 20
26994.622091
 10
16094.435256
 20
26976.737145
 42
0.407321
 10
16443.793935
 20
26976.737145
 10
16426.326001
 20
26994.622091
 42
-0.407321
  0
CIRCLE
  5
479
330
1F
100
AcDbEntity
  8
FURN
  6
Continuous
100
AcDbCircle
 10
16867.813518
 20
27551.249601
 30
0.0
 40
450.0
  0
LINE
  5
47A
330
1F
100
AcDbEntity
  8
Размеры по перег.
 62
     0
370
    30
100
AcDbLine
 10
36070.976661
 20
19238.210447
 30
0.0
 11
36054.259018
 21
36851.553483
 31
0.0
  0
LINE
  5
47C
330
1F
100
AcDbEntity
  8
Стеллаж
  6
штриховая2
 62
     0
 48
0.1
370
     0
100
AcDbLine
 10
15133.702738
 20
25673.086629
 30
0.0
 11
15133.702738
 21
34291.897467
 31
0.0
  0
LINE
  5
47D
330
1F
100
AcDbEntity
  8
Стеллаж
  6
штриховая2
 62
     0
 48
0.1
370
     0
100
AcDbLine
 10
15253.702738
 20
25793.086629
 30
0.0
 11
15253.702738
 21
34291.897467
 31
0.0
  0
LINE
  5
47E
330
1F
100
AcDbEntity
  8
Стеллаж
  6
штриховая2
 62
     0
 48
0.1
370
     0
100
AcDbLine
 10
27231.724861
 20
28503.83566
 30
0.0
 11
27231.724861
 21
27598.461144
 31
0.0
  0
LINE
  5
47F
330
1F
100
AcDbEntity
  8
Стеллаж
  6
штриховая2
 62
     0
 48
0.1
370
     0
100
AcDbLine
 10
27111.724861
 20
28503.83566
 30
0.0
 11
27111.724861
 21
27598.461144
 31
0.0
  0
CIRCLE
  5
480
330
1F
100
AcDbEntity
  8
FURN
100
AcDbCircle
 10
24579.307311
 20
27911.318509
 30
0.0
 40
200.0
  0
LWPOLYLINE
  5
481
330
1F
100
AcDbEntity
  8
FURN
100
AcDbPolyline
 90
        4
 70
     1
 43
0.0
 10
24422.095905
 20
28072.283021
 10
24404.627971
 20
28090.167967
 42
-0.407321
 10
24753.98665
 20
28090.167967
 10
24736.518716
 20
28072.283021
 42
0.407321
  0
CIRCLE
  5
482
330
1F
100
AcDbEntity
  8
FURN
100
AcDbCircle
 10
22293.926355
 20
27942.038491
 30
0.0
 40
200.0
  0
CIRCLE
  5
483
330
1F
100
AcDbEntity
  8
FURN
100
AcDbCircle
 10
21600.430419
 20
27995.32147
 30
0.0
 40
200.0
  0
CIRCLE
  5
484
330
1F
100
AcDbEntity
  8
FURN
100
AcDbCircle
 10
23885.811374
 20
27964.601488
 30
0.0
 40
200.0
  0
CIRCLE
  5
485
330
1F
100
AcDbEntity
  8
FURN
100
AcDbCircle
 10
19595.901798
 20
28137.251523
 30
0.0
 40
200.0
  0
CIRCLE
  5
486
330
1F
100
AcDbEntity
  8
FURN
100
AcDbCircle
 10
16867.813518
 20
28254.795086
 30
0.0
 40
200.0
  0
VIEWPORT
  5
229
330
D2
100
AcDbEntity
 67
     1
  8
0
 48
100.0
100
AcDbViewport
 10
0.0
 20
0.0
 30
0.0
 40
411.98201
 41
238.196088
 68
     1
 69
     1
 12
128.5
 22
97.5
 13
0.0
 23
0.0
 14
10.0
 24
10.0
 15
10.0
 25
10.0
 16
0.0
 26
0.0
 36
1.0
 17
0.0
 27
0.0
 37
0.0
 42
50.0
 43
0.0
 44
0.0
 45
238.196088
 50
0.0
 51
0.0
 72
   100
 90
   557168
  1

281
     0
 71
     1
 74
     0
110
0.0
120
0.0
130
0.0
111
1.0
121
0.0
131
0.0
112
0.0
122
1.0
132
0.0
 79
     0
146
0.0
170
     0
 61
     5
292
     1
282
     1
141
0.0
142
0.0
 63
   256
  0
ENDSEC
  0
SECTION
  2
OBJECTS
  0
DICTIONARY
  5
C
330
0
100
AcDbDictionary
281
     1
  3
ACAD_COLOR
350
6B
  3
ACAD_GROUP
350
D
  3
ACAD_IMAGE_DICT
350
351
  3
ACAD_LAYOUT
350
1A
  3
ACAD_MATERIAL
350
6A
  3
ACAD_MLEADERSTYLE
350
12D
  3
ACAD_MLINESTYLE
350
17
  3
ACAD_PLOTSETTINGS
350
19
  3
ACAD_PLOTSTYLENAME
350
E
  3
ACAD_SCALELIST
350
10C
  3
ACAD_TABLESTYLE
350
7E
  3
ACAD_VISUALSTYLE
350
EF
  3
ACDB_RECOMPOSE_DATA
350
4B1
  3
AcDbVariableDictionary
350
5E
  3
MCS_STREAM_DICT
350
4A8
  0
DICTIONARY
  5
234
330
1F
100
AcDbDictionary
280
     1
281
     1
  3
ACAD_SORTENTS
360
235
  0
DICTIONARY
  5
6B
102
{ACAD_REACTORS
330
C
102
}
330
C
100
AcDbDictionary
281
     1
  0
DICTIONARY
  5
D
102
{ACAD_REACTORS
330
C
102
}
330
C
100
AcDbDictionary
281
     1
  0
DICTIONARY
  5
351
102
{ACAD_REACTORS
330
C
102
}
330
C
100
AcDbDictionary
281
     1
  0
DICTIONARY
  5
1A
102
{ACAD_REACTORS
330
C
102
}
330
C
100
AcDbDictionary
281
     1
  3
A0
350
225
  3
A1
350
220
  3
A2
350
21B
  3
A3
350
216
  3
A4
350
211
  3
Model
350
22
  3
Лист1
350
D3
  3
Лист2
350
D7
  0
DICTIONARY
  5
6A
102
{ACAD_REACTORS
330
C
102
}
330
C
100
AcDbDictionary
281
     1
  3
ByBlock
350
ED
  3
ByLayer
350
EC
  3
Global
350
EE
  0
DICTIONARY
  5
12D
102
{ACAD_REACTORS
330
C
102
}
330
C
100
AcDbDictionary
281
     1
  3
Standard
350
12E
  3
Аннотативный
350
13B
  0
DICTIONARY
  5
17
102
{ACAD_REACTORS
330
C
102
}
330
C
100
AcDbDictionary
281
     1
  3
Standard
350
18
  0
DICTIONARY
  5
19
102
{ACAD_REACTORS
330
C
102
}
330
C
100
AcDbDictionary
281
     1
  0
ACDBDICTIONARYWDFLT
  5
E
102
{ACAD_REACTORS
330
C
102
}
330
C
100
AcDbDictionary
281
     1
  3
Normal
350
F
100
AcDbDictionaryWithDefault
340
F
  0
DICTIONARY
  5
10C
102
{ACAD_REACTORS
330
C
102
}
330
C
100
AcDbDictionary
281
     1
  3
A0
350
10D
  3
A1
350
1BE
  3
A2
350
1BF
  3
A3
350
1C0
  3
A4
350
1C1
  3
A5
350
1C2
  3
A6
350
1C3
  3
A7
350
1C4
  3
A8
350
1C5
  3
A9
350
1C6
  3
B0
350
1C7
  3
B1
350
1C8
  3
B2
350
1C9
  3
B3
350
1CA
  3
B4
350
1CB
  3
B5
350
1CC
  3
B6
350
1CD
  0
DICTIONARY
  5
7E
102
{ACAD_REACTORS
330
C
102
}
330
C
100
AcDbDictionary
281
     1
  3
Standard
350
7F
  0
DICTIONARY
  5
EF
102
{ACAD_REACTORS
330
C
102
}
330
C
100
AcDbDictionary
281
     1
  3
2dWireframe
350
F5
  3
3D Hidden
350
F7
  3
3dWireframe
350
F6
  3
Basic
350
F4
  3
Brighten
350
FB
  3
ColorChange
350
FF
  3
Conceptual
350
F8
  3
Dim
350
FA
  3
Facepattern
350
FE
  3
Flat
350
F0
  3
FlatWithEdges
350
F1
  3
Gouraud
350
F2
  3
GouraudWithEdges
350
F3
  3
Linepattern
350
FD
  3
Realistic
350
F9
  3
Thicken
350
FC
  0
XRECORD
  5
4B1
102
{ACAD_REACTORS
330
C
102
}
330
C
100
AcDbXrecord
280
     1
 90
        1
330
7F
  0
DICTIONARY
  5
5E
102
{ACAD_REACTORS
330
C
102
}
330
C
100
AcDbDictionary
281
     1
  3
CANNOSCALE
350
146
  3
CMLEADERSTYLE
350
145
  3
CTABLESTYLE
350
84
  3
DIMASSOC
350
5F
  3
HIDETEXT
350
63
  3
LAYEREVAL
350
1AE
  3
LAYERNOTIFY
350
1AF
  3
XCLIPFRAME
350
356
  0
DICTIONARY
  5
4A8
102
{ACAD_REACTORS
330
C
102
}
330
C
100
AcDbDictionary
281
     1
  3
MC_VERSION_DATA
350
4AB
  3
MCS_PARAMS_DATA
350
4AA
  3
McSubentIdentification
350
4A9
  0
SORTENTSTABLE
  5
235
102
{ACAD_REACTORS
330
234
102
}
330
234
100
AcDbSortentsTable
330
1F
331
0
  5
237
  0
LAYOUT
  5
225
102
{ACAD_REACTORS
330
1A
102
}
330
1A
100
AcDbPlotSettings
  1

  2
none_device
  4
ISO_A0_(1189.00_x_841.00_MM)
  6

 40
7.5
 41
20.0
 42
7.5
 43
20.0
 44
1189.0
 45
841.0
 46
0.0
 47
0.0
 48
0.0
 49
0.0
140
0.0
141
0.0
142
1.0
143
1.0
 70
   688
 72
     1
 73
     0
 74
     5
  7

 75
    16
 76
     0
 77
     2
 78
   300
147
1.0
148
0.0
149
0.0
100
AcDbLayout
  1
A0
 70
     0
 71
     7
 10
0.0
 20
0.0
 11
0.0
 21
0.0
 12
0.0
 22
0.0
 32
0.0
 14
0.0
 24
0.0
 34
0.0
 15
0.0
 25
0.0
 35
0.0
146
0.0
 13
0.0
 23
0.0
 33
0.0
 16
1.0
 26
0.0
 36
0.0
 17
0.0
 27
1.0
 37
0.0
 76
     0
330
224
331
228
  0
LAYOUT
  5
220
102
{ACAD_REACTORS
330
1A
102
}
330
1A
100
AcDbPlotSettings
  1

  2
none_device
  4
ISO_A1_(841.00_x_594.00_MM)
  6

 40
7.5
 41
20.0
 42
7.5
 43
20.0
 44
841.0
 45
594.0
 46
0.0
 47
0.0
 48
0.0
 49
0.0
140
0.0
141
0.0
142
1.0
143
1.0
 70
   688
 72
     1
 73
     0
 74
     5
  7

 75
    16
 76
     0
 77
     2
 78
   300
147
1.0
148
0.0
149
0.0
100
AcDbLayout
  1
A1
 70
     1
 71
     6
 10
-20.0
 20
-7.5
 11
277.0
 21
202.5
 12
0.0
 22
0.0
 32
0.0
 14
0.0
 24
0.0
 34
0.0
 15
0.0
 25
0.0
 35
0.0
146
0.0
 13
0.0
 23
0.0
 33
0.0
 16
1.0
 26
0.0
 36
0.0
 17
0.0
 27
1.0
 37
0.0
 76
     0
330
21F
331
223
  0
LAYOUT
  5
21B
102
{ACAD_REACTORS
330
1A
102
}
330
1A
100
AcDbPlotSettings
  1

  2
none_device
  4
ISO_A2_(594.00_x_420.00_MM)
  6

 40
7.5
 41
20.0
 42
7.5
 43
20.0
 44
594.0
 45
420.0
 46
0.0
 47
0.0
 48
0.0
 49
0.0
140
0.0
141
0.0
142
1.0
143
1.0
 70
   688
 72
     1
 73
     0
 74
     5
  7

 75
    16
 76
     0
 77
     2
 78
   300
147
1.0
148
0.0
149
0.0
100
AcDbLayout
  1
A2
 70
     1
 71
     5
 10
0.0
 20
0.0
 11
0.0
 21
0.0
 12
0.0
 22
0.0
 32
0.0
 14
0.0
 24
0.0
 34
0.0
 15
0.0
 25
0.0
 35
0.0
146
0.0
 13
0.0
 23
0.0
 33
0.0
 16
1.0
 26
0.0
 36
0.0
 17
0.0
 27
1.0
 37
0.0
 76
     0
330
21A
331
21E
  0
LAYOUT
  5
216
102
{ACAD_REACTORS
330
1A
102
}
330
1A
100
AcDbPlotSettings
  1

  2
none_device
  4
ISO_A3_(420.00_x_297.00_MM)
  6

 40
7.5
 41
20.0
 42
7.5
 43
20.0
 44
420.0
 45
297.0
 46
0.0
 47
0.0
 48
0.0
 49
0.0
140
0.0
141
0.0
142
1.0
143
1.0
 70
   688
 72
     1
 73
     0
 74
     5
  7

 75
    16
 76
     0
 77
     2
 78
   300
147
1.0
148
0.0
149
0.0
100
AcDbLayout
  1
A3
 70
     1
 71
     4
 10
0.0
 20
0.0
 11
0.0
 21
0.0
 12
0.0
 22
0.0
 32
0.0
 14
0.0
 24
0.0
 34
0.0
 15
0.0
 25
0.0
 35
0.0
146
0.0
 13
0.0
 23
0.0
 33
0.0
 16
1.0
 26
0.0
 36
0.0
 17
0.0
 27
1.0
 37
0.0
 76
     0
330
215
331
219
  0
LAYOUT
  5
211
102
{ACAD_REACTORS
330
1A
102
}
330
1A
100
AcDbPlotSettings
  1

  2
none_device
  4
ISO_A4_(210.00_x_297.00_MM)
  6

 40
7.5
 41
20.0
 42
7.5
 43
20.0
 44
210.0
 45
297.0
 46
0.0
 47
0.0
 48
0.0
 49
0.0
140
0.0
141
0.0
142
1.0
143
1.0
 70
   688
 72
     1
 73
     0
 74
     5
  7

 75
    16
 76
     0
 77
     2
 78
   300
147
1.0
148
0.0
149
0.0
100
AcDbLayout
  1
A4
 70
     1
 71
     3
 10
0.0
 20
0.0
 11
0.0
 21
0.0
 12
0.0
 22
0.0
 32
0.0
 14
0.0
 24
0.0
 34
0.0
 15
0.0
 25
0.0
 35
0.0
146
0.0
 13
0.0
 23
0.0
 33
0.0
 16
1.0
 26
0.0
 36
0.0
 17
0.0
 27
1.0
 37
0.0
 76
     0
330
210
331
214
  0
LAYOUT
  5
22
102
{ACAD_REACTORS
330
1A
102
}
102
{ACAD_XDICTIONARY
360
358
102
}
330
1A
100
AcDbPlotSettings
  1

  2
none_device
  4
ISO_A4_(210.00_x_297.00_MM)
  6

 40
7.5
 41
20.0
 42
7.5
 43
20.0
 44
210.0
 45
297.0
 46
0.0
 47
0.0
 48
0.0
 49
0.0
140
0.0
141
0.0
142
1.0
143
2.196923
 70
 11952
 72
     1
 73
     0
 74
     0
  7

 75
     0
 76
     0
 77
     2
 78
   300
147
0.455182
148
0.0
149
0.0
100
AcDbLayout
  1
Model
 70
     1
 71
     0
 10
0.0
 20
0.0
 11
84100.0
 21
59400.0
 12
0.0
 22
0.0
 32
0.0
 14
0.0
 24
0.0
 34
0.0
 15
0.0
 25
0.0
 35
0.0
146
0.0
 13
0.0
 23
0.0
 33
0.0
 16
1.0
 26
0.0
 36
0.0
 17
0.0
 27
1.0
 37
0.0
 76
     0
330
1F
331
EA
1001
ACAD_PSEXT
1000
None
1000
None
1000
Not applicable
1000
The layout will not be plotted unless a new plotter configuration name is selected.
1070
     0
  0
LAYOUT
  5
D3
102
{ACAD_REACTORS
330
1A
102
}
330
1A
100
AcDbPlotSettings
  1

  2
none_device
  4
ISO_A4_(210.00_x_297.00_MM)
  6

 40
7.5
 41
20.0
 42
7.5
 43
20.0
 44
210.0
 45
297.0
 46
0.0
 47
0.0
 48
0.0
 49
0.0
140
0.0
141
0.0
142
1.0
143
1.0
 70
   688
 72
     1
 73
     1
 74
     5
  7

 75
    16
 76
     0
 77
     2
 78
   300
147
1.0
148
0.0
149
0.0
100
AcDbLayout
  1
Лист1
 70
     0
 71
     1
 10
0.0
 20
0.0
 11
12.0
 21
9.0
 12
0.0
 22
0.0
 32
0.0
 14
0.0
 24
0.0
 34
0.0
 15
0.0
 25
0.0
 35
0.0
146
0.0
 13
0.0
 23
0.0
 33
0.0
 16
1.0
 26
0.0
 36
0.0
 17
0.0
 27
1.0
 37
0.0
 76
     0
330
D2
331
229
  0
LAYOUT
  5
D7
102
{ACAD_REACTORS
330
1A
102
}
330
1A
100
AcDbPlotSettings
  1

  2
none_device
  4
ISO_A4_(210.00_x_297.00_MM)
  6

 40
7.5
 41
20.0
 42
7.5
 43
20.0
 44
210.0
 45
297.0
 46
0.0
 47
0.0
 48
0.0
 49
0.0
140
0.0
141
0.0
142
1.0
143
1.0
 70
   688
 72
     1
 73
     1
 74
     5
  7

 75
    16
 76
     0
 77
     2
 78
   300
147
1.0
148
0.0
149
0.0
100
AcDbLayout
  1
Лист2
 70
     1
 71
     2
 10
-20.0
 20
-7.5
 11
277.0
 21
202.5
 12
0.0
 22
0.0
 32
0.0
 14
0.0
 24
0.0
 34
0.0
 15
0.0
 25
0.0
 35
0.0
146
0.0
 13
0.0
 23
0.0
 33
0.0
 16
1.0
 26
0.0
 36
0.0
 17
0.0
 27
1.0
 37
0.0
 76
     0
330
D6
331
20F
  0
MATERIAL
  5
ED
102
{ACAD_REACTORS
330
6A
102
}
330
6A
100
AcDbMaterial
  1
ByBlock
 72
     1
 73
     2
 78
     2
172
     2
176
     2
270
     2
274
     2
 94
       63
  0
MATERIAL
  5
EC
102
{ACAD_REACTORS
330
6A
102
}
330
6A
100
AcDbMaterial
  1
ByLayer
 72
     1
 73
     2
 78
     2
172
     2
176
     2
270
     2
274
     2
 94
       63
  0
MATERIAL
  5
EE
102
{ACAD_REACTORS
330
6A
102
}
330
6A
100
AcDbMaterial
  1
Global
 72
     1
 73
     2
 43
0.0008
 43
0.0
 43
0.0
 43
0.0
 43
0.0
 43
0.0008
 43
0.0
 43
0.0
 43
0.0
 43
0.0
 43
1.0
 43
0.0
 43
0.0
 43
0.0
 43
0.0
 43
1.0
 78
     2
172
     2
 49
0.0008
 49
0.0
 49
0.0
 49
0.0
 49
0.0
 49
0.0008
 49
0.0
 49
0.0
 49
0.0
 49
0.0
 49
1.0
 49
0.0
 49
0.0
 49
0.0
 49
0.0
 49
1.0
176
     2
142
0.0008
142
0.0
142
0.0
142
0.0
142
0.0
142
0.0008
142
0.0
142
0.0
142
0.0
142
0.0
142
1.0
142
0.0
142
0.0
142
0.0
142
0.0
142
1.0
270
     2
144
0.0008
144
0.0
144
0.0
144
0.0
144
0.0
144
0.0008
144
0.0
144
0.0
144
0.0
144
0.0
144
1.0
144
0.0
144
0.0
144
0.0
144
0.0
144
1.0
274
     2
 94
       63
1001
ACAD
1070
    -1
1070
     3
1070
     0
1000

1071
        0
1070
     0
  0
MLEADERSTYLE
  5
12E
102
{ACAD_REACTORS
330
12D
102
}
330
12D
100
AcDbMLeaderStyle
179
     2
170
     2
171
     1
172
     0
 90
        2
 40
0.0
 41
0.0
173
     1
 91
-1056964608
340
14
 92
       -2
290
     1
 42
2.0
291
     1
 43
8.0
  3
Standard
341
0
 44
4.0
300

342
11
174
     1
178
     1
175
     1
176
     0
 93
-1056964608
 45
4.0
292
     0
297
     0
 46
4.0
343
0
 94
-1056964608
 47
1.0
 49
1.0
140
1.0
293
     1
141
0.0
294
     1
177
     0
142
1.0
295
     0
296
     0
143
3.75
271
     0
272
     9
273
     9
1001
ACAD_MLEADERVER
1070
     2
  0
MLEADERSTYLE
  5
13B
102
{ACAD_REACTORS
330
12D
102
}
330
12D
100
AcDbMLeaderStyle
179
     2
170
     2
171
     1
172
     0
 90
        2
 40
0.0
 41
0.0
173
     1
 91
-1056964608
340
14
 92
       -2
290
     1
 42
2.0
291
     1
 43
8.0
  3
Standard
341
0
 44
4.0
300

342
11
174
     1
178
     1
175
     1
176
     0
 93
-1056964608
 45
4.0
292
     0
297
     0
 46
4.0
343
0
 94
-1056964608
 47
1.0
 49
1.0
140
1.0
293
     1
141
0.0
294
     1
177
     0
142
1.0
295
     1
296
     0
143
3.75
271
     0
272
     9
273
     9
1001
ACAD_MLEADERVER
1070
     2
  0
MLINESTYLE
  5
18
102
{ACAD_REACTORS
330
17
102
}
330
17
100
AcDbMlineStyle
  2
STANDARD
 70
     0
  3

 62
   256
 51
90.0
 52
90.0
 71
     2
 49
0.5
 62
   256
  6
BYLAYER
 49
-0.5
 62
   256
  6
BYLAYER
  0
ACDBPLACEHOLDER
  5
F
102
{ACAD_REACTORS
330
E
102
}
330
E
  0
SCALE
  5
10D
102
{ACAD_REACTORS
330
10C
102
}
330
10C
100
AcDbScale
 70
     0
300
1:1
140
1.0
141
1.0
290
     1
  0
SCALE
  5
1BE
102
{ACAD_REACTORS
330
10C
102
}
330
10C
100
AcDbScale
 70
     0
300
1:2
140
1.0
141
2.0
290
     0
  0
SCALE
  5
1BF
102
{ACAD_REACTORS
330
10C
102
}
330
10C
100
AcDbScale
 70
     0
300
1:4
140
1.0
141
4.0
290
     0
  0
SCALE
  5
1C0
102
{ACAD_REACTORS
330
10C
102
}
330
10C
100
AcDbScale
 70
     0
300
1:5
140
1.0
141
5.0
290
     0
  0
SCALE
  5
1C1
102
{ACAD_REACTORS
330
10C
102
}
330
10C
100
AcDbScale
 70
     0
300
1:8
140
1.0
141
8.0
290
     0
  0
SCALE
  5
1C2
102
{ACAD_REACTORS
330
10C
102
}
330
10C
100
AcDbScale
 70
     0
300
1:10
140
1.0
141
10.0
290
     0
  0
SCALE
  5
1C3
102
{ACAD_REACTORS
330
10C
102
}
330
10C
100
AcDbScale
 70
     0
300
1:16
140
1.0
141
16.0
290
     0
  0
SCALE
  5
1C4
102
{ACAD_REACTORS
330
10C
102
}
330
10C
100
AcDbScale
 70
     0
300
1:20
140
1.0
141
20.0
290
     0
  0
SCALE
  5
1C5
102
{ACAD_REACTORS
330
10C
102
}
330
10C
100
AcDbScale
 70
     0
300
1:30
140
1.0
141
30.0
290
     0
  0
SCALE
  5
1C6
102
{ACAD_REACTORS
330
10C
102
}
330
10C
100
AcDbScale
 70
     0
300
1:40
140
1.0
141
40.0
290
     0
  0
SCALE
  5
1C7
102
{ACAD_REACTORS
330
10C
102
}
330
10C
100
AcDbScale
 70
     0
300
1:50
140
1.0
141
50.0
290
     0
  0
SCALE
  5
1C8
102
{ACAD_REACTORS
330
10C
102
}
330
10C
100
AcDbScale
 70
     0
300
1:100
140
1.0
141
100.0
290
     0
  0
SCALE
  5
1C9
102
{ACAD_REACTORS
330
10C
102
}
330
10C
100
AcDbScale
 70
     0
300
2:1
140
2.0
141
1.0
290
     0
  0
SCALE
  5
1CA
102
{ACAD_REACTORS
330
10C
102
}
330
10C
100
AcDbScale
 70
     0
300
4:1
140
4.0
141
1.0
290
     0
  0
SCALE
  5
1CB
102
{ACAD_REACTORS
330
10C
102
}
330
10C
100
AcDbScale
 70
     0
300
8:1
140
8.0
141
1.0
290
     0
  0
SCALE
  5
1CC
102
{ACAD_REACTORS
330
10C
102
}
330
10C
100
AcDbScale
 70
     0
300
10:1
140
10.0
141
1.0
290
     0
  0
SCALE
  5
1CD
102
{ACAD_REACTORS
330
10C
102
}
330
10C
100
AcDbScale
 70
     0
300
100:1
140
100.0
141
1.0
290
     0
  0
TABLESTYLE
  5
7F
102
{ACAD_REACTORS
330
7E
102
}
102
{ACAD_XDICTIONARY
360
4AF
102
}
330
7E
100
AcDbTableStyle
  3
Standard
 70
     0
 71
     0
 40
0.06
 41
0.06
280
     0
281
     0
  7
Standard
140
4.5
170
     2
 62
     0
 63
   257
283
     0
 90
      512
 91
        0
  1

274
    -2
284
     1
 64
     0
275
    -2
285
     1
 65
     0
276
    -2
286
     1
 66
     0
277
    -2
287
     1
 67
     0
278
    -2
288
     1
 68
     0
279
    -2
289
     1
 69
     0
  7
Standard
140
6.0
170
     5
 62
     0
 63
   257
283
     0
 90
      512
 91
        0
  1

274
    -2
284
     1
 64
     0
275
    -2
285
     1
 65
     0
276
    -2
286
     1
 66
     0
277
    -2
287
     1
 67
     0
278
    -2
288
     1
 68
     0
279
    -2
289
     1
 69
     0
  7
Standard
140
4.5
170
     5
 62
     0
 63
   257
283
     0
 90
      512
 91
        0
  1

274
    -2
284
     1
 64
     0
275
    -2
285
     1
 65
     0
276
    -2
286
     1
 66
     0
277
    -2
287
     1
 67
     0
278
    -2
288
     1
 68
     0
279
    -2
289
     1
 69
     0
  0
VISUALSTYLE
  5
F5
102
{ACAD_REACTORS
330
EF
102
}
330
EF
100
AcDbVisualStyle
  2
2dWireframe
 70
     4
177
     2
291
     0
 71
     0
176
     1
 72
     2
176
     1
 73
     1
176
     1
 90
        0
176
     1
 40
-0.6
176
     1
 41
-30.0
176
     1
 62
     5
 63
     7
421
 16777215
176
     1
 74
     1
176
     1
 91
        4
176
     1
 64
     7
176
     1
 65
   257
176
     1
 75
     1
176
     1
175
     1
176
     1
 42
1.0
176
     1
 92
        0
176
     1
 66
   257
176
     1
 43
1.0
176
     1
 76
     1
176
     1
 77
     6
176
     1
 78
     2
176
     1
 67
     7
176
     1
 79
     5
176
     1
170
     0
176
     1
171
     0
176
     1
290
     0
176
     1
 93
        1
176
     1
 44
0.0
176
     1
173
     0
176
     1
  0
VISUALSTYLE
  5
F7
102
{ACAD_REACTORS
330
EF
102
}
330
EF
100
AcDbVisualStyle
  2
3D Hidden
 70
     6
177
     2
291
     0
 71
     1
176
     1
 72
     2
176
     1
 73
     2
176
     1
 90
        0
176
     1
 40
-0.6
176
     1
 41
-30.0
176
     1
 62
     5
 63
     7
421
 16777215
176
     1
 74
     2
176
     1
 91
        2
176
     1
 64
     7
176
     1
 65
   257
176
     1
 75
     2
176
     1
175
     1
176
     1
 42
40.0
176
     1
 92
        0
176
     1
 66
   257
176
     1
 43
1.0
176
     1
 76
     1
176
     1
 77
     6
176
     1
 78
     2
176
     1
 67
     7
176
     1
 79
     3
176
     1
170
     0
176
     1
171
     0
176
     1
290
     0
176
     1
 93
        1
176
     1
 44
0.0
176
     1
173
     0
176
     1
  0
VISUALSTYLE
  5
F6
102
{ACAD_REACTORS
330
EF
102
}
330
EF
100
AcDbVisualStyle
  2
3dWireframe
 70
     5
177
     2
291
     0
 71
     0
176
     1
 72
     2
176
     1
 73
     1
176
     1
 90
        0
176
     1
 40
-0.6
176
     1
 41
-30.0
176
     1
 62
     5
 63
     7
421
 16777215
176
     1
 74
     1
176
     1
 91
        4
176
     1
 64
     7
176
     1
 65
   257
176
     1
 75
     1
176
     1
175
     1
176
     1
 42
1.0
176
     1
 92
        0
176
     1
 66
   257
176
     1
 43
1.0
176
     1
 76
     1
176
     1
 77
     6
176
     1
 78
     2
176
     1
 67
     7
176
     1
 79
     5
176
     1
170
     0
176
     1
171
     0
176
     1
290
     0
176
     1
 93
        1
176
     1
 44
0.0
176
     1
173
     0
176
     1
  0
VISUALSTYLE
  5
F4
102
{ACAD_REACTORS
330
EF
102
}
330
EF
100
AcDbVisualStyle
  2
Basic
 70
     7
177
     2
291
     1
 71
     1
176
     1
 72
     0
176
     1
 73
     1
176
     1
 90
        0
176
     1
 40
-0.6
176
     1
 41
-30.0
176
     1
 62
     5
 63
     7
421
 16777215
176
     1
 74
     0
176
     1
 91
        4
176
     1
 64
     7
176
     1
 65
   257
176
     1
 75
     1
176
     1
175
     1
176
     1
 42
1.0
176
     1
 92
        8
176
     1
 66
     7
176
     1
 43
1.0
176
     1
 76
     1
176
     1
 77
     6
176
     1
 78
     2
176
     1
 67
     7
176
     1
 79
     5
176
     1
170
     0
176
     1
171
     0
176
     1
290
     0
176
     1
 93
        1
176
     1
 44
0.0
176
     1
173
     0
176
     1
  0
VISUALSTYLE
  5
FB
102
{ACAD_REACTORS
330
EF
102
}
330
EF
100
AcDbVisualStyle
  2
Brighten
 70
    12
177
     2
291
     1
 71
     2
176
     1
 72
     2
176
     1
 73
     1
176
     1
 90
        0
176
     1
 40
-0.6
176
     1
 41
-30.0
176
     1
 62
     5
 63
     7
421
 16777215
176
     1
 74
     1
176
     1
 91
        4
176
     1
 64
     7
176
     1
 65
   257
176
     1
 75
     1
176
     1
175
     1
176
     1
 42
1.0
176
     1
 92
        8
176
     1
 66
     7
176
     1
 43
1.0
176
     1
 76
     1
176
     1
 77
     6
176
     1
 78
     2
176
     1
 67
     7
176
     1
 79
     5
176
     1
170
     0
176
     1
171
     0
176
     1
290
     0
176
     1
 93
        1
176
     1
 44
50.0
176
     1
173
     0
176
     1
  0
VISUALSTYLE
  5
FF
102
{ACAD_REACTORS
330
EF
102
}
330
EF
100
AcDbVisualStyle
  2
ColorChange
 70
    16
177
     2
291
     1
 71
     2
176
     1
 72
     2
176
     1
 73
     3
176
     1
 90
        0
176
     1
 40
-0.6
176
     1
 41
-30.0
176
     1
 62
     5
 63
     8
421
  8421504
176
     1
 74
     1
176
     1
 91
        4
176
     1
 64
     7
176
     1
 65
   257
176
     1
 75
     1
176
     1
175
     1
176
     1
 42
1.0
176
     1
 92
        8
176
     1
 66
     8
424
  8421504
176
     1
 43
1.0
176
     1
 76
     1
176
     1
 77
     6
176
     1
 78
     2
176
     1
 67
     7
176
     1
 79
     5
176
     1
170
     0
176
     1
171
     0
176
     1
290
     0
176
     1
 93
        1
176
     1
 44
0.0
176
     1
173
     0
176
     1
  0
VISUALSTYLE
  5
F8
102
{ACAD_REACTORS
330
EF
102
}
330
EF
100
AcDbVisualStyle
  2
Conceptual
 70
     9
177
     2
291
     0
 71
     3
176
     1
 72
     2
176
     1
 73
     1
176
     1
 90
        0
176
     1
 40
-0.6
176
     1
 41
-30.0
176
     1
 62
     5
 63
     7
421
 16777215
176
     1
 74
     2
176
     1
 91
        2
176
     1
 64
     7
176
     1
 65
   257
176
     1
 75
     1
176
     1
175
     1
176
     1
 42
40.0
176
     1
 92
        8
176
     1
 66
     7
176
     1
 43
1.0
176
     1
 76
     1
176
     1
 77
     6
176
     1
 78
     2
176
     1
 67
     7
176
     1
 79
     3
176
     1
170
     0
176
     1
171
     0
176
     1
290
     0
176
     1
 93
        1
176
     1
 44
0.0
176
     1
173
     0
176
     1
  0
VISUALSTYLE
  5
FA
102
{ACAD_REACTORS
330
EF
102
}
330
EF
100
AcDbVisualStyle
  2
Dim
 70
    11
177
     2
291
     1
 71
     2
176
     1
 72
     2
176
     1
 73
     1
176
     1
 90
        0
176
     1
 40
-0.6
176
     1
 41
-30.0
176
     1
 62
     5
 63
     7
421
 16777215
176
     1
 74
     1
176
     1
 91
        4
176
     1
 64
     7
176
     1
 65
   257
176
     1
 75
     1
176
     1
175
     1
176
     1
 42
1.0
176
     1
 92
        8
176
     1
 66
     7
176
     1
 43
1.0
176
     1
 76
     1
176
     1
 77
     6
176
     1
 78
     2
176
     1
 67
     7
176
     1
 79
     5
176
     1
170
     0
176
     1
171
     0
176
     1
290
     0
176
     1
 93
        1
176
     1
 44
-50.0
176
     1
173
     0
176
     1
  0
VISUALSTYLE
  5
FE
102
{ACAD_REACTORS
330
EF
102
}
330
EF
100
AcDbVisualStyle
  2
Facepattern
 70
    15
177
     2
291
     1
 71
     2
176
     1
 72
     2
176
     1
 73
     1
176
     1
 90
        0
176
     1
 40
-0.6
176
     1
 41
-30.0
176
     1
 62
     5
 63
     7
421
 16777215
176
     1
 74
     1
176
     1
 91
        4
176
     1
 64
     7
176
     1
 65
   257
176
     1
 75
     1
176
     1
175
     1
176
     1
 42
1.0
176
     1
 92
        8
176
     1
 66
     7
176
     1
 43
1.0
176
     1
 76
     1
176
     1
 77
     6
176
     1
 78
     2
176
     1
 67
     7
176
     1
 79
     5
176
     1
170
     0
176
     1
171
     0
176
     1
290
     0
176
     1
 93
        1
176
     1
 44
0.0
176
     1
173
     0
176
     1
  0
VISUALSTYLE
  5
F0
102
{ACAD_REACTORS
330
EF
102
}
330
EF
100
AcDbVisualStyle
  2
Flat
 70
     0
177
     2
291
     1
 71
     2
176
     1
 72
     1
176
     1
 73
     1
176
     1
 90
        2
176
     1
 40
-0.6
176
     1
 41
30.0
176
     1
 62
     5
 63
     7
421
 16777215
176
     1
 74
     0
176
     1
 91
        4
176
     1
 64
     7
176
     1
 65
   257
176
     1
 75
     1
176
     1
175
     1
176
     1
 42
1.0
176
     1
 92
        8
176
     1
 66
     7
176
     1
 43
1.0
176
     1
 76
     1
176
     1
 77
     6
176
     1
 78
     2
176
     1
 67
     7
176
     1
 79
     5
176
     1
170
     0
176
     1
171
     0
176
     1
290
     0
176
     1
 93
        1
176
     1
 44
0.0
176
     1
173
     0
176
     1
  0
VISUALSTYLE
  5
F1
102
{ACAD_REACTORS
330
EF
102
}
330
EF
100
AcDbVisualStyle
  2
FlatWithEdges
 70
     1
177
     2
291
     1
 71
     2
176
     1
 72
     1
176
     1
 73
     1
176
     1
 90
        2
176
     1
 40
-0.6
176
     1
 41
30.0
176
     1
 62
     5
 63
     7
421
 16777215
176
     1
 74
     1
176
     1
 91
        4
176
     1
 64
     7
176
     1
 65
   257
176
     1
 75
     1
176
     1
175
     1
176
     1
 42
1.0
176
     1
 92
        0
176
     1
 66
   257
176
     1
 43
1.0
176
     1
 76
     1
176
     1
 77
     6
176
     1
 78
     2
176
     1
 67
     7
176
     1
 79
     5
176
     1
170
     0
176
     1
171
     0
176
     1
290
     0
176
     1
 93
        1
176
     1
 44
0.0
176
     1
173
     0
176
     1
  0
VISUALSTYLE
  5
F2
102
{ACAD_REACTORS
330
EF
102
}
330
EF
100
AcDbVisualStyle
  2
Gouraud
 70
     2
177
     2
291
     1
 71
     2
176
     1
 72
     2
176
     1
 73
     1
176
     1
 90
        2
176
     1
 40
-0.6
176
     1
 41
30.0
176
     1
 62
     5
 63
     7
421
 16777215
176
     1
 74
     0
176
     1
 91
        4
176
     1
 64
     7
176
     1
 65
   257
176
     1
 75
     1
176
     1
175
     1
176
     1
 42
1.0
176
     1
 92
        0
176
     1
 66
     7
176
     1
 43
1.0
176
     1
 76
     1
176
     1
 77
     6
176
     1
 78
     2
176
     1
 67
     7
176
     1
 79
     5
176
     1
170
     0
176
     1
171
     0
176
     1
290
     0
176
     1
 93
        1
176
     1
 44
0.0
176
     1
173
     0
176
     1
  0
VISUALSTYLE
  5
F3
102
{ACAD_REACTORS
330
EF
102
}
330
EF
100
AcDbVisualStyle
  2
GouraudWithEdges
 70
     3
177
     2
291
     1
 71
     2
176
     1
 72
     2
176
     1
 73
     1
176
     1
 90
        2
176
     1
 40
-0.6
176
     1
 41
30.0
176
     1
 62
     5
 63
     7
421
 16777215
176
     1
 74
     1
176
     1
 91
        4
176
     1
 64
     7
176
     1
 65
   257
176
     1
 75
     1
176
     1
175
     1
176
     1
 42
1.0
176
     1
 92
        0
176
     1
 66
   257
176
     1
 43
1.0
176
     1
 76
     1
176
     1
 77
     6
176
     1
 78
     2
176
     1
 67
     7
176
     1
 79
     5
176
     1
170
     0
176
     1
171
     0
176
     1
290
     0
176
     1
 93
        1
176
     1
 44
0.0
176
     1
173
     0
176
     1
  0
VISUALSTYLE
  5
FD
102
{ACAD_REACTORS
330
EF
102
}
330
EF
100
AcDbVisualStyle
  2
Linepattern
 70
    14
177
     2
291
     1
 71
     2
176
     1
 72
     2
176
     1
 73
     1
176
     1
 90
        0
176
     1
 40
-0.6
176
     1
 41
-30.0
176
     1
 62
     5
 63
     7
421
 16777215
176
     1
 74
     1
176
     1
 91
        4
176
     1
 64
     7
176
     1
 65
   257
176
     1
 75
     7
176
     1
175
     7
176
     1
 42
1.0
176
     1
 92
        8
176
     1
 66
     7
176
     1
 43
1.0
176
     1
 76
     1
176
     1
 77
     6
176
     1
 78
     2
176
     1
 67
     7
176
     1
 79
     5
176
     1
170
     0
176
     1
171
     0
176
     1
290
     0
176
     1
 93
        1
176
     1
 44
0.0
176
     1
173
     0
176
     1
  0
VISUALSTYLE
  5
F9
102
{ACAD_REACTORS
330
EF
102
}
330
EF
100
AcDbVisualStyle
  2
Realistic
 70
     8
177
     2
291
     0
 71
     2
176
     1
 72
     2
176
     1
 73
     1
176
     1
 90
        0
176
     1
 40
-0.6
176
     1
 41
-30.0
176
     1
 62
     5
 63
     7
421
 16777215
176
     1
 74
     1
176
     1
 91
        0
176
     1
 64
     7
176
     1
 65
   257
176
     1
 75
     1
176
     1
175
     1
176
     1
 42
1.0
176
     1
 92
        8
176
     1
 66
     8
424
  7895160
176
     1
 43
1.0
176
     1
 76
     1
176
     1
 77
     6
176
     1
 78
     2
176
     1
 67
     7
176
     1
 79
     5
176
     1
170
     0
176
     1
171
     0
176
     1
290
     0
176
     1
 93
       13
176
     1
 44
0.0
176
     1
173
     0
176
     1
  0
VISUALSTYLE
  5
FC
102
{ACAD_REACTORS
330
EF
102
}
330
EF
100
AcDbVisualStyle
  2
Thicken
 70
    13
177
     2
291
     1
 71
     2
176
     1
 72
     2
176
     1
 73
     1
176
     1
 90
        0
176
     1
 40
-0.6
176
     1
 41
-30.0
176
     1
 62
     5
 63
     7
421
 16777215
176
     1
 74
     1
176
     1
 91
        4
176
     1
 64
     7
176
     1
 65
   257
176
     1
 75
     1
176
     1
175
     1
176
     1
 42
1.0
176
     1
 92
       12
176
     1
 66
     7
176
     1
 43
1.0
176
     1
 76
     1
176
     1
 77
     6
176
     1
 78
     2
176
     1
 67
     7
176
     1
 79
     5
176
     1
170
     0
176
     1
171
     0
176
     1
290
     0
176
     1
 93
        1
176
     1
 44
0.0
176
     1
173
     0
176
     1
  0
DICTIONARYVAR
  5
146
102
{ACAD_REACTORS
330
5E
102
}
330
5E
100
DictionaryVariables
280
     0
  1
1:1
  0
DICTIONARYVAR
  5
145
102
{ACAD_REACTORS
330
5E
102
}
330
5E
100
DictionaryVariables
280
     0
  1
Standard
  0
DICTIONARYVAR
  5
84
102
{ACAD_REACTORS
330
5E
102
}
330
5E
100
DictionaryVariables
280
     0
  1
Standard
  0
DICTIONARYVAR
  5
5F
102
{ACAD_REACTORS
330
5E
102
}
330
5E
100
DictionaryVariables
280
     0
  1
2
  0
DICTIONARYVAR
  5
63
102
{ACAD_REACTORS
330
5E
102
}
330
5E
100
DictionaryVariables
280
     0
  1
1
  0
DICTIONARYVAR
  5
1AE
102
{ACAD_REACTORS
330
5E
102
}
330
5E
100
DictionaryVariables
280
     0
  1
0
  0
DICTIONARYVAR
  5
1AF
102
{ACAD_REACTORS
330
5E
102
}
330
5E
100
DictionaryVariables
280
     0
  1
0
  0
DICTIONARYVAR
  5
356
102
{ACAD_REACTORS
330
5E
102
}
330
5E
100
DictionaryVariables
280
     0
  1
0
  0
XRECORD
  5
4AB
102
{ACAD_REACTORS
330
4A8
102
}
330
4A8
100
AcDbXrecord
280
     1
300
MC_VERSION_DATA
 90
       87
310
05000000020000005300000018000100E3040000000000007801936764E5D06671646765600631188080939989899999C1819995818191839389EB1D137B5E625EBEB3A30B01B55A97FFFFFF2F05001FD70A1353000000
  0
XRECORD
  5
4AA
102
{ACAD_REACTORS
330
4A8
102
}
330
4A8
100
AcDbXrecord
280
     1
300
MCS_PARAMS_DATA
 90
     3228
310
0500000002000000A04C000018000100E3040000000000007801CD5C6D8C5E45157E77EEDD6EEF6EB774B75DB66BBBED76919ADE7EECDB6D1705B1D4AA104DA535ADF1AF86FE306A9562A3287E0009F187FF1A4362A28941042181C490E80F93A208F801426DA50874FBE1D2FA515CA11F5060BBEB79CECCDC3973E7DEB636
310
7BDF77491AEEF3BC73EF73E69C997366E6BEEF0ECC6B89948AA2076A51F4C54D2B22D516455351A46645AAA54BF529FA344954D7A86A1B8CE7C55DF1A27861BC3C5E19D34D5DAA9D3F4E8F4E4D4D452ACEF03EE0E8CE5A463CCE44CDDDF1A82648C13CE2C74474A959785ECB60147D0196B4C23030F6BE96289EAAC9665F42
310
33B2346B369B1F104DD283B367ED44A3D9B2574BD9EC44F58EAAF6F9F19278593C180FD4866B6B6AEB6AF5DAFA9A534CD2976129FAD6636EEA1C57ED376DD9B67D6078CDBAFA7AAF9B63F96EEECF77F3B77E37BF0CD3564AD3E642259A55E3FFE28D6C49C09135798EBD1D90F07848927372A4F0D657B4E7C518E8D03E6D25
310
93269D67100BE319AF011BE233B022C790099211FABB7448857E1653161788DCE010EB0A085109493183426E37E468F8BB21CFE326BA9AC5B26B92B2D72C9401C83860875D74B590B8359030DE5FC7FF8DDDC05201E7829CB5934176A408B2205D902D294C3ADC41BD2E9DE80334D17BE3C5714F3C50F9443F024B904CEC44
310
6FC3689BAD2877B05B910C5E411B2F461CC96839CD6AE40681EC90E0CFDC90D0301B1206DA210128E48E6993A209CA8264997D2432939EED661C01668FD49FD6EC2301C5230FE191BD7294D96750BF6D0FE81E42428EBA8C1CEA9A7A72F4A994A3A77C02AE6B6B579B5494A8BE51D5D11F8F505E7B7F5C8FAFA7AB0FC55BE2
310
4DF1E638519DA3AA7530DE10DF145F479FE9ECDE4B571FA6569A8BA23198BC589A7C9579FC22A55624AA675C75D76F1FA95FBB7E78DDA6917A7DF8C60FAC5B7F2DF7669E69389B1AA6076D96F0D8DF706244EF3CFA21A6E1548FDEA369F2A847DF41B470F23531595C9716F7C310AA5E3DA32A59427DBF2EFE607C33F510BE
310
D8E055B043501015EC59561415ECD7DA04B2CC14AC8735413619E287447429E7A428FD1E31896A1B57F1DAA1B5F5EC8A6AC699884C6D95A6CA6CC84EF4091A151EC103C367E0B51C43C64946F8EA6CB30D78B3D9069C6BB6016F35DB80B79B6DC07C4CD866CE82779BED81779A6DC0040C98251391AD36C35E6122240AD3B0
310
5F9808CA3A084899277B90483BE74BE5124F8E90904B7C3982520E50C825426EB254AECF932324E4FA7C3982520E50C8F509B91AC673A1332BE9DD54637BD752DABB4A9CB9A0546E87173B4222763BFCD81194B10314B1DB21621795CA55D23BD558B90472B19CE676718DD567764D8EB4D7BCC0C8009CE800B9D080EC228A
310
AEAC5EA21D1203412FDA56F2806093706D7B41D7AE1700592F18D85EB4AD14BDE88684B731926705FDB4255A4AFFDE471BA4C1B89F36477DDE2A323B2B5860169E73C655F2E99BB76EDEB27DFBC73EAAAD31ABC557F3EBC903F9F5E413BC9ECCBCFE625B3E8476A7C4BD3780D6BBD4FDEC13EEBF43708040E4018B840BFA13
310
122ADC6D6183E2765B62E245CB154DAD6CAFA26136F10CB4130F50C8BD817E5D829CEE1917157A82DC896928E5B031137236D2D84BEE58C86EC44E4B77A7C003ABD0C61B041C05F68B7F24B68C0EC316C7DD7484B48877CAE47B135F3E12639718E2F97CC0F7E603FE881FF0D5B0A2D03138177371C02ED5215A4EC9381094
310
8E01148E691571A897CA693F792746E7E8CC42885E7634BE562AEAF7919090BBEC3E7E3D90F34E5D0E149CC48023E97C3B767240C2D521490ECF91C2ED6B0393EC10F73D304D511E6AACDC9AC6CADD7E8972D3349CBE11C8E5E2CCF334E0AA1C4EDF0C4C2A1E4ED3E4813B1A2BF7ADC6CA7DBBB172DF09E482A153905F2ACD
310
4EF7F55EA8129ACA76F69C393BB3559293630690141DB0B538592192E057D173E43B5B94F9C9C1DB9EDD6876B1B73DB7A291F7B6C798D9750266923106B730A6C968F0726059B17B9880F9A645AC09EA82214E1FF70E207F0A6F517172EF12B81DF5A35613D2E2CD89FCDC499B1BB8727B2D50BB05213CF873487B2F92FC79
310
6F46927BAD341DE5F416B89A44CF5371A2E8917156B4CDABD7B494926B1282724D02286F15BD7A08BD2A5C028963735AFE896373469E1CDD2FE500859C1D9C581B3EDC58B9FB4BE53015B245C3F4C6EC671711B5119CA602F14063E51E2C95F3F72ED3B499D8850980A168F396F55E2406F16DF946B9AC2E9A9E85F9DEC683
310
677B92EE39EDE7AEBB19BBDC751BB04B2049FA392644EEDAAA099B4092F4062284F49B902ECC5DF4C69D87A34D3C8CADB4CED142DA1299744658694D08E9B7205D746C362982D642EFF45D5261E466B986D92C37D0CE724021770E724505E2F523BE938F32B63D4DD256DAD3899E26E9193470593A49C734617B9AA4FB8910
310
D26F43DACBD2415E2E99F7F976DCF78084074292CCC991C2A477669E49EFC2A4E2A128038471046C0364B09B0596F0862247CC0648B710DE9880B457703CCF61DB9B77B1D90AE7DB8501A2863C5682962847395298743E30C92619313BF808446E912F7B473E592A47459EFA6EC5FDFD68E4577882D96424D300A98FD9ADA2
310
7753815CCE138D77784DE76BB18ACB0CAFC2032D8D95538D958B0239135FFDA594669CB8FC0E43AEA8C8AE7E4DA69724ED676CD34B927602BBF492A41327399BD0AC3065FAA4266C7AA12F8F112146FB9390BEF83EE72934BBD83EE769342A2A632B5EF2BBD1C7D8756303B0ECC66A26B22C99A48B35E1BAD14184E8C6EF21
310
3DB3CAD81FB467C5A4CD962BD21B55D48C3F427A66D58C3F0526D9145649CD78A654AE929AF16C20D7F49AF1E7C024EBF04A3CF09C96BBF0BEE3F94B69B42FDF28979EC5ACFF0B9A16E5CDB37C90E2B2E071C62EE1BCC0C726E2BB544FEA731477C7639A7009E73E2284F47E4817AF08ABDE9C1C8074E336277F855C5156DF
310
7640E6B124FD0863E7E4CF03CBACFE19264456BF5113CEC923440827BF00E99995D50F96C75D7AA38AACFE22A4675656FF5B60924D329564F5974AE52AC9692F07724DCFEAAF0426598757E281438D955B1F2CCD2BEDDD4820972B3572A7E7760794E1F2EDE4D63A6B28B7D682A46C97BB5D64BC5138BCA8A25D85931EF1AA
310
603E63976CA3FC49D0A9FC49D0B1FC49D03EFF24E830A49B53D18E40BA7115ED28E48A2ADA5DF41D6BE9E45D8C9D93EF059615ED1E264445DBAD0957D16E2142C4F718A4CB2BDA9C825FD78073434E1FBD1327879C23618A97A4D03238CD99B35198F4F70B9BD48C1FFC8CC124AFD2D93C504959791572C5235F8E872A6AFA
310
F1A0A75EF49A71BA772230A952E77F174978B57C4369DFCC22DB65D73403EC358FFC0C60C43B4013CF00738197687741C28BAFF809C2044F789F20318F60459F816C8E216DC90803EE840185F94D7F578F1D4CEF040891B443AC2B20442524C50C0AB97F20824545E4304E514411798E31499AC3A2BD7CCA22B6458F300159
310
D3E2479A70F9EDFB4408E97F964FA5AAB745FF8274A19345D2E0F730D2C9F254DABCA4114E96DFDACBBDB3F937E48A8AC8F54FFB4E5EC5D839F953C01C59E3D38D4C08270F69C239790911C2C927213DB38AC86B1736A91945E43F30C99BF50D3B7F1B8774E3EAD77F03B9A61791D70393385145CBCD575C05B2198F3F7319
310
4FC32CE31968331EA098116F94CAB573BEB37284845CBB9E86EE43EF15117D2A5F11B50BB953A57295ECC24E97CA55F29D9333A5722291723CA4336522FDBF6217A3381655AB3A4E8744B51A60EC12E93C601E30AEFEBB4A758A7EE8AE2368D2EC3122440C5B834541961EAAAE54B34A9703C2C1D357A9DA205754A9F63CEE
310
3BF86EC6CEC10F02CB4A752F13A252DDA30957A97613219C3C1BD2E595AA196521298FBBF446158BFD76487B65A1E979BA2330C966433114A76FAECF2995AB24717606724D77F8DCC024EBF04A3C704563E5E63556AE2B9033F1CD8EDB503E028E325C9EE32C1790C8742149D92E478A8CB73930C9C6577F835220B112A165
310
AAFC3A2A41B9F001140B1FF913994F067239D3B880065C951EE8864945F5FCB3CFC8049BA45B19BB72B31158969B212644B959A209576E3A8910CE9F0FE9E2257FD5357D01A41BB7FBEC815C514DDFFB2BDFC98F32764E3E002C9DFC0413C2C9BFD08473F24F88104EBE12D233ABA6F796C75D7AA38A9ABE10D233ABA6F705
310
26D9A453454DC786AE2351C9A88AF057AB16C6FA3B909351FA83A7C8F9FC85C849FAE32FF8735DEFA55F250ED0AF13F15355FA735D716DAA1651C36BB8E1C1830709246AE9A89ABB84FEAA17FEE44F9769DA4DFFEFE11B87F07C4CE6ADE9090C54F38C442D1B55577493014B496331FD9BCFB7F6D0AF2057F1CF627BF05B63
310
C8252A1E572D756B59FACBC7D84C7A263EC39FD2AAAF1919D8B973E0E3DBB6E8466A38BD1F47325AB8EF3DFF03A0C8EAD7A04C0000
  0
XRECORD
  5
4A9
102
{ACAD_REACTORS
330
4A8
102
}
330
4A8
100
AcDbXrecord
280
     1
300
McSubentIdentification
 90
       57
310
05000000020001001500000018000100E304000000000000780193679259B1A74F7B6686A27B0BE3D3C8DCC382AF95A400535407EF15000000
  0
DICTIONARY
  5
358
330
22
100
AcDbDictionary
280
     1
281
     1
  3
CSD_PLOT_CONFIG
360
359
  0
DICTIONARY
  5
4AF
330
7F
100
AcDbDictionary
280
     1
281
     1
  3
ACAD_ROUNDTRIP_2008_TABLESTYLE_CELLSTYLEMAP
360
4B0
  0
LAYOUTPRINTCONFIG
  5
359
102
{ACAD_REACTORS
330
358
102
}
330
358
100
AcDbEntity
  8
0
160
                 8
310
0800000000000000
100
CAcLayoutPrintConfig
 93
        0
  0
CELLSTYLEMAP
  5
4B0
102
{ACAD_REACTORS
330
4AF
102
}
330
4AF
100
AcDbCellStyleMap
 90
        3
300
CELLSTYLE
  1
TABLEFORMAT_BEGIN
 90
        5
170
     1
 91
        0
 92
    32768
 62
   257
 93
        1
300
CONTENTFORMAT
  1
CONTENTFORMAT_BEGIN
 90
        0
 91
        0
 92
      512
 93
        0
300

 40
0.0
140
1.0
 94
        5
 62
     0
340
11
144
6.0
309
CONTENTFORMAT_END
171
     1
301
MARGIN
  1
CELLMARGIN_BEGIN
 40
1.5
 40
1.5
 40
1.5
 40
1.5
 40
4.5
 40
4.5
309
CELLMARGIN_END
 94
        6
 95
        1
302
GRIDFORMAT
  1
GRIDFORMAT_BEGIN
 90
        0
 91
        1
 62
     0
 92
       -2
340
14
 93
        0
 40
1.125
309
GRIDFORMAT_END
 95
        2
302
GRIDFORMAT
  1
GRIDFORMAT_BEGIN
 90
        0
 91
        1
 62
     0
 92
       -2
340
14
 93
        0
 40
1.125
309
GRIDFORMAT_END
 95
        4
302
GRIDFORMAT
  1
GRIDFORMAT_BEGIN
 90
        0
 91
        1
 62
     0
 92
       -2
340
14
 93
        0
 40
1.125
309
GRIDFORMAT_END
 95
        8
302
GRIDFORMAT
  1
GRIDFORMAT_BEGIN
 90
        0
 91
        1
 62
     0
 92
       -2
340
14
 93
        0
 40
1.125
309
GRIDFORMAT_END
 95
       16
302
GRIDFORMAT
  1
GRIDFORMAT_BEGIN
 90
        0
 91
        1
 62
     0
 92
       -2
340
14
 93
        0
 40
1.125
309
GRIDFORMAT_END
 95
       32
302
GRIDFORMAT
  1
GRIDFORMAT_BEGIN
 90
        0
 91
        1
 62
     0
 92
       -2
340
14
 93
        0
 40
1.125
309
GRIDFORMAT_END
309
TABLEFORMAT_END
  1
CELLSTYLE_BEGIN
 90
        1
 91
        1
300
_TITLE
309
CELLSTYLE_END
300
CELLSTYLE
  1
TABLEFORMAT_BEGIN
 90
        5
170
     1
 91
        0
 92
        0
 62
   257
 93
        1
300
CONTENTFORMAT
  1
CONTENTFORMAT_BEGIN
 90
        0
 91
        0
 92
      512
 93
        0
300

 40
0.0
140
1.0
 94
        5
 62
     0
340
11
144
4.5
309
CONTENTFORMAT_END
171
     1
301
MARGIN
  1
CELLMARGIN_BEGIN
 40
1.5
 40
1.5
 40
1.5
 40
1.5
 40
4.5
 40
4.5
309
CELLMARGIN_END
 94
        6
 95
        1
302
GRIDFORMAT
  1
GRIDFORMAT_BEGIN
 90
        0
 91
        1
 62
     0
 92
       -2
340
14
 93
        0
 40
1.125
309
GRIDFORMAT_END
 95
        2
302
GRIDFORMAT
  1
GRIDFORMAT_BEGIN
 90
        0
 91
        1
 62
     0
 92
       -2
340
14
 93
        0
 40
1.125
309
GRIDFORMAT_END
 95
        4
302
GRIDFORMAT
  1
GRIDFORMAT_BEGIN
 90
        0
 91
        1
 62
     0
 92
       -2
340
14
 93
        0
 40
1.125
309
GRIDFORMAT_END
 95
        8
302
GRIDFORMAT
  1
GRIDFORMAT_BEGIN
 90
        0
 91
        1
 62
     0
 92
       -2
340
14
 93
        0
 40
1.125
309
GRIDFORMAT_END
 95
       16
302
GRIDFORMAT
  1
GRIDFORMAT_BEGIN
 90
        0
 91
        1
 62
     0
 92
       -2
340
14
 93
        0
 40
1.125
309
GRIDFORMAT_END
 95
       32
302
GRIDFORMAT
  1
GRIDFORMAT_BEGIN
 90
        0
 91
        1
 62
     0
 92
       -2
340
14
 93
        0
 40
1.125
309
GRIDFORMAT_END
309
TABLEFORMAT_END
  1
CELLSTYLE_BEGIN
 90
        2
 91
        1
300
_HEADER
309
CELLSTYLE_END
300
CELLSTYLE
  1
TABLEFORMAT_BEGIN
 90
        5
170
     1
 91
        0
 92
        0
 62
   257
 93
        1
300
CONTENTFORMAT
  1
CONTENTFORMAT_BEGIN
 90
        0
 91
        0
 92
      512
 93
        0
300

 40
0.0
140
1.0
 94
        2
 62
     0
340
11
144
4.5
309
CONTENTFORMAT_END
171
     1
301
MARGIN
  1
CELLMARGIN_BEGIN
 40
1.5
 40
1.5
 40
1.5
 40
1.5
 40
4.5
 40
4.5
309
CELLMARGIN_END
 94
        6
 95
        1
302
GRIDFORMAT
  1
GRIDFORMAT_BEGIN
 90
        0
 91
        1
 62
     0
 92
       -2
340
14
 93
        0
 40
1.125
309
GRIDFORMAT_END
 95
        2
302
GRIDFORMAT
  1
GRIDFORMAT_BEGIN
 90
        0
 91
        1
 62
     0
 92
       -2
340
14
 93
        0
 40
1.125
309
GRIDFORMAT_END
 95
        4
302
GRIDFORMAT
  1
GRIDFORMAT_BEGIN
 90
        0
 91
        1
 62
     0
 92
       -2
340
14
 93
        0
 40
1.125
309
GRIDFORMAT_END
 95
        8
302
GRIDFORMAT
  1
GRIDFORMAT_BEGIN
 90
        0
 91
        1
 62
     0
 92
       -2
340
14
 93
        0
 40
1.125
309
GRIDFORMAT_END
 95
       16
302
GRIDFORMAT
  1
GRIDFORMAT_BEGIN
 90
        0
 91
        1
 62
     0
 92
       -2
340
14
 93
        0
 40
1.125
309
GRIDFORMAT_END
 95
       32
302
GRIDFORMAT
  1
GRIDFORMAT_BEGIN
 90
        0
 91
        1
 62
     0
 92
       -2
340
14
 93
        0
 40
1.125
309
GRIDFORMAT_END
309
TABLEFORMAT_END
  1
CELLSTYLE_BEGIN
 90
        3
 91
        2
300
_DATA
309
CELLSTYLE_END
  0
ENDSEC
  0
EOF
